<!-- Generator: Adobe Illustrator 18.0.0, SVG Export Plug-In  -->
<svg version="1.1"
	 xmlns="http://www.w3.org/2000/svg" xmlns:xlink="http://www.w3.org/1999/xlink" xmlns:a="http://ns.adobe.com/AdobeSVGViewerExtensions/3.0/"
	 x="0px" y="0px" width="250px" height="29px" viewBox="0 0 250 29" enable-background="new 0 0 250 29"
	 xml:space="preserve">
<defs>
    <style>
      .cls-1 {
        fill: #ffffff;
      }

      .cls-1, .cls-2 {
        fill-rule: evenodd;
      }

      .cls-2 {
        fill-opacity: 0;
      }
    </style>
  </defs>
  <path id="Fill_1" data-name="Fill 1" class="cls-1" d="M30.2,8.454H25.677l-2.742,4.5-2.764-4.5H15.565l4.886,7.273-4.939,7.29h4.527l2.781-4.436,2.8,4.436h4.792L25.4,15.654Zm9.5,11.135c1.959,0,3.388-1.648,3.388-3.853,0-2.259-1.429-3.88-3.388-3.88-1.985,0-3.362,1.621-3.362,3.88C36.346,18.02,37.722,19.589,39.708,19.589ZM40.872,8.082c3.335,0,6.486,3.03,6.486,7.654,0,4.677-2.991,7.627-6.406,7.627a5.5,5.5,0,0,1-4.58-2.339v7.521H32.163V8.454h3.283l0.662,2.1A5.764,5.764,0,0,1,40.872,8.082ZM64.247,19.589c1.932,0,3.362-1.568,3.362-3.853,0-2.259-1.43-3.88-3.362-3.88-2.012,0-3.441,1.674-3.441,3.88C60.806,17.968,62.235,19.589,64.247,19.589Zm3.521-9.035,0.688-2.1h3.256V23.017H68.456l-0.688-2.126a5.426,5.426,0,0,1-4.791,2.471c-3.256,0-6.406-3-6.406-7.547,0-4.677,3.15-7.733,6.406-7.733A5.668,5.668,0,0,1,67.768,10.553ZM0,23.017H13.9V19.19H4.262V14.912h8.974V11.377H4.262V7.285H13.9V3.4H0V23.017Zm75.074,0h4.209V8.454H75.074V23.017Zm-25.2,0h4.209V1.916H49.873v21.1Zm40.9-14.935A5.151,5.151,0,0,0,86.4,10.367H86.324L85.663,8.454H82.644V23.017h4.209V14.433a2.4,2.4,0,0,1,2.515-2.525c1.535,0,2.277.8,2.277,2.6v8.5h4.209V13.291C95.854,10.022,93.9,8.082,90.772,8.082ZM77.191,1.624a2.43,2.43,0,0,0-2.515,2.419,2.457,2.457,0,0,0,2.515,2.471A2.417,2.417,0,0,0,79.6,4.043,2.389,2.389,0,0,0,77.191,1.624Z"/>
  <path id="Fill_3" data-name="Fill 3" class="cls-1" d="M131.754,18.618h-0.026l-3.1-10.152h-4.474l5.268,14.563h4.447L139.14,8.467h-4.235Z"/>
  <path id="Fill_5" data-name="Fill 5" class="cls-1" d="M143.8,14.393a3.5,3.5,0,0,1,3.335-2.976,2.721,2.721,0,0,1,2.754,2.976H143.8Zm3.362-6.3c-4.024,0-7.253,3.109-7.253,7.786,0,4.412,2.912,7.494,8.021,7.494a10.091,10.091,0,0,0,5.056-1.2V18.618a7.751,7.751,0,0,1-4.659,1.488,4.3,4.3,0,0,1-4.421-3.189h9.847a7.025,7.025,0,0,0,.133-1.408c0-4.836-3.044-7.414-6.724-7.414h0Z"/>
  <path id="Fill_7" data-name="Fill 7" class="cls-1" d="M203.254,8.095A4.92,4.92,0,0,0,199.363,9.9V1.93h-4.209v21.1h4.209V14.34a2.339,2.339,0,0,1,2.515-2.471c1.509,0,2.277.824,2.277,2.6V23.03h4.208V13.3c0-3.322-2.011-5.208-5.109-5.208"/>
  <path id="Clip_10" data-name="Clip 10" class="cls-2" d="M0,28.93H249.9V0H0V28.93Z"/>
  <g id="Mask_by_Clip_10" data-name="Mask by Clip 10">
    <path id="Fill_9" data-name="Fill 9" class="cls-1" d="M211.593,23.03H215.8V8.467h-4.209V23.03Z"/>
    <path id="Fill_11" data-name="Fill 11" class="cls-1" d="M213.684,1.611A2.429,2.429,0,0,0,211.2,4.056a2.462,2.462,0,1,0,4.924,0,2.434,2.434,0,0,0-2.436-2.445"/>
    <path id="Fill_12" data-name="Fill 12" class="cls-1" d="M227.264,8.095a5.1,5.1,0,0,0-4.341,2.285h-0.079l-0.689-1.913h-2.991V23.03h4.209V14.446a2.381,2.381,0,0,1,2.515-2.525c1.509,0,2.276.8,2.276,2.6v8.5h4.209V13.3c0-3.268-1.985-5.208-5.109-5.208"/>
    <path id="Fill_13" data-name="Fill 13" class="cls-1" d="M242.406,19.017a3.409,3.409,0,0,1-3.362-3.588,3.369,3.369,0,1,1,6.724,0,3.409,3.409,0,0,1-3.362,3.588h0Zm4.209-10.55-0.661,2.046a5.659,5.659,0,0,0-4.66-2.365c-3.335,0-6.512,3-6.512,7.282,0,4.358,3.1,7.335,6.46,7.335a5.434,5.434,0,0,0,4.473-2.312v0.957c0,2.392-1.562,3.853-4.421,3.853a8.455,8.455,0,0,1-5.029-1.595v4.119a11.519,11.519,0,0,0,5.294,1.143c5.241,0,8.339-2.844,8.339-7.972V8.467h-3.283Z"/>
    <path id="Fill_14" data-name="Fill 14" class="cls-1" d="M174.188,18.087h-0.1l-3.124-9.62h-4.473l5.452,14.165-2.461,5.926h4.156L181.6,8.467h-4.289Z"/>
    <path id="Fill_15" data-name="Fill 15" class="cls-1" d="M188.7,17.21V11.922h3.891V8.467H188.7V4.64h-2.171L182.5,10.274v1.647h2.064v5.554c0,3.986,2.039,5.873,6.195,5.873a8.955,8.955,0,0,0,2.118-.239V19.548a6.6,6.6,0,0,1-1.351.186c-1.879,0-2.832-.691-2.832-2.525"/>
    <path id="Fill_16" data-name="Fill 16" class="cls-1" d="M160.291,10.672h-0.053l-0.715-2.205h-3.071V23.03h4.21v-7.1c0-2.764,1.3-3.694,3.626-3.694h1.033V8.414a4.875,4.875,0,0,0-1.139-.08,4.424,4.424,0,0,0-3.891,2.338"/>
    <path id="Fill_17" data-name="Fill 17" class="cls-1" d="M115.667,11.524c2.33,0,3.256.77,3.256,1.7,0,0.9-.926,1.7-2.938,1.7a6.214,6.214,0,0,1-4.915-2.314,9.472,9.472,0,0,1,4.6-1.087m7.875,7.57c-0.921,0-1.48.5-2.343,1.616a8.9,8.9,0,0,1-7.517,3.85c-3.881-.027-6.585-2.392-6.585-6.127a6.253,6.253,0,0,1,1.211-3.655,9.4,9.4,0,0,0,7.355,3.414c4.845,0,6.932-2.526,6.906-5.132-0.027-2.929-2.2-5.052-6.746-5.052a14.879,14.879,0,0,0-5.862,1.177c-0.013-.131-0.022-0.263-0.027-0.4,0-3.01,2.356-5,5.889-5,0.455,0,.776.027,1.124,0.027a1.821,1.821,0,0,0,2.089-1.827c0-1.1-.75-1.988-3.32-1.988C110.1,0,106,3.735,105.973,8.76a11.408,11.408,0,0,0,.334,2.785,9.989,9.989,0,0,0-3.279,7.373c0,5.966,4.39,9.567,10.466,9.567A13.082,13.082,0,0,0,124.7,22.55a3.061,3.061,0,0,0,.549-1.75,1.664,1.664,0,0,0-1.709-1.7"/>
  </g>
</svg>
