<?xml version="1.0" encoding="UTF-8" standalone="no"?>
<svg width="132px" height="27px" viewBox="0 0 132 27" version="1.1" xmlns="http://www.w3.org/2000/svg" xmlns:xlink="http://www.w3.org/1999/xlink">
    <!-- Generator: Sketch 40.3 (33839) - http://www.bohemiancoding.com/sketch -->
    <title>Group 4</title>
    <desc>Created with Sketch.</desc>
    <defs></defs>
    <g id="Contact" stroke="none" stroke-width="1" fill="none" fill-rule="evenodd">
        <g id="ContactUs_ok-Copy-10" transform="translate(-224.000000, -4.000000)" fill="#ffffff">
            <g id="Group-4" transform="translate(224.000000, 4.000000)">
                <path d="M47.813,7.9 L44.846,7.9 L40.292,17.1 L35.738,7.9 L32.771,7.9 L32.771,24 L35.853,24 L35.853,14.11 L38.866,20.09 L41.718,20.09 L44.731,14.11 L44.731,24 L47.813,24 L47.813,7.9 Z M56.231,24.276 C59.819,24.276 61.866,21.93 61.866,18.871 L61.866,17.169 C61.866,14.11 59.819,11.764 56.231,11.764 C52.643,11.764 50.596,14.11 50.596,17.169 L50.596,18.871 C50.596,21.93 52.643,24.276 56.231,24.276 L56.231,24.276 Z M58.83,19.078 C58.83,20.642 58.002,21.815 56.231,21.815 C54.46,21.815 53.632,20.642 53.632,19.078 L53.632,16.962 C53.632,15.398 54.46,14.225 56.231,14.225 C58.002,14.225 58.83,15.398 58.83,16.962 L58.83,19.078 Z M64.419,24 L67.547,24 L67.547,16.916 C67.547,15.306 68.444,14.478 69.847,14.478 C71.365,14.478 72.032,15.467 72.032,16.847 L72.032,24 L75.16,24 L75.16,16.341 C75.16,13.466 73.527,11.764 70.928,11.764 C69.226,11.764 68.007,12.362 67.409,13.466 L67.409,12.04 L64.419,12.04 L64.419,24 Z M82.29,24 L84.452,24 L84.452,21.47 L83.187,21.47 C82.359,21.47 82.06,21.148 82.06,20.366 L82.06,14.57 L84.613,14.57 L84.613,12.04 L82.06,12.04 L82.06,8.774 L78.909,8.774 L78.909,12.04 L77.207,12.04 L77.207,14.57 L78.909,14.57 L78.909,20.596 C78.909,22.712 79.99,24 82.29,24 L82.29,24 Z M91.996,24.276 C94.641,24.276 96.78,22.689 97.194,20.504 L94.457,20.504 C94.158,21.332 93.33,22.022 91.996,22.022 C90.179,22.022 89.466,20.803 89.466,19.4 L89.466,19.101 L97.286,19.101 L97.286,17.008 C97.286,14.133 95.492,11.764 91.95,11.764 C88.362,11.764 86.43,14.064 86.43,17.307 L86.43,18.94 C86.43,22.298 88.615,24.276 91.996,24.276 L91.996,24.276 Z M89.466,16.778 C89.466,15.168 90.156,13.972 91.95,13.972 C93.629,13.972 94.411,15.099 94.411,16.594 L94.411,16.893 L89.466,16.893 L89.466,16.778 Z M99.839,24 L102.967,24 L102.967,18.48 C102.967,16.065 104.071,15.053 106.118,15.053 L106.762,15.053 L106.762,11.948 L106.394,11.948 C104.6,11.948 103.197,12.569 102.806,14.363 L102.806,12.04 L99.839,12.04 L99.839,24 Z M112.926,24.276 C114.306,24.276 115.824,23.701 116.376,22.896 L116.376,24 L119.389,24 L119.389,16.364 C119.389,13.581 117.342,11.764 114.352,11.764 C111.776,11.764 109.913,13.006 109.223,15.329 L112.121,15.329 C112.443,14.685 113.11,14.202 114.191,14.202 C115.479,14.202 116.261,15.03 116.261,16.134 L116.261,17.767 C115.709,17.307 114.651,16.755 113.225,16.755 C110.35,16.755 108.395,17.951 108.395,20.55 C108.395,22.873 110.235,24.276 112.926,24.276 L112.926,24.276 Z M113.731,22.206 C112.42,22.206 111.431,21.562 111.431,20.458 C111.431,19.354 112.351,18.756 113.823,18.756 C115.226,18.756 116.261,19.377 116.261,20.435 C116.261,21.447 115.111,22.206 113.731,22.206 L113.731,22.206 Z M122.425,24 L125.553,24 L125.553,12.04 L122.425,12.04 L122.425,24 Z M122.172,8.912 C122.172,9.947 122.931,10.729 123.989,10.729 C125.047,10.729 125.806,9.947 125.806,8.912 C125.806,7.877 125.047,7.095 123.989,7.095 C122.931,7.095 122.172,7.877 122.172,8.912 L122.172,8.912 Z M128.773,24 L131.901,24 L131.901,7.21 L128.773,7.21 L128.773,24 Z" id="Monterail"></path>
                <path d="M22.4562,5.7110655 L7.0837,20.9964655 L5.94165,19.8609155 L22.4562,3.4380155 L22.4562,5.7110655 L22.4562,5.7110655 Z M11.04415,24.9354655 L9.9008,23.7986155 L19.49415,14.2585655 L19.50325,14.2494655 L19.50325,16.5231655 L11.04415,24.9354655 L11.04415,24.9354655 Z M7.92155,21.8291155 L18.6264,11.1840655 L20.6427,9.1541155 L20.6427,11.4278155 L19.8796,12.2006655 L19.50325,12.5828655 L19.36935,12.7180655 L9.0636,22.9653155 L7.92155,21.8291155 L7.92155,21.8291155 Z M22.4562,1.7740155 L15.3699,8.8193655 L3.2968,8.8193655 L-1.77635684e-15,15.6170655 L4.26725,19.8609155 L5.10445,20.6922655 L6.2465,21.8291155 L7.0837,22.6611155 L8.22705,23.7986155 L11.04415,26.6001155 L20.67715,17.0210655 L20.67715,12.7018155 L21.8231,11.5376655 L21.8231,7.9802155 L22.4562,7.3763655 L23.63595,6.2024655 L23.63595,0.600115502 L22.4562,1.7740155 L22.4562,1.7740155 Z" id="Fill-1"></path>
            </g>
        </g>
    </g>
</svg>
