<svg width="685" height="239" xmlns="http://www.w3.org/2000/svg" preserveAspectRatio="xMidYMid meet">
 <g>
  <title>background</title>
  <rect fill="none" id="canvas_background" height="241" width="687" y="-1" x="-1"/>
 </g>

 <g>
  <title>Layer 1</title>
  <g stroke="null" id="svg_1" fill="#ffffff" transform="translate(0,712) scale(0.10000000149011612,-0.10000000149011612) ">
   <path stroke="null" id="svg_2" d="m1194.704868,6834.864676c-13.184699,-12.508226 -191.685237,-59.414075 -271.807637,-69.837597c-48.681965,-6.254113 -161.259009,-14.592931 -250.509278,-17.719987l-162.273216,-7.296465l-3.042623,-309.578603l-2.028415,-310.620955l-41.582512,0c-26.369398,0 -68.966117,-13.550579 -118.662289,-37.524679c-42.596719,-20.847044 -98.378137,-43.778792 -123.733327,-51.075258l-45.639342,-12.508226l-6.085246,-144.886956c-3.042623,-79.218767 -11.156284,-169.903409 -18.255737,-201.173975c-8.113661,-41.694088 -8.113661,-59.414075 0,-69.837597c16.227322,-19.804692 19.269944,-19.804692 89.250269,27.101157c34.483058,22.931748 64.909286,41.694088 66.937702,41.694088c3.042623,0 5.071038,-39.609384 5.071038,-87.557585c0,-61.49878 4.05683,-90.684641 14.198906,-99.023459c10.142076,-9.38117 51.724588,-2.084704 177.48633,29.185862l163.287424,41.694088l118.662289,-122.99756c87.221854,-89.642289 153.145348,-145.929308 244.424032,-207.428088l124.747535,-85.47288l68.966117,0c67.951909,0 69.980325,1.042352 169.372669,68.795245c117.648082,81.303472 169.372669,122.99756 253.5519,204.301031l61.866664,60.456428l19.269944,-21.889396c23.326775,-26.058805 99.392345,-67.752893 176.472123,-94.85405c30.426228,-10.423522 73.022947,-31.270566 94.321307,-45.863497c46.65355,-31.270566 57.809833,-26.058805 83.165023,45.863497c20.284152,54.202314 76.06557,149.056365 111.562836,189.7081c52.738795,60.456428 42.596719,78.176415 -90.264477,146.97166c-74.037155,38.567031 -87.221854,48.990553 -82.150816,66.710541c2.028415,11.465874 8.113661,52.11761 11.156284,89.642289c8.113661,82.345824 -2.028415,105.277572 -56.795626,134.463434l-40.568304,20.847044l0,370.035031l0,370.035031l-113.591251,0c-160.244801,0 -362.072114,25.016453 -469.57812,58.371723c-97.36393,30.228214 -149.088517,40.651736 -157.202178,31.270566zm136.918026,-71.922302c120.690705,-36.482327 199.798898,-47.948201 398.583587,-56.287019l164.301631,-6.254113l0,-347.103282l0,-347.103282l-22.312567,8.338818c-27.383605,10.423522 -26.369398,-10.423522 -27.383605,346.06093l-1.014208,277.265685l-179.514745,12.508226c-188.642614,12.508226 -270.79343,26.058805 -374.242605,62.541132l-61.866664,20.847044l-64.909286,-20.847044c-35.497266,-11.465874 -97.36393,-27.101157 -136.918026,-35.439975c-89.250269,-17.719987 -405.683041,-31.270566 -371.199982,-15.635283c13.184699,5.211761 27.383605,8.338818 32.454643,5.211761c4.05683,-3.127057 25.35519,2.084704 46.65355,10.423522l39.554096,15.635283l-42.596719,-4.169409c-24.340982,-2.084704 -43.610927,-1.042352 -43.610927,4.169409c0,4.169409 53.753003,11.465874 119.676497,15.635283c124.747535,7.296465 268.765014,34.397623 359.029491,67.752893c29.41202,10.423522 58.824041,17.719987 63.895079,16.677635c6.085246,-2.084704 51.724588,-15.635283 101.42076,-30.228214zm-701.83166,-77.134063c-7.099453,-2.084704 -19.269944,-2.084704 -25.35519,0c-7.099453,3.127057 -2.028415,5.211761 12.170491,5.211761c14.198906,0 19.269944,-2.084704 13.184699,-5.211761zm753.556248,-66.710541c10.142076,-17.719987 -13.184699,-37.524679 -27.383605,-22.931748c-12.170491,12.508226 -4.05683,34.397623 11.156284,34.397623c5.071038,0 12.170491,-5.211761 16.227322,-11.465874zm52.738795,-12.508226c2.028415,-10.423522 -3.042623,-17.719987 -12.170491,-17.719987c-18.255737,0 -29.41202,16.677635 -21.29836,32.312918c9.127868,14.592931 29.41202,6.254113 33.468851,-14.592931zm-614.609807,-15.635283c-7.099453,-2.084704 -10.142076,-8.338818 -7.099453,-13.550579c4.05683,-5.211761 -1.014208,-6.254113 -9.127868,-3.127057c-9.127868,3.127057 -16.227322,10.423522 -16.227322,14.592931c0,11.465874 23.326775,19.804692 35.497266,12.508226c5.071038,-3.127057 4.05683,-7.296465 -3.042623,-10.423522zm51.724588,12.508226c8.113661,-8.338818 -3.042623,-35.439975 -14.198906,-35.439975c-5.071038,0 -9.127868,9.38117 -9.127868,20.847044c0,19.804692 11.156284,27.101157 23.326775,14.592931zm53.753003,-5.211761c10.142076,-17.719987 -13.184699,-37.524679 -27.383605,-22.931748c-12.170491,12.508226 -4.05683,34.397623 11.156284,34.397623c5.071038,0 12.170491,-5.211761 16.227322,-11.465874zm50.71038,0c10.142076,-17.719987 -13.184699,-37.524679 -27.383605,-22.931748c-12.170491,12.508226 -4.05683,34.397623 11.156284,34.397623c5.071038,0 12.170491,-5.211761 16.227322,-11.465874zm-300.20545,-10.423522c0,-5.211761 -4.05683,-8.338818 -9.127868,-5.211761c-5.071038,4.169409 -12.170491,0 -14.198906,-6.254113c-3.042623,-8.338818 -6.085246,-6.254113 -6.085246,5.211761c-1.014208,9.38117 6.085246,17.719987 14.198906,17.719987c8.113661,0 15.213114,-5.211761 15.213114,-11.465874zm44.625134,-4.169409c-4.05683,-8.338818 -10.142076,-12.508226 -15.213114,-9.38117c-14.198906,8.338818 -10.142076,25.016453 6.085246,25.016453c9.127868,0 12.170491,-6.254113 9.127868,-15.635283zm1077.088473,-42.73644c-5.071038,-13.550579 -10.142076,-14.592931 -18.255737,-6.254113c-6.085246,6.254113 -8.113661,18.76234 -4.05683,29.185862c5.071038,13.550579 10.142076,14.592931 18.255737,6.254113c6.085246,-6.254113 8.113661,-18.76234 4.05683,-29.185862zm-411.768286,11.465874c0,-8.338818 -9.127868,-15.635283 -20.284152,-15.635283c-11.156284,0 -20.284152,7.296465 -20.284152,15.635283c0,8.338818 9.127868,15.635283 20.284152,15.635283c11.156284,0 20.284152,-7.296465 20.284152,-15.635283zm50.71038,0c0,-8.338818 -9.127868,-15.635283 -20.284152,-15.635283c-11.156284,0 -20.284152,7.296465 -20.284152,15.635283c0,8.338818 9.127868,15.635283 20.284152,15.635283c11.156284,0 20.284152,-7.296465 20.284152,-15.635283zm50.71038,0c0,-8.338818 -7.099453,-15.635283 -15.213114,-15.635283c-8.113661,0 -15.213114,7.296465 -15.213114,15.635283c0,8.338818 7.099453,15.635283 15.213114,15.635283c8.113661,0 15.213114,-7.296465 15.213114,-15.635283zm111.562836,0c0,-8.338818 -9.127868,-15.635283 -20.284152,-15.635283c-11.156284,0 -20.284152,7.296465 -20.284152,15.635283c0,8.338818 9.127868,15.635283 20.284152,15.635283c11.156284,0 20.284152,-7.296465 20.284152,-15.635283zm50.71038,0c0,-8.338818 -9.127868,-15.635283 -20.284152,-15.635283c-11.156284,0 -20.284152,7.296465 -20.284152,15.635283c0,8.338818 9.127868,15.635283 20.284152,15.635283c11.156284,0 20.284152,-7.296465 20.284152,-15.635283zm50.71038,2.084704c0,-8.338818 -3.042623,-17.719987 -7.099453,-20.847044c-9.127868,-9.38117 -34.483058,13.550579 -27.383605,25.016453c8.113661,14.592931 34.483058,11.465874 34.483058,-4.169409zm53.753003,-2.084704c1.014208,-5.211761 -6.085246,-11.465874 -15.213114,-13.550579c-11.156284,-2.084704 -18.255737,3.127057 -18.255737,13.550579c0,17.719987 30.426228,18.76234 33.468851,0zm-879.317991,-6.254113c3.042623,-6.254113 0,-15.635283 -7.099453,-20.847044c-14.198906,-8.338818 -32.454643,9.38117 -23.326775,23.974101c7.099453,11.465874 22.312567,10.423522 30.426228,-3.127057zm453.350798,-37.524679c9.127868,-9.38117 -13.184699,-35.439975 -24.340982,-28.143509c-14.198906,8.338818 -11.156284,35.439975 4.05683,35.439975c8.113661,0 17.241529,-3.127057 20.284152,-7.296465zm53.753003,-4.169409c10.142076,-17.719987 -13.184699,-37.524679 -27.383605,-22.931748c-12.170491,12.508226 -4.05683,34.397623 11.156284,34.397623c5.071038,0 12.170491,-5.211761 16.227322,-11.465874zm54.76721,-3.127057c0,-20.847044 -19.269944,-32.312918 -32.454643,-18.76234c-6.085246,6.254113 -7.099453,15.635283 -4.05683,21.889396c10.142076,16.677635 36.511474,13.550579 36.511474,-3.127057zm48.681965,-3.127057c-4.05683,-22.931748 -22.312567,-20.847044 -26.369398,1.042352c-2.028415,10.423522 3.042623,16.677635 13.184699,16.677635c10.142076,0 15.213114,-7.296465 13.184699,-17.719987zm57.809833,-3.127057c0,-22.931748 -29.41202,-18.76234 -33.468851,3.127057c-3.042623,14.592931 1.014208,18.76234 15.213114,15.635283c10.142076,-2.084704 18.255737,-10.423522 18.255737,-18.76234zm50.71038,0c0,-22.931748 -29.41202,-18.76234 -33.468851,3.127057c-3.042623,14.592931 1.014208,18.76234 15.213114,15.635283c10.142076,-2.084704 18.255737,-10.423522 18.255737,-18.76234zm51.724588,9.38117c10.142076,-17.719987 -13.184699,-37.524679 -27.383605,-22.931748c-12.170491,12.508226 -4.05683,34.397623 11.156284,34.397623c5.071038,0 12.170491,-5.211761 16.227322,-11.465874zm54.76721,-9.38117c0,-23.974101 -25.35519,-28.143509 -33.468851,-6.254113c-7.099453,16.677635 1.014208,27.101157 20.284152,27.101157c7.099453,0 13.184699,-9.38117 13.184699,-20.847044zm53.753003,14.592931c9.127868,-10.423522 -4.05683,-35.439975 -19.269944,-35.439975c-8.113661,0 -14.198906,9.38117 -14.198906,20.847044c0,19.804692 19.269944,28.143509 33.468851,14.592931zm47.667757,-15.635283c0,-25.016453 -23.326775,-21.889396 -28.397813,4.169409c-2.028415,10.423522 3.042623,17.719987 12.170491,17.719987c10.142076,0 16.227322,-9.38117 16.227322,-21.889396zm-980.738751,-4.169409c8.113661,-18.76234 -11.156284,-32.312918 -25.35519,-17.719987c-11.156284,11.465874 -3.042623,33.35527 12.170491,33.35527c4.05683,0 10.142076,-7.296465 13.184699,-15.635283zm51.724588,6.254113c3.042623,-5.211761 -1.014208,-14.592931 -9.127868,-21.889396c-13.184699,-10.423522 -15.213114,-9.38117 -15.213114,9.38117c0,21.889396 14.198906,29.185862 24.340982,12.508226zm52.738795,-2.084704c8.113661,-14.592931 -18.255737,-32.312918 -30.426228,-19.804692c-9.127868,9.38117 0,31.270566 14.198906,31.270566c5.071038,0 12.170491,-5.211761 16.227322,-11.465874zm348.887415,-51.075258c0,-11.465874 -7.099453,-20.847044 -15.213114,-20.847044c-8.113661,0 -15.213114,9.38117 -15.213114,20.847044c0,11.465874 7.099453,20.847044 15.213114,20.847044c8.113661,0 15.213114,-9.38117 15.213114,-20.847044zm55.781418,0c0,-22.931748 -29.41202,-18.76234 -33.468851,3.127057c-3.042623,14.592931 1.014208,18.76234 15.213114,15.635283c10.142076,-2.084704 18.255737,-10.423522 18.255737,-18.76234zm51.724588,9.38117c10.142076,-17.719987 -13.184699,-37.524679 -27.383605,-22.931748c-12.170491,12.508226 -4.05683,34.397623 11.156284,34.397623c5.071038,0 12.170491,-5.211761 16.227322,-11.465874zm50.71038,0c10.142076,-17.719987 -13.184699,-37.524679 -27.383605,-22.931748c-12.170491,12.508226 -4.05683,34.397623 11.156284,34.397623c5.071038,0 12.170491,-5.211761 16.227322,-11.465874zm54.76721,-9.38117c0,-11.465874 -7.099453,-20.847044 -15.213114,-20.847044c-8.113661,0 -15.213114,9.38117 -15.213114,20.847044c0,11.465874 7.099453,20.847044 15.213114,20.847044c8.113661,0 15.213114,-9.38117 15.213114,-20.847044zm55.781418,0c0,-22.931748 -29.41202,-18.76234 -33.468851,3.127057c-3.042623,14.592931 1.014208,18.76234 15.213114,15.635283c10.142076,-2.084704 18.255737,-10.423522 18.255737,-18.76234zm51.724588,9.38117c10.142076,-17.719987 -13.184699,-37.524679 -27.383605,-22.931748c-12.170491,12.508226 -4.05683,34.397623 11.156284,34.397623c5.071038,0 12.170491,-5.211761 16.227322,-11.465874zm50.71038,0c10.142076,-17.719987 -13.184699,-37.524679 -27.383605,-22.931748c-12.170491,12.508226 -4.05683,34.397623 11.156284,34.397623c5.071038,0 12.170491,-5.211761 16.227322,-11.465874zm54.76721,-9.38117c0,-11.465874 -6.085246,-20.847044 -14.198906,-20.847044c-18.255737,0 -29.41202,16.677635 -21.29836,31.270566c11.156284,18.76234 35.497266,11.465874 35.497266,-10.423522zm55.781418,0c0,-8.338818 -8.113661,-16.677635 -17.241529,-18.76234c-13.184699,-2.084704 -18.255737,3.127057 -18.255737,18.76234c0,15.635283 5.071038,20.847044 18.255737,18.76234c9.127868,-2.084704 17.241529,-10.423522 17.241529,-18.76234zm45.639342,0c0,-11.465874 -7.099453,-20.847044 -15.213114,-20.847044c-8.113661,0 -15.213114,9.38117 -15.213114,20.847044c0,11.465874 7.099453,20.847044 15.213114,20.847044c8.113661,0 15.213114,-9.38117 15.213114,-20.847044zm-933.070993,-10.423522c0,-11.465874 -4.05683,-20.847044 -9.127868,-20.847044c-11.156284,0 -22.312567,27.101157 -14.198906,35.439975c12.170491,12.508226 23.326775,5.211761 23.326775,-14.592931zm56.795626,9.38117c10.142076,-17.719987 -13.184699,-37.524679 -27.383605,-22.931748c-12.170491,12.508226 -4.05683,34.397623 11.156284,34.397623c5.071038,0 12.170491,-5.211761 16.227322,-11.465874zm50.71038,0c10.142076,-17.719987 -13.184699,-37.524679 -27.383605,-22.931748c-12.170491,12.508226 -4.05683,34.397623 11.156284,34.397623c5.071038,0 12.170491,-5.211761 16.227322,-11.465874zm50.71038,0c10.142076,-17.719987 -13.184699,-37.524679 -27.383605,-22.931748c-12.170491,12.508226 -4.05683,34.397623 11.156284,34.397623c5.071038,0 12.170491,-5.211761 16.227322,-11.465874zm302.233865,-62.541132c-8.113661,-14.592931 -34.483058,-11.465874 -34.483058,4.169409c0,8.338818 3.042623,17.719987 7.099453,20.847044c9.127868,9.38117 34.483058,-13.550579 27.383605,-25.016453zm51.724588,10.423522c0,-7.296465 -8.113661,-15.635283 -17.241529,-17.719987c-18.255737,-3.127057 -25.35519,18.76234 -11.156284,33.35527c10.142076,10.423522 28.397813,1.042352 28.397813,-15.635283zm53.753003,-2.084704c2.028415,-10.423522 -3.042623,-17.719987 -12.170491,-17.719987c-18.255737,0 -29.41202,16.677635 -21.29836,32.312918c9.127868,14.592931 29.41202,6.254113 33.468851,-14.592931zm52.738795,-3.127057c0,-8.338818 -7.099453,-14.592931 -15.213114,-14.592931c-15.213114,0 -21.29836,21.889396 -9.127868,34.397623c10.142076,9.38117 24.340982,-2.084704 24.340982,-19.804692zm55.781418,5.211761c0,-7.296465 -8.113661,-15.635283 -17.241529,-17.719987c-18.255737,-3.127057 -25.35519,18.76234 -11.156284,33.35527c10.142076,10.423522 28.397813,1.042352 28.397813,-15.635283zm50.71038,0c0,-7.296465 -8.113661,-15.635283 -17.241529,-17.719987c-18.255737,-3.127057 -25.35519,18.76234 -11.156284,33.35527c10.142076,10.423522 28.397813,1.042352 28.397813,-15.635283zm53.753003,-2.084704c2.028415,-12.508226 -3.042623,-17.719987 -17.241529,-17.719987c-12.170491,0 -21.29836,6.254113 -21.29836,13.550579c0,32.312918 32.454643,35.439975 38.539889,4.169409zm52.738795,-3.127057c0,-14.592931 -21.29836,-19.804692 -33.468851,-7.296465c-9.127868,9.38117 13.184699,35.439975 24.340982,28.143509c5.071038,-3.127057 9.127868,-12.508226 9.127868,-20.847044zm54.76721,-5.211761c-8.113661,-14.592931 -34.483058,-11.465874 -34.483058,4.169409c0,8.338818 3.042623,17.719987 7.099453,20.847044c9.127868,9.38117 34.483058,-13.550579 27.383605,-25.016453zm46.65355,11.465874c0,-11.465874 -7.099453,-20.847044 -15.213114,-20.847044c-15.213114,0 -21.29836,21.889396 -8.113661,34.397623c12.170491,13.550579 23.326775,7.296465 23.326775,-13.550579zm-1135.912514,0c0,-5.211761 0,-12.508226 0,-15.635283c0,-14.592931 -13.184699,-8.338818 -16.227322,8.338818c-1.014208,9.38117 2.028415,17.719987 7.099453,17.719987c5.071038,0 9.127868,-4.169409 9.127868,-10.423522zm53.753003,-5.211761c4.05683,-8.338818 1.014208,-17.719987 -5.071038,-21.889396c-7.099453,-4.169409 -8.113661,-3.127057 -4.05683,4.169409c4.05683,7.296465 2.028415,12.508226 -3.042623,12.508226c-6.085246,0 -11.156284,5.211761 -11.156284,10.423522c0,15.635283 17.241529,12.508226 23.326775,-5.211761zm104.463383,4.169409c3.042623,-6.254113 1.014208,-16.677635 -5.071038,-22.931748c-8.113661,-8.338818 -11.156284,-8.338818 -11.156284,2.084704c0,7.296465 -4.05683,9.38117 -10.142076,6.254113c-6.085246,-3.127057 -7.099453,1.042352 -4.05683,9.38117c7.099453,19.804692 20.284152,21.889396 30.426228,5.211761zm49.696172,-9.38117c0,-7.296465 -6.085246,-15.635283 -12.170491,-17.719987c-8.113661,-3.127057 -13.184699,4.169409 -13.184699,17.719987c0,13.550579 5.071038,20.847044 13.184699,18.76234c6.085246,-3.127057 12.170491,-11.465874 12.170491,-18.76234zm51.724588,9.38117c10.142076,-17.719987 -13.184699,-37.524679 -27.383605,-22.931748c-12.170491,12.508226 -4.05683,34.397623 11.156284,34.397623c5.071038,0 12.170491,-5.211761 16.227322,-11.465874zm47.667757,-4.169409c4.05683,-8.338818 3.042623,-16.677635 -1.014208,-19.804692c-13.184699,-8.338818 -35.497266,11.465874 -28.397813,23.974101c10.142076,15.635283 23.326775,14.592931 29.41202,-4.169409zm53.753003,4.169409c8.113661,-14.592931 -18.255737,-32.312918 -30.426228,-19.804692c-9.127868,9.38117 0,31.270566 14.198906,31.270566c5.071038,0 12.170491,-5.211761 16.227322,-11.465874zm-249.49507,-62.541132c0,-5.211761 -7.099453,-9.38117 -15.213114,-9.38117c-15.213114,0 -20.284152,12.508226 -9.127868,23.974101c8.113661,8.338818 24.340982,-1.042352 24.340982,-14.592931zm47.667757,-5.211761c-3.042623,-4.169409 -14.198906,-3.127057 -24.340982,0c-15.213114,6.254113 -15.213114,8.338818 -3.042623,16.677635c16.227322,10.423522 39.554096,-4.169409 27.383605,-16.677635zm39.554096,-1.042352c-10.142076,-10.423522 -19.269944,5.211761 -10.142076,18.76234c6.085246,11.465874 8.113661,11.465874 12.170491,0c2.028415,-7.296465 1.014208,-15.635283 -2.028415,-18.76234zm64.909286,7.296465c0,-12.508226 -29.41202,-20.847044 -35.497266,-10.423522c-9.127868,15.635283 4.05683,31.270566 20.284152,23.974101c8.113661,-3.127057 15.213114,-9.38117 15.213114,-13.550579zm44.625134,12.508226c9.127868,-14.592931 -9.127868,-32.312918 -23.326775,-23.974101c-7.099453,5.211761 -10.142076,14.592931 -7.099453,20.847044c8.113661,13.550579 23.326775,14.592931 30.426228,3.127057zm46.65355,-12.508226c0,-11.465874 -4.05683,-20.847044 -9.127868,-20.847044c-14.198906,0 -23.326775,18.76234 -16.227322,31.270566c10.142076,17.719987 25.35519,11.465874 25.35519,-10.423522zm56.795626,9.38117c10.142076,-17.719987 -13.184699,-37.524679 -27.383605,-22.931748c-12.170491,12.508226 -4.05683,34.397623 11.156284,34.397623c5.071038,0 12.170491,-5.211761 16.227322,-11.465874zm196.756275,-4.169409c0,-8.338818 -7.099453,-15.635283 -15.213114,-15.635283c-8.113661,0 -15.213114,7.296465 -15.213114,15.635283c0,8.338818 7.099453,15.635283 15.213114,15.635283c8.113661,0 15.213114,-7.296465 15.213114,-15.635283zm53.753003,0c1.014208,-5.211761 -6.085246,-11.465874 -15.213114,-13.550579c-11.156284,-2.084704 -18.255737,3.127057 -18.255737,13.550579c0,17.719987 30.426228,18.76234 33.468851,0zm57.809833,0c0,-8.338818 -9.127868,-15.635283 -20.284152,-15.635283c-11.156284,0 -20.284152,7.296465 -20.284152,15.635283c0,8.338818 9.127868,15.635283 20.284152,15.635283c11.156284,0 20.284152,-7.296465 20.284152,-15.635283zm50.71038,0c0,-8.338818 -9.127868,-15.635283 -20.284152,-15.635283c-20.284152,0 -26.369398,11.465874 -13.184699,23.974101c12.170491,13.550579 33.468851,7.296465 33.468851,-8.338818zm50.71038,0c0,-8.338818 -7.099453,-15.635283 -15.213114,-15.635283c-8.113661,0 -15.213114,7.296465 -15.213114,15.635283c0,8.338818 7.099453,15.635283 15.213114,15.635283c8.113661,0 15.213114,-7.296465 15.213114,-15.635283zm56.795626,4.169409c7.099453,-12.508226 -15.213114,-32.312918 -28.397813,-23.974101c-4.05683,3.127057 -8.113661,12.508226 -8.113661,20.847044c0,17.719987 26.369398,19.804692 36.511474,3.127057zm54.76721,-4.169409c0,-8.338818 -9.127868,-15.635283 -20.284152,-15.635283c-11.156284,0 -20.284152,7.296465 -20.284152,15.635283c0,8.338818 9.127868,15.635283 20.284152,15.635283c11.156284,0 20.284152,-7.296465 20.284152,-15.635283zm50.71038,0c0,-8.338818 -9.127868,-15.635283 -20.284152,-15.635283c-11.156284,0 -20.284152,7.296465 -20.284152,15.635283c0,8.338818 9.127868,15.635283 20.284152,15.635283c11.156284,0 20.284152,-7.296465 20.284152,-15.635283zm50.71038,2.084704c0,-8.338818 -3.042623,-17.719987 -7.099453,-20.847044c-9.127868,-9.38117 -34.483058,13.550579 -27.383605,25.016453c8.113661,14.592931 34.483058,11.465874 34.483058,-4.169409zm53.753003,6.254113c9.127868,-9.38117 -13.184699,-35.439975 -24.340982,-28.143509c-14.198906,8.338818 -11.156284,35.439975 4.05683,35.439975c8.113661,0 17.241529,-3.127057 20.284152,-7.296465zm45.639342,-10.423522c-4.05683,-22.931748 -22.312567,-20.847044 -26.369398,1.042352c-2.028415,10.423522 3.042623,16.677635 13.184699,16.677635c10.142076,0 15.213114,-7.296465 13.184699,-17.719987zm-1123.742023,3.127057c0,-2.084704 -7.099453,-6.254113 -15.213114,-10.423522c-8.113661,-3.127057 -15.213114,-1.042352 -15.213114,4.169409c0,6.254113 7.099453,10.423522 15.213114,10.423522c8.113661,0 15.213114,-2.084704 15.213114,-4.169409zm40.568304,-6.254113c0,-5.211761 -2.028415,-10.423522 -4.05683,-10.423522c-3.042623,0 -8.113661,5.211761 -11.156284,10.423522c-3.042623,6.254113 -1.014208,10.423522 4.05683,10.423522c6.085246,0 11.156284,-4.169409 11.156284,-10.423522zm105.477591,-39.609384c2.028415,-4.169409 1.014208,-14.592931 -4.05683,-22.931748c-7.099453,-11.465874 -12.170491,-12.508226 -21.29836,-3.127057c-6.085246,6.254113 -8.113661,16.677635 -5.071038,22.931748c8.113661,13.550579 23.326775,14.592931 30.426228,3.127057zm50.71038,0c2.028415,-4.169409 0,-14.592931 -5.071038,-22.931748c-8.113661,-13.550579 -10.142076,-13.550579 -18.255737,0c-10.142076,15.635283 -6.085246,31.270566 9.127868,31.270566c5.071038,0 11.156284,-4.169409 14.198906,-8.338818zm46.65355,-22.931748c-9.127868,-6.254113 -19.269944,-5.211761 -25.35519,1.042352c-6.085246,6.254113 -5.071038,13.550579 5.071038,19.804692c9.127868,6.254113 19.269944,5.211761 25.35519,-1.042352c6.085246,-6.254113 5.071038,-13.550579 -5.071038,-19.804692zm52.738795,-2.084704c-9.127868,-9.38117 -15.213114,-9.38117 -24.340982,0c-10.142076,10.423522 -10.142076,15.635283 2.028415,22.931748c20.284152,12.508226 38.539889,-6.254113 22.312567,-22.931748zm357.001076,25.016453c8.113661,-13.550579 -11.156284,-36.482327 -23.326775,-29.185862c-16.227322,10.423522 -14.198906,37.524679 3.042623,37.524679c8.113661,0 17.241529,-4.169409 20.284152,-8.338818zm52.738795,-3.127057c10.142076,-17.719987 -13.184699,-37.524679 -27.383605,-22.931748c-12.170491,12.508226 -4.05683,34.397623 11.156284,34.397623c5.071038,0 12.170491,-5.211761 16.227322,-11.465874zm54.76721,-3.127057c0,-20.847044 -19.269944,-32.312918 -32.454643,-18.76234c-6.085246,6.254113 -7.099453,15.635283 -4.05683,21.889396c10.142076,16.677635 36.511474,13.550579 36.511474,-3.127057zm48.681965,-3.127057c-5.071038,-26.058805 -28.397813,-29.185862 -28.397813,-4.169409c0,12.508226 6.085246,21.889396 16.227322,21.889396c9.127868,0 14.198906,-7.296465 12.170491,-17.719987zm57.809833,-3.127057c0,-22.931748 -29.41202,-18.76234 -33.468851,3.127057c-3.042623,14.592931 1.014208,18.76234 15.213114,15.635283c10.142076,-2.084704 18.255737,-10.423522 18.255737,-18.76234zm50.71038,0c0,-22.931748 -29.41202,-18.76234 -33.468851,3.127057c-3.042623,14.592931 1.014208,18.76234 15.213114,15.635283c10.142076,-2.084704 18.255737,-10.423522 18.255737,-18.76234zm51.724588,9.38117c10.142076,-17.719987 -13.184699,-37.524679 -27.383605,-22.931748c-12.170491,12.508226 -4.05683,34.397623 11.156284,34.397623c5.071038,0 12.170491,-5.211761 16.227322,-11.465874zm54.76721,-9.38117c0,-23.974101 -25.35519,-28.143509 -33.468851,-6.254113c-7.099453,16.677635 1.014208,27.101157 20.284152,27.101157c7.099453,0 13.184699,-9.38117 13.184699,-20.847044zm55.781418,0c0,-8.338818 -8.113661,-16.677635 -17.241529,-18.76234c-13.184699,-2.084704 -18.255737,3.127057 -18.255737,18.76234c0,15.635283 5.071038,20.847044 18.255737,18.76234c9.127868,-2.084704 17.241529,-10.423522 17.241529,-18.76234zm45.639342,0c0,-11.465874 -7.099453,-20.847044 -15.213114,-20.847044c-8.113661,0 -15.213114,9.38117 -15.213114,20.847044c0,11.465874 7.099453,20.847044 15.213114,20.847044c8.113661,0 15.213114,-9.38117 15.213114,-20.847044zm-1125.770438,-1.042352c0,-4.169409 -6.085246,-9.38117 -13.184699,-12.508226c-8.113661,-3.127057 -14.198906,0 -14.198906,7.296465c0,7.296465 6.085246,13.550579 14.198906,13.550579c7.099453,0 13.184699,-4.169409 13.184699,-8.338818zm40.568304,-4.169409c0,-8.338818 -4.05683,-15.635283 -8.113661,-15.635283c-5.071038,0 -9.127868,7.296465 -9.127868,15.635283c0,8.338818 4.05683,15.635283 9.127868,15.635283c4.05683,0 8.113661,-7.296465 8.113661,-15.635283zm58.824041,3.127057c-6.085246,-18.76234 -25.35519,-20.847044 -31.440436,-3.127057c-5.071038,10.423522 0,15.635283 14.198906,15.635283c12.170491,0 19.269944,-5.211761 17.241529,-12.508226zm-106.491798,-43.778792c3.042623,-8.338818 0,-17.719987 -8.113661,-19.804692c-11.156284,-5.211761 -13.184699,6.254113 -6.085246,32.312918c2.028415,6.254113 9.127868,0 14.198906,-12.508226zm47.667757,-6.254113c0,-11.465874 -4.05683,-20.847044 -9.127868,-20.847044c-6.085246,0 -9.127868,9.38117 -8.113661,20.847044c1.014208,11.465874 5.071038,20.847044 9.127868,20.847044c4.05683,0 8.113661,-9.38117 8.113661,-20.847044zm53.753003,6.254113c6.085246,-14.592931 0,-27.101157 -13.184699,-27.101157c-3.042623,0 -6.085246,9.38117 -6.085246,20.847044c0,23.974101 11.156284,28.143509 19.269944,6.254113zm53.753003,3.127057c10.142076,-17.719987 -13.184699,-37.524679 -27.383605,-22.931748c-12.170491,12.508226 -4.05683,34.397623 11.156284,34.397623c5.071038,0 12.170491,-5.211761 16.227322,-11.465874zm47.667757,-3.127057c6.085246,-15.635283 -1.014208,-27.101157 -15.213114,-27.101157c-4.05683,0 -8.113661,9.38117 -8.113661,20.847044c0,23.974101 15.213114,28.143509 23.326775,6.254113zm53.753003,3.127057c10.142076,-17.719987 -13.184699,-37.524679 -27.383605,-22.931748c-12.170491,12.508226 -4.05683,34.397623 11.156284,34.397623c5.071038,0 12.170491,-5.211761 16.227322,-11.465874zm50.71038,0c10.142076,-17.719987 -13.184699,-37.524679 -27.383605,-22.931748c-12.170491,12.508226 -4.05683,34.397623 11.156284,34.397623c5.071038,0 12.170491,-5.211761 16.227322,-11.465874zm352.944245,-4.169409c3.042623,-9.38117 -1.014208,-18.76234 -10.142076,-22.931748c-19.269944,-7.296465 -28.397813,2.084704 -21.29836,22.931748c8.113661,19.804692 23.326775,19.804692 31.440436,0zm52.738795,4.169409c10.142076,-17.719987 -13.184699,-37.524679 -27.383605,-22.931748c-12.170491,12.508226 -4.05683,34.397623 11.156284,34.397623c5.071038,0 12.170491,-5.211761 16.227322,-11.465874zm50.71038,0c10.142076,-17.719987 -13.184699,-37.524679 -27.383605,-22.931748c-12.170491,12.508226 -4.05683,34.397623 11.156284,34.397623c5.071038,0 12.170491,-5.211761 16.227322,-11.465874zm52.738795,-12.508226c2.028415,-10.423522 -3.042623,-17.719987 -12.170491,-17.719987c-10.142076,0 -16.227322,9.38117 -16.227322,21.889396c0,25.016453 23.326775,21.889396 28.397813,-4.169409zm57.809833,2.084704c0,-7.296465 -8.113661,-15.635283 -17.241529,-17.719987c-18.255737,-3.127057 -25.35519,18.76234 -11.156284,33.35527c10.142076,10.423522 28.397813,1.042352 28.397813,-15.635283zm50.71038,0c0,-7.296465 -8.113661,-15.635283 -17.241529,-17.719987c-18.255737,-3.127057 -25.35519,18.76234 -11.156284,33.35527c10.142076,10.423522 28.397813,1.042352 28.397813,-15.635283zm53.753003,-2.084704c2.028415,-10.423522 -3.042623,-17.719987 -12.170491,-17.719987c-18.255737,0 -29.41202,16.677635 -21.29836,32.312918c9.127868,14.592931 29.41202,6.254113 33.468851,-14.592931zm49.696172,8.338818c7.099453,-20.847044 -2.028415,-30.228214 -21.29836,-22.931748c-9.127868,4.169409 -13.184699,13.550579 -10.142076,22.931748c8.113661,19.804692 23.326775,19.804692 31.440436,0zm56.795626,1.042352c7.099453,-16.677635 -1.014208,-27.101157 -20.284152,-27.101157c-7.099453,0 -13.184699,9.38117 -13.184699,20.847044c0,23.974101 25.35519,28.143509 33.468851,6.254113zm47.667757,-6.254113c0,-11.465874 -7.099453,-20.847044 -15.213114,-20.847044c-15.213114,0 -21.29836,21.889396 -8.113661,34.397623c12.170491,13.550579 23.326775,7.296465 23.326775,-13.550579zm-987.838204,-60.456428c-22.312567,-5.211761 -30.426228,3.127057 -21.29836,18.76234c5.071038,8.338818 11.156284,7.296465 22.312567,-2.084704c15.213114,-12.508226 14.198906,-13.550579 -1.014208,-16.677635zm50.71038,1.042352c-10.142076,-10.423522 -19.269944,5.211761 -10.142076,18.76234c6.085246,11.465874 8.113661,11.465874 12.170491,0c2.028415,-7.296465 1.014208,-15.635283 -2.028415,-18.76234zm64.909286,7.296465c0,-5.211761 -5.071038,-12.508226 -11.156284,-16.677635c-14.198906,-8.338818 -33.468851,11.465874 -25.35519,26.058805c7.099453,11.465874 36.511474,4.169409 36.511474,-9.38117zm50.71038,0c0,-5.211761 -5.071038,-12.508226 -11.156284,-16.677635c-14.198906,-8.338818 -33.468851,11.465874 -25.35519,26.058805c7.099453,11.465874 36.511474,4.169409 36.511474,-9.38117zm46.65355,9.38117c10.142076,-17.719987 -13.184699,-37.524679 -27.383605,-22.931748c-12.170491,12.508226 -4.05683,34.397623 11.156284,34.397623c5.071038,0 12.170491,-5.211761 16.227322,-11.465874zm409.739871,-15.635283c0,-17.719987 -26.369398,-19.804692 -36.511474,-3.127057c-7.099453,12.508226 15.213114,32.312918 28.397813,23.974101c4.05683,-3.127057 8.113661,-12.508226 8.113661,-20.847044zm50.71038,0c0,-8.338818 -7.099453,-14.592931 -15.213114,-14.592931c-15.213114,0 -21.29836,21.889396 -9.127868,34.397623c10.142076,9.38117 24.340982,-2.084704 24.340982,-19.804692zm109.534421,3.127057c2.028415,-12.508226 -3.042623,-17.719987 -17.241529,-17.719987c-12.170491,0 -21.29836,6.254113 -21.29836,13.550579c0,32.312918 32.454643,35.439975 38.539889,4.169409zm52.738795,-3.127057c0,-8.338818 -9.127868,-14.592931 -20.284152,-14.592931c-22.312567,0 -28.397813,27.101157 -7.099453,34.397623c16.227322,6.254113 27.383605,-1.042352 27.383605,-19.804692zm50.71038,0c0,-14.592931 -21.29836,-19.804692 -33.468851,-7.296465c-9.127868,9.38117 13.184699,35.439975 24.340982,28.143509c5.071038,-3.127057 9.127868,-12.508226 9.127868,-20.847044zm54.76721,-5.211761c-8.113661,-14.592931 -34.483058,-11.465874 -34.483058,4.169409c0,8.338818 3.042623,17.719987 7.099453,20.847044c9.127868,9.38117 34.483058,-13.550579 27.383605,-25.016453zm46.65355,11.465874c0,-11.465874 -7.099453,-20.847044 -15.213114,-20.847044c-15.213114,0 -21.29836,21.889396 -8.113661,34.397623c12.170491,13.550579 23.326775,7.296465 23.326775,-13.550579zm-1125.770438,-2.084704c0,-4.169409 -4.05683,-8.338818 -9.127868,-8.338818c-6.085246,0 -12.170491,4.169409 -15.213114,8.338818c-3.042623,5.211761 1.014208,9.38117 9.127868,9.38117c8.113661,0 15.213114,-4.169409 15.213114,-9.38117zm40.568304,2.084704c0,-5.211761 -4.05683,-10.423522 -10.142076,-10.423522c-5.071038,0 -10.142076,5.211761 -10.142076,10.423522c0,6.254113 5.071038,10.423522 10.142076,10.423522c6.085246,0 10.142076,-4.169409 10.142076,-10.423522zm54.76721,-5.211761c-4.05683,-8.338818 -10.142076,-15.635283 -15.213114,-15.635283c-5.071038,0 -9.127868,7.296465 -9.127868,15.635283c0,8.338818 7.099453,15.635283 15.213114,15.635283c9.127868,0 12.170491,-6.254113 9.127868,-15.635283zm614.609807,0c0,-8.338818 -9.127868,-15.635283 -20.284152,-15.635283c-11.156284,0 -20.284152,7.296465 -20.284152,15.635283c0,8.338818 9.127868,15.635283 20.284152,15.635283c11.156284,0 20.284152,-7.296465 20.284152,-15.635283zm-515.217462,-59.414075c-15.213114,-15.635283 -26.369398,-4.169409 -18.255737,18.76234c5.071038,13.550579 9.127868,15.635283 18.255737,6.254113c9.127868,-9.38117 9.127868,-15.635283 0,-25.016453zm-202.84152,15.635283c-6.085246,-2.084704 -9.127868,-10.423522 -6.085246,-15.635283c4.05683,-7.296465 2.028415,-8.338818 -4.05683,-4.169409c-18.255737,11.465874 -14.198906,27.101157 6.085246,26.058805c10.142076,0 12.170491,-3.127057 4.05683,-6.254113zm45.639342,-8.338818c0,-8.338818 -4.05683,-12.508226 -9.127868,-9.38117c-4.05683,3.127057 -8.113661,9.38117 -8.113661,15.635283c0,5.211761 4.05683,9.38117 8.113661,9.38117c5.071038,0 9.127868,-7.296465 9.127868,-15.635283zm54.76721,2.084704c-1.014208,-12.508226 -15.213114,-9.38117 -19.269944,4.169409c-3.042623,6.254113 1.014208,10.423522 8.113661,8.338818c6.085246,-3.127057 11.156284,-8.338818 11.156284,-12.508226zm59.838248,5.211761c0,-14.592931 -11.156284,-21.889396 -26.369398,-15.635283c-21.29836,8.338818 -17.241529,23.974101 6.085246,23.974101c11.156284,0 20.284152,-4.169409 20.284152,-8.338818zm821.508157,-6.254113c0,-20.847044 -19.269944,-32.312918 -32.454643,-18.76234c-6.085246,6.254113 -7.099453,15.635283 -4.05683,21.889396c10.142076,16.677635 36.511474,13.550579 36.511474,-3.127057zm50.71038,0c0,-21.889396 -21.29836,-32.312918 -30.426228,-15.635283c-5.071038,7.296465 -6.085246,17.719987 -4.05683,21.889396c9.127868,14.592931 34.483058,9.38117 34.483058,-6.254113zm54.76721,6.254113c8.113661,-13.550579 -11.156284,-36.482327 -23.326775,-29.185862c-16.227322,10.423522 -14.198906,37.524679 3.042623,37.524679c8.113661,0 17.241529,-4.169409 20.284152,-8.338818zm46.65355,-13.550579c0,-25.016453 -23.326775,-21.889396 -28.397813,4.169409c-2.028415,10.423522 3.042623,17.719987 12.170491,17.719987c10.142076,0 16.227322,-9.38117 16.227322,-21.889396zm-1032.463338,-53.159962c-15.213114,-15.635283 -26.369398,-4.169409 -18.255737,18.76234c5.071038,13.550579 9.127868,15.635283 18.255737,6.254113c9.127868,-9.38117 9.127868,-15.635283 0,-25.016453zm48.681965,-2.084704c-15.213114,-15.635283 -33.468851,4.169409 -19.269944,20.847044c10.142076,12.508226 14.198906,12.508226 20.284152,2.084704c5.071038,-7.296465 4.05683,-17.719987 -1.014208,-22.931748zm-385.398889,9.38117c-17.241529,-20.847044 -6.085246,-19.804692 15.213114,1.042352c9.127868,9.38117 19.269944,14.592931 22.312567,10.423522c9.127868,-9.38117 -26.369398,-34.397623 -69.980325,-46.905849c-20.284152,-6.254113 -48.681965,-26.058805 -62.880871,-43.778792c-14.198906,-17.719987 -26.369398,-28.143509 -26.369398,-22.931748c0,5.211761 5.071038,14.592931 12.170491,21.889396c7.099453,7.296465 8.113661,12.508226 3.042623,12.508226c-6.085246,1.042352 1.014208,7.296465 15.213114,15.635283c16.227322,9.38117 20.284152,15.635283 10.142076,15.635283c-8.113661,1.042352 8.113661,12.508226 35.497266,26.058805c61.866664,30.228214 61.866664,30.228214 45.639342,10.423522zm235.296164,0c0,-5.211761 -5.071038,-11.465874 -11.156284,-13.550579c-6.085246,-2.084704 -11.156284,4.169409 -11.156284,13.550579c0,9.38117 5.071038,15.635283 11.156284,13.550579c6.085246,-2.084704 11.156284,-8.338818 11.156284,-13.550579zm45.639342,0c0,-8.338818 -4.05683,-15.635283 -9.127868,-15.635283c-4.05683,0 -8.113661,7.296465 -8.113661,15.635283c0,8.338818 4.05683,15.635283 8.113661,15.635283c5.071038,0 9.127868,-7.296465 9.127868,-15.635283zm934.085201,-3.127057c2.028415,-7.296465 -6.085246,-12.508226 -17.241529,-12.508226c-21.29836,0 -27.383605,11.465874 -14.198906,25.016453c9.127868,9.38117 26.369398,2.084704 31.440436,-12.508226zm52.738795,3.127057c0,-8.338818 -9.127868,-15.635283 -20.284152,-15.635283c-20.284152,0 -26.369398,11.465874 -13.184699,23.974101c12.170491,13.550579 33.468851,7.296465 33.468851,-8.338818zm55.781418,-5.211761c0,-8.338818 -8.113661,-16.677635 -17.241529,-18.76234c-13.184699,-2.084704 -18.255737,3.127057 -18.255737,18.76234c0,15.635283 5.071038,20.847044 18.255737,18.76234c9.127868,-2.084704 17.241529,-10.423522 17.241529,-18.76234zm45.639342,0c0,-11.465874 -7.099453,-20.847044 -15.213114,-20.847044c-15.213114,0 -21.29836,21.889396 -8.113661,34.397623c12.170491,13.550579 23.326775,7.296465 23.326775,-13.550579zm-1486.828344,-46.905849c-7.099453,-16.677635 -24.340982,-21.889396 -24.340982,-6.254113c0,8.338818 7.099453,13.550579 27.383605,20.847044c1.014208,1.042352 0,-6.254113 -3.042623,-14.592931zm188.642614,-20.847044c0,-30.228214 -4.05683,-36.482327 -22.312567,-36.482327c-21.29836,0 -21.29836,1.042352 -3.042623,13.550579c13.184699,10.423522 15.213114,16.677635 6.085246,21.889396c-9.127868,6.254113 -9.127868,11.465874 0,22.931748c17.241529,20.847044 19.269944,18.76234 19.269944,-21.889396zm162.273216,20.847044c0,-8.338818 -4.05683,-15.635283 -10.142076,-15.635283c-5.071038,0 -7.099453,7.296465 -4.05683,15.635283c4.05683,8.338818 8.113661,15.635283 10.142076,15.635283c2.028415,0 4.05683,-7.296465 4.05683,-15.635283zm111.562836,5.211761c0,-5.211761 -7.099453,-10.423522 -15.213114,-10.423522c-8.113661,0 -15.213114,5.211761 -15.213114,10.423522c0,6.254113 7.099453,10.423522 15.213114,10.423522c8.113661,0 15.213114,-4.169409 15.213114,-10.423522zm47.667757,4.169409c-3.042623,-3.127057 -12.170491,-4.169409 -19.269944,-1.042352c-8.113661,3.127057 -5.071038,6.254113 6.085246,6.254113c11.156284,1.042352 17.241529,-2.084704 13.184699,-5.211761zm-108.520213,-14.592931c0,-5.211761 -4.05683,-10.423522 -10.142076,-10.423522c-5.071038,0 -10.142076,5.211761 -10.142076,10.423522c0,6.254113 5.071038,10.423522 10.142076,10.423522c6.085246,0 10.142076,-4.169409 10.142076,-10.423522zm1069.98902,-15.635283c55.781418,-10.423522 125.761743,-27.101157 156.187971,-38.567031l54.76721,-20.847044l-5.071038,-69.837597c-7.099453,-92.769346 -49.696172,-272.053924 -64.909286,-272.053924c-7.099453,0 -50.71038,9.38117 -97.36393,19.804692c-173.4295,42.73644 -300.20545,55.244667 -520.2885,56.287019c-270.79343,0 -545.64369,-35.439975 -830.636026,-108.404629c-43.610927,-11.465874 -80.122401,-19.804692 -82.150816,-17.719987c-1.014208,2.084704 -5.071038,40.651736 -8.113661,86.515233c-5.071038,55.244667 -4.05683,78.176415 3.042623,67.752893c9.127868,-13.550579 10.142076,-13.550579 10.142076,0c0,9.38117 -5.071038,21.889396 -10.142076,27.101157c-7.099453,7.296465 -8.113661,19.804692 -1.014208,38.567031c7.099453,19.804692 7.099453,28.143509 -4.05683,31.270566c-10.142076,5.211761 -13.184699,-19.804692 -11.156284,-129.251673c0,-74.007006 -2.028415,-134.463434 -6.085246,-134.463434c-5.071038,0 -8.113661,65.668189 -8.113661,145.929308c0,90.684641 4.05683,145.929308 10.142076,145.929308c6.085246,0 10.142076,9.38117 10.142076,21.889396c0,11.465874 5.071038,17.719987 10.142076,14.592931c6.085246,-3.127057 10.142076,1.042352 10.142076,9.38117c0,29.185862 -28.397813,17.719987 -33.468851,-11.465874c-4.05683,-28.143509 -4.05683,-28.143509 -6.085246,3.127057c-1.014208,32.312918 0,33.35527 52.738795,40.651736c62.880871,8.338818 64.909286,9.38117 166.330047,30.228214c192.699444,39.609384 406.697248,72.964654 535.501614,83.388176c130.832781,10.423522 572.013087,-3.127057 669.377017,-19.804692zm-1569.993367,-137.59049c-2.028415,-16.677635 -4.05683,-5.211761 -4.05683,22.931748c0,29.185862 2.028415,41.694088 4.05683,29.185862c2.028415,-13.550579 2.028415,-36.482327 0,-52.11761zm87.221854,-50.032906c-3.042623,-9.38117 -8.113661,-14.592931 -10.142076,-11.465874c-3.042623,3.127057 -2.028415,9.38117 2.028415,15.635283c9.127868,16.677635 15.213114,13.550579 8.113661,-4.169409zm-7.099453,-72.964654c-11.156284,-8.338818 -24.340982,-15.635283 -30.426228,-15.635283c-5.071038,0 -1.014208,7.296465 10.142076,15.635283c10.142076,8.338818 24.340982,14.592931 29.41202,14.592931c6.085246,0 1.014208,-6.254113 -9.127868,-14.592931zm1798.190078,-79.218767c42.596719,-23.974101 79.108193,-44.821145 81.136608,-46.905849c2.028415,-2.084704 -20.284152,-35.439975 -48.681965,-74.007006c-28.397813,-38.567031 -61.866664,-95.896402 -74.037155,-126.124616c-12.170491,-30.228214 -27.383605,-53.159962 -32.454643,-50.032906c-220.08305,97.981107 -269.779222,124.039912 -269.779222,142.802251c0,5.211761 9.127868,0 20.284152,-11.465874c13.184699,-13.550579 26.369398,-17.719987 37.525681,-13.550579c16.227322,7.296465 16.227322,8.338818 -2.028415,11.465874c-11.156284,2.084704 -24.340982,8.338818 -30.426228,13.550579c-15.213114,15.635283 26.369398,11.465874 77.079778,-7.296465c67.951909,-25.016453 97.36393,-14.592931 110.548629,40.651736c29.41202,114.658742 43.610927,163.649295 48.681965,163.649295c3.042623,0 39.554096,-19.804692 82.150816,-42.73644zm-1881.355101,17.719987c-10.142076,-8.338818 -21.29836,-12.508226 -24.340982,-10.423522c-5.071038,6.254113 21.29836,25.016453 34.483058,25.016453c6.085246,0 1.014208,-6.254113 -10.142076,-14.592931zm701.83166,-95.896402c-5.071038,-14.592931 -9.127868,-15.635283 -19.269944,-5.211761c-9.127868,9.38117 -9.127868,14.592931 3.042623,21.889396c18.255737,11.465874 24.340982,6.254113 16.227322,-16.677635zm54.76721,11.465874c0,-8.338818 -7.099453,-15.635283 -15.213114,-15.635283c-8.113661,0 -15.213114,7.296465 -15.213114,15.635283c0,8.338818 7.099453,15.635283 15.213114,15.635283c8.113661,0 15.213114,-7.296465 15.213114,-15.635283zm50.71038,1.042352c0,-8.338818 -7.099453,-16.677635 -15.213114,-20.847044c-10.142076,-4.169409 -15.213114,1.042352 -15.213114,14.592931c0,11.465874 7.099453,20.847044 15.213114,20.847044c8.113661,0 15.213114,-6.254113 15.213114,-14.592931zm48.681965,-3.127057c-4.05683,-22.931748 -22.312567,-20.847044 -26.369398,1.042352c-2.028415,10.423522 3.042623,16.677635 13.184699,16.677635c10.142076,0 15.213114,-7.296465 13.184699,-17.719987zm660.249149,1.042352c7.099453,-6.254113 -81.136608,-107.362277 -149.088517,-171.988113c-73.022947,-67.752893 -329.617471,-249.122176 -353.958453,-249.122176c-47.667757,0 -386.413096,249.122176 -372.21419,273.096276c4.05683,6.254113 3.042623,8.338818 -4.05683,4.169409c-5.071038,-3.127057 -36.511474,22.931748 -67.951909,58.371723c-51.724588,59.414075 -55.781418,65.668189 -35.497266,68.795245c27.383605,4.169409 94.321307,-57.329371 86.207646,-79.218767c-3.042623,-7.296465 0,-10.423522 6.085246,-6.254113c13.184699,7.296465 61.866664,-36.482327 53.753003,-50.032906c-3.042623,-5.211761 -2.028415,-7.296465 3.042623,-6.254113c4.05683,2.084704 44.625134,-22.931748 89.250269,-55.244667c82.150816,-59.414075 223.125672,-144.886956 238.338786,-144.886956c12.170491,0 157.202178,88.599937 218.054634,133.421082c76.06557,55.244667 168.358462,140.717547 207.912558,193.877509c27.383605,35.439975 40.568304,45.863497 55.781418,40.651736c11.156284,-3.127057 22.312567,-7.296465 24.340982,-9.38117zm-861.062254,-2.084704c0,-13.550579 -12.170491,-22.931748 -22.312567,-16.677635c-10.142076,6.254113 -1.014208,25.016453 13.184699,25.016453c5.071038,0 9.127868,-4.169409 9.127868,-8.338818zm1002.03711,-22.931748c28.397813,-7.296465 52.738795,-15.635283 52.738795,-19.804692c0,-19.804692 -16.227322,-19.804692 -64.909286,-1.042352c-28.397813,11.465874 -61.866664,20.847044 -75.051363,20.847044c-13.184699,0 -20.284152,4.169409 -17.241529,10.423522c6.085246,10.423522 11.156284,10.423522 104.463383,-10.423522zm-951.32673,-26.058805c0,-8.338818 -7.099453,-15.635283 -15.213114,-15.635283c-8.113661,0 -15.213114,7.296465 -15.213114,15.635283c0,8.338818 7.099453,15.635283 15.213114,15.635283c8.113661,0 15.213114,-7.296465 15.213114,-15.635283zm50.71038,1.042352c0,-8.338818 -4.05683,-17.719987 -9.127868,-21.889396c-12.170491,-7.296465 -24.340982,12.508226 -16.227322,26.058805c9.127868,15.635283 25.35519,12.508226 25.35519,-4.169409zm48.681965,-4.169409c2.028415,-7.296465 -3.042623,-12.508226 -12.170491,-12.508226c-9.127868,0 -16.227322,7.296465 -16.227322,16.677635c0,17.719987 22.312567,14.592931 28.397813,-4.169409zm47.667757,0c0,-18.76234 -20.284152,-15.635283 -23.326775,4.169409c-3.042623,10.423522 1.014208,15.635283 10.142076,12.508226c7.099453,-3.127057 13.184699,-10.423522 13.184699,-16.677635zm55.781418,3.127057c0,-8.338818 -7.099453,-15.635283 -15.213114,-15.635283c-8.113661,0 -15.213114,7.296465 -15.213114,15.635283c0,8.338818 7.099453,15.635283 15.213114,15.635283c8.113661,0 15.213114,-7.296465 15.213114,-15.635283zm48.681965,-2.084704c-4.05683,-22.931748 -22.312567,-20.847044 -26.369398,1.042352c-2.028415,10.423522 3.042623,16.677635 13.184699,16.677635c10.142076,0 15.213114,-7.296465 13.184699,-17.719987zm-202.84152,-52.11761c-4.05683,-22.931748 -22.312567,-20.847044 -26.369398,1.042352c-2.028415,10.423522 3.042623,16.677635 13.184699,16.677635c10.142076,0 15.213114,-7.296465 13.184699,-17.719987zm47.667757,-1.042352c0,-18.76234 -20.284152,-15.635283 -23.326775,4.169409c-3.042623,10.423522 1.014208,15.635283 10.142076,12.508226c7.099453,-3.127057 13.184699,-10.423522 13.184699,-16.677635zm50.71038,-2.084704c0,-7.296465 -6.085246,-15.635283 -12.170491,-17.719987c-8.113661,-3.127057 -13.184699,4.169409 -13.184699,17.719987c0,13.550579 5.071038,20.847044 13.184699,18.76234c6.085246,-3.127057 12.170491,-11.465874 12.170491,-18.76234zm50.71038,2.084704c0,-18.76234 -20.284152,-15.635283 -23.326775,4.169409c-3.042623,10.423522 1.014208,15.635283 10.142076,12.508226c7.099453,-3.127057 13.184699,-10.423522 13.184699,-16.677635zm50.71038,-2.084704c0,-7.296465 -6.085246,-15.635283 -12.170491,-17.719987c-8.113661,-3.127057 -13.184699,4.169409 -13.184699,17.719987c0,13.550579 5.071038,20.847044 13.184699,18.76234c6.085246,-3.127057 12.170491,-11.465874 12.170491,-18.76234zm-150.102725,-46.905849c0,-18.76234 -19.269944,-15.635283 -25.35519,3.127057c-2.028415,7.296465 3.042623,12.508226 11.156284,12.508226c7.099453,0 14.198906,-7.296465 14.198906,-15.635283zm51.724588,-2.084704c-4.05683,-22.931748 -22.312567,-20.847044 -26.369398,1.042352c-2.028415,10.423522 3.042623,16.677635 13.184699,16.677635c10.142076,0 15.213114,-7.296465 13.184699,-17.719987zm50.71038,0c-4.05683,-22.931748 -22.312567,-20.847044 -26.369398,1.042352c-2.028415,10.423522 3.042623,16.677635 13.184699,16.677635c10.142076,0 15.213114,-7.296465 13.184699,-17.719987zm-48.681965,-44.821145c0,-5.211761 -4.05683,-10.423522 -9.127868,-10.423522c-6.085246,0 -13.184699,5.211761 -16.227322,10.423522c-3.042623,6.254113 1.014208,10.423522 9.127868,10.423522c9.127868,0 16.227322,-4.169409 16.227322,-10.423522zm48.681965,-7.296465c-4.05683,-22.931748 -22.312567,-20.847044 -26.369398,1.042352c-2.028415,10.423522 3.042623,16.677635 13.184699,16.677635c10.142076,0 15.213114,-7.296465 13.184699,-17.719987z"/>
   <path stroke="null" id="svg_3" d="m1626.757306,5877.985357c-3.042623,-53.159962 -9.127868,-107.362277 -12.170491,-119.870503c-6.085246,-20.847044 -3.042623,-23.974101 26.369398,-23.974101c27.383605,0 32.454643,3.127057 27.383605,20.847044c-5.071038,20.847044 8.113661,164.691648 18.255737,199.08927c5.071038,16.677635 1.014208,19.804692 -23.326775,19.804692l-29.41202,0l-7.099453,-95.896402z"/>
   <path stroke="null" id="svg_4" d="m917.826192,5931.145319c-15.213114,-9.38117 -16.227322,-13.550579 -6.085246,-26.058805c7.099453,-9.38117 14.198906,-51.075258 15.213114,-95.896402c2.028415,-79.218767 2.028415,-80.261119 29.41202,-83.388176c34.483058,-4.169409 54.76721,13.550579 37.525681,31.270566c-23.326775,23.974101 -14.198906,46.905849 23.326775,54.202314c59.838248,11.465874 84.179231,70.87995 45.639342,110.489333c-15.213114,15.635283 -33.468851,20.847044 -73.022947,20.847044c-29.41202,0 -61.866664,-5.211761 -72.00874,-11.465874zm104.463383,-35.439975c18.255737,-21.889396 5.071038,-46.905849 -25.35519,-46.905849c-40.568304,0 -34.483058,56.287019 6.085246,61.49878c4.05683,1.042352 12.170491,-6.254113 19.269944,-14.592931z"/>
   <path stroke="null" id="svg_5" d="m1136.895034,5900.917106c-74.037155,-30.228214 -46.65355,-156.35283 33.468851,-156.35283c42.596719,0 75.051363,15.635283 75.051363,36.482327c0,18.76234 -1.014208,18.76234 -35.497266,5.211761c-18.255737,-7.296465 -33.468851,-7.296465 -46.65355,0c-32.454643,18.76234 -21.29836,31.270566 26.369398,31.270566c45.639342,0 45.639342,0 45.639342,36.482327c0,30.228214 -5.071038,38.567031 -26.369398,46.905849c-30.426228,12.508226 -42.596719,12.508226 -72.00874,0zm57.809833,-41.694088c0,-5.211761 -12.170491,-10.423522 -26.369398,-10.423522c-14.198906,0 -23.326775,4.169409 -19.269944,10.423522c3.042623,6.254113 15.213114,10.423522 26.369398,10.423522c10.142076,0 19.269944,-4.169409 19.269944,-10.423522z"/>
   <path stroke="null" id="svg_6" d="m1276.855683,5884.23947c-45.639342,-60.456428 -13.184699,-134.463434 58.824041,-134.463434c48.681965,0 70.994532,18.76234 78.093985,68.795245c8.113661,52.11761 -25.35519,92.769346 -77.079778,92.769346c-30.426228,0 -43.610927,-6.254113 -59.838248,-27.101157zm85.193439,-51.075258c0,-37.524679 -2.028415,-41.694088 -25.35519,-41.694088c-20.284152,0 -26.369398,6.254113 -28.397813,29.185862c-5.071038,43.778792 5.071038,61.49878 30.426228,57.329371c20.284152,-3.127057 23.326775,-9.38117 23.326775,-44.821145z"/>
   <path stroke="null" id="svg_7" d="m1438.114692,5908.213571c-1.014208,-1.042352 -2.028415,-52.11761 -3.042623,-113.61639c-2.028415,-102.150516 0,-111.531685 17.241529,-116.743446c29.41202,-8.338818 35.497266,1.042352 29.41202,39.609384l-5.071038,35.439975l39.554096,-5.211761c34.483058,-4.169409 43.610927,-2.084704 57.809833,18.76234c19.269944,29.185862 21.29836,91.726994 3.042623,117.785799c-10.142076,13.550579 -30.426228,19.804692 -76.06557,22.931748c-34.483058,2.084704 -62.880871,2.084704 -62.880871,1.042352zm109.534421,-76.091711c3.042623,-35.439975 -17.241529,-60.456428 -42.596719,-50.032906c-10.142076,4.169409 -16.227322,18.76234 -16.227322,39.609384c0,40.651736 7.099453,50.032906 35.497266,45.863497c14.198906,-2.084704 21.29836,-12.508226 23.326775,-35.439975z"/>
   <path stroke="null" id="svg_8" d="m662.245877,5893.62064c-32.454643,-8.338818 -38.539889,-19.804692 -21.29836,-46.905849c23.326775,-37.524679 26.369398,-121.955207 4.05683,-137.59049c-37.525681,-23.974101 -65.923494,20.847044 -72.00874,113.61639c-2.028415,41.694088 -2.028415,41.694088 -42.596719,39.609384c-22.312567,-1.042352 -41.582512,-2.084704 -43.610927,-2.084704c-2.028415,-1.042352 5.071038,-16.677635 16.227322,-34.397623c11.156284,-18.76234 25.35519,-57.329371 31.440436,-85.47288c7.099453,-28.143509 20.284152,-57.329371 29.41202,-65.668189c41.582512,-31.270566 137.932234,-4.169409 150.102725,43.778792c3.042623,14.592931 1.014208,48.990553 -6.085246,77.134063c-6.085246,28.143509 -11.156284,57.329371 -10.142076,64.625836c4.05683,23.974101 0,40.651736 -7.099453,39.609384c-5.071038,-1.042352 -17.241529,-3.127057 -28.397813,-6.254113z"/>
   <path stroke="null" id="svg_9" d="m1718.03599,5866.519483c-9.127868,-7.296465 -20.284152,-32.312918 -23.326775,-56.287019c-7.099453,-58.371723 19.269944,-86.515233 83.165023,-86.515233c37.525681,0 45.639342,3.127057 45.639342,18.76234c0,15.635283 -6.085246,18.76234 -30.426228,14.592931c-30.426228,-4.169409 -60.852456,11.465874 -60.852456,32.312918c0,6.254113 19.269944,7.296465 50.71038,3.127057l50.71038,-7.296465l0,36.482327c0,26.058805 -6.085246,39.609384 -19.269944,47.948201c-27.383605,14.592931 -75.051363,13.550579 -96.349722,-3.127057zm80.122401,-29.185862c10.142076,-15.635283 4.05683,-18.76234 -27.383605,-12.508226c-15.213114,3.127057 -25.35519,9.38117 -22.312567,14.592931c7.099453,12.508226 41.582512,11.465874 49.696172,-2.084704z"/>
   <path stroke="null" id="svg_10" d="m761.638222,5842.545382c-21.29836,-21.889396 -24.340982,-33.35527 -19.269944,-64.625836c10.142076,-69.837597 77.079778,-96.938755 131.846988,-53.159962c33.468851,27.101157 35.497266,78.176415 5.071038,117.785799c-28.397813,37.524679 -81.136608,37.524679 -117.648082,0zm86.207646,-59.414075c3.042623,-38.567031 2.028415,-39.609384 -25.35519,-36.482327c-20.284152,2.084704 -29.41202,9.38117 -31.440436,27.101157c-5.071038,37.524679 5.071038,56.287019 30.426228,52.11761c19.269944,-2.084704 24.340982,-10.423522 26.369398,-42.73644z"/>
   <path stroke="null" id="svg_11" d="m394.49507,5811.274817c0,-11.465874 3.042623,-14.592931 6.085246,-6.254113c3.042623,7.296465 2.028415,16.677635 -1.014208,19.804692c-3.042623,4.169409 -6.085246,-2.084704 -5.071038,-13.550579z"/>
   <path stroke="null" id="svg_12" d="m426.949713,5601.762024c9.127868,-2.084704 23.326775,-2.084704 30.426228,0c6.085246,3.127057 -1.014208,5.211761 -18.255737,5.211761c-16.227322,0 -22.312567,-2.084704 -12.170491,-5.211761z"/>
   <path stroke="null" id="svg_13" d="m411.736599,5580.91498c10.142076,-4.169409 10.142076,-8.338818 1.014208,-19.804692c-13.184699,-16.677635 -2.028415,-18.76234 20.284152,-5.211761c17.241529,11.465874 6.085246,32.312918 -17.241529,31.270566c-11.156284,0 -13.184699,-2.084704 -4.05683,-6.254113z"/>
   <path stroke="null" id="svg_14" d="m754.538769,5548.602062c5.071038,-4.169409 18.255737,-18.76234 27.383605,-32.312918c15.213114,-23.974101 16.227322,-23.974101 14.198906,-3.127057c0,11.465874 -4.05683,19.804692 -8.113661,16.677635c-4.05683,-2.084704 -9.127868,3.127057 -13.184699,11.465874c-3.042623,8.338818 -11.156284,15.635283 -18.255737,15.635283c-9.127868,0 -9.127868,-3.127057 -2.028415,-8.338818z"/>
   <path stroke="null" id="svg_15" d="m2472.606446,6031.211131c0,-476.354955 3.042623,-724.434779 10.142076,-724.434779c7.099453,0 10.142076,248.079823 10.142076,724.434779c0,476.354955 -3.042623,724.434779 -10.142076,724.434779c-7.099453,0 -10.142076,-248.079823 -10.142076,-724.434779z"/>
   <g stroke="null" id="svg_16">
    <path stroke="null" id="svg_17" d="m5388.4533,6498.184916c-60.852456,-16.677635 -102.434968,-77.134063 -91.278684,-134.463434c8.113661,-46.905849 54.76721,-82.345824 134.889611,-101.108163c73.022947,-17.719987 103.449175,-40.651736 103.449175,-79.218767c0,-50.032906 -34.483058,-74.007006 -103.449175,-74.007006c-50.71038,1.042352 -87.221854,18.76234 -104.463383,52.11761l-12.170491,23.974101l-12.170491,-22.931748c-31.440436,-58.371723 19.269944,-96.938755 130.832781,-97.981107c97.36393,-1.042352 158.216386,50.032906 156.187971,132.378729c-2.028415,51.075258 -42.596719,92.769346 -105.477591,110.489333c-22.312567,5.211761 -58.824041,15.635283 -81.136608,20.847044c-73.022947,19.804692 -81.136608,92.769346 -13.184699,121.955207c48.681965,20.847044 100.406553,11.465874 135.903819,-23.974101c30.426228,-30.228214 36.511474,-26.058805 41.582512,26.058805c3.042623,21.889396 -3.042623,28.143509 -37.525681,38.567031c-41.582512,13.550579 -105.477591,16.677635 -141.989064,7.296465z"/>
    <path stroke="null" id="svg_18" d="m2883.360524,6485.67669c-3.042623,-6.254113 1.014208,-13.550579 9.127868,-18.76234c11.156284,-6.254113 15.213114,-40.651736 18.255737,-156.35283c3.042623,-163.649295 11.156284,-185.538692 78.093985,-226.190427c40.568304,-23.974101 133.875403,-26.058805 185.599991,-3.127057c66.937702,29.185862 79.108193,64.625836 79.108193,223.063371c0,108.404629 3.042623,140.717547 15.213114,153.225773c26.369398,27.101157 17.241529,37.524679 -35.497266,37.524679c-36.511474,0 -50.71038,-4.169409 -50.71038,-14.592931c0,-8.338818 7.099453,-16.677635 15.213114,-20.847044c21.29836,-8.338818 21.29836,-230.359836 0,-283.519798c-25.35519,-63.583484 -120.690705,-86.515233 -185.599991,-45.863497c-45.639342,29.185862 -52.738795,55.244667 -52.738795,199.08927c0,101.108163 3.042623,126.124616 15.213114,130.294025c8.113661,4.169409 15.213114,12.508226 15.213114,20.847044c0,16.677635 -96.349722,20.847044 -106.491798,5.211761z"/>
    <path stroke="null" id="svg_19" d="m3365.109135,6484.634337c0,-6.254113 7.099453,-13.550579 15.213114,-16.677635c13.184699,-5.211761 15.213114,-35.439975 15.213114,-182.411635c0,-151.141069 -2.028415,-176.157522 -16.227322,-184.496339c-28.397813,-15.635283 -6.085246,-33.35527 42.596719,-33.35527c46.65355,0 55.781418,11.465874 29.41202,37.524679c-12.170491,12.508226 -15.213114,45.863497 -14.198906,162.606943c0,120.912855 2.028415,144.886956 13.184699,132.378729c7.099453,-8.338818 66.937702,-86.515233 131.846988,-173.030465c80.122401,-107.362277 125.761743,-159.479887 138.946441,-159.479887c18.255737,0 19.269944,10.423522 19.269944,198.046918c0,125.082264 4.05683,198.046918 10.142076,198.046918c6.085246,0 10.142076,7.296465 10.142076,15.635283c0,11.465874 -12.170491,15.635283 -45.639342,15.635283c-33.468851,0 -45.639342,-4.169409 -45.639342,-15.635283c0,-8.338818 5.071038,-15.635283 10.142076,-15.635283c6.085246,0 10.142076,-56.287019 10.142076,-146.97166l0,-146.97166l-119.676497,160.522239c-118.662289,157.395182 -120.690705,159.479887 -162.273216,162.606943c-26.369398,2.084704 -42.596719,-1.042352 -42.596719,-8.338818z"/>
    <path stroke="null" id="svg_20" d="m3859.028237,6487.761394c-12.170491,-11.465874 -8.113661,-23.974101 8.113661,-23.974101c13.184699,0 15.213114,-27.101157 15.213114,-177.199874c0,-152.183421 -2.028415,-177.199874 -16.227322,-185.538692c-27.383605,-15.635283 -6.085246,-33.35527 41.582512,-33.35527c47.667757,0 68.966117,17.719987 41.582512,33.35527c-14.198906,8.338818 -16.227322,33.35527 -16.227322,185.538692c0,150.098717 2.028415,177.199874 15.213114,177.199874c8.113661,0 15.213114,7.296465 15.213114,15.635283c0,11.465874 -12.170491,15.635283 -48.681965,15.635283c-27.383605,0 -52.738795,-3.127057 -55.781418,-7.296465z"/>
    <path stroke="null" id="svg_21" d="m4004.059924,6479.422576c0,-8.338818 6.085246,-15.635283 14.198906,-15.635283c8.113661,0 44.625134,-78.176415 93.307099,-199.08927c44.625134,-109.446981 86.207646,-202.216327 94.321307,-205.343383c7.099453,-3.127057 20.284152,-1.042352 28.397813,4.169409c8.113661,5.211761 50.71038,95.896402 94.321307,201.173975c44.625134,106.319924 87.221854,197.004566 96.349722,201.173975c26.369398,15.635283 7.099453,29.185862 -41.582512,29.185862c-31.440436,0 -44.625134,-4.169409 -44.625134,-14.592931c0,-8.338818 5.071038,-16.677635 11.156284,-18.76234c6.085246,-2.084704 -17.241529,-70.87995 -56.795626,-164.691648c-37.525681,-88.599937 -68.966117,-162.606943 -69.980325,-163.649295c-3.042623,-4.169409 -127.790158,309.578603 -127.790158,320.002125c0,6.254113 5.071038,10.423522 10.142076,10.423522c6.085246,0 10.142076,7.296465 10.142076,15.635283c0,12.508226 -13.184699,15.635283 -55.781418,15.635283c-42.596719,0 -55.781418,-3.127057 -55.781418,-15.635283z"/>
    <path stroke="null" id="svg_22" d="m4480.737497,6479.422576c0,-8.338818 5.071038,-15.635283 10.142076,-15.635283c6.085246,0 10.142076,-65.668189 10.142076,-177.199874c0,-152.183421 -2.028415,-177.199874 -16.227322,-185.538692c-41.582512,-23.974101 0,-33.35527 143.003272,-33.35527c156.187971,0 157.202178,0 157.202178,58.371723c0,30.228214 -21.29836,32.312918 -38.539889,4.169409c-11.156284,-19.804692 -21.29836,-20.847044 -101.42076,-18.76234l-88.236061,3.127057l0,78.176415l0,78.176415l58.824041,3.127057c41.582512,2.084704 66.937702,-2.084704 84.179231,-12.508226c33.468851,-22.931748 34.483058,-21.889396 34.483058,30.228214c0,43.778792 -11.156284,60.456428 -25.35519,36.482327c-3.042623,-5.211761 -40.568304,-10.423522 -82.150816,-10.423522l-75.051363,0l0,67.752893l0,67.752893l81.136608,0c69.980325,0 82.150816,-3.127057 91.278684,-20.847044c17.241529,-33.35527 30.426228,-23.974101 30.426228,20.847044l0,41.694088l-136.918026,0c-114.605459,0 -136.918026,-2.084704 -136.918026,-15.635283z"/>
    <path stroke="null" id="svg_23" d="m4860.05114,6483.591985c-4.05683,-7.296465 1.014208,-16.677635 10.142076,-21.889396c14.198906,-8.338818 16.227322,-32.312918 16.227322,-180.326931c0,-148.014012 -2.028415,-171.988113 -16.227322,-180.326931c-29.41202,-16.677635 -5.071038,-33.35527 47.667757,-33.35527c35.497266,0 49.696172,4.169409 49.696172,14.592931c0,8.338818 -7.099453,16.677635 -15.213114,20.847044c-11.156284,4.169409 -15.213114,22.931748 -15.213114,79.218767l0,72.964654l59.838248,0c33.468851,0 67.951909,-3.127057 77.079778,-7.296465c10.142076,-3.127057 35.497266,-45.863497 56.795626,-93.811698l38.539889,-86.515233l41.582512,0c29.41202,0 40.568304,4.169409 40.568304,15.635283c0,8.338818 -6.085246,15.635283 -13.184699,15.635283c-21.29836,0 -45.639342,32.312918 -62.880871,83.388176c-9.127868,25.016453 -23.326775,54.202314 -31.440436,63.583484c-15.213114,16.677635 -13.184699,20.847044 17.241529,48.990553c28.397813,26.058805 32.454643,37.524679 32.454643,78.176415c0,53.159962 -17.241529,81.303472 -65.923494,107.362277c-34.483058,18.76234 -256.594523,20.847044 -267.750807,3.127057zm265.722392,-55.244667c8.113661,-11.465874 14.198906,-35.439975 14.198906,-53.159962c0,-60.456428 -18.255737,-72.964654 -115.619667,-77.134063l-87.221854,-3.127057l0,80.261119l0,80.261119l87.221854,-3.127057c72.00874,-3.127057 89.250269,-7.296465 101.42076,-23.974101z"/>
    <path stroke="null" id="svg_24" d="m5677.502466,6479.422576c0,-8.338818 5.071038,-15.635283 10.142076,-15.635283c6.085246,0 10.142076,-65.668189 10.142076,-176.157522c0,-107.362277 -4.05683,-179.284578 -10.142076,-183.453987c-5.071038,-3.127057 -10.142076,-13.550579 -10.142076,-21.889396c0,-10.423522 13.184699,-14.592931 50.71038,-14.592931c52.738795,0 61.866664,10.423522 35.497266,37.524679c-12.170491,12.508226 -15.213114,47.948201 -15.213114,176.157522c0,128.209321 3.042623,163.649295 15.213114,176.157522c26.369398,27.101157 17.241529,37.524679 -35.497266,37.524679c-38.539889,0 -50.71038,-4.169409 -50.71038,-15.635283z"/>
    <path stroke="null" id="svg_25" d="m5839.775683,6453.363771c0,-45.863497 9.127868,-52.11761 28.397813,-20.847044c10.142076,16.677635 23.326775,20.847044 67.951909,20.847044l55.781418,0l0,-177.199874c0,-111.531685 -4.05683,-177.199874 -10.142076,-177.199874c-5.071038,0 -10.142076,-7.296465 -10.142076,-15.635283c0,-11.465874 12.170491,-15.635283 50.71038,-15.635283c38.539889,0 50.71038,4.169409 50.71038,15.635283c0,8.338818 -4.05683,15.635283 -10.142076,15.635283c-6.085246,0 -10.142076,65.668189 -10.142076,177.199874l0,177.199874l55.781418,0c44.625134,0 56.795626,-4.169409 65.923494,-20.847044c17.241529,-33.35527 30.426228,-23.974101 30.426228,20.847044l0,41.694088l-182.557368,0l-182.557368,0l0,-41.694088z"/>
    <path stroke="null" id="svg_26" d="m6225.174571,6480.464929c0,-8.338818 6.085246,-16.677635 14.198906,-19.804692c7.099453,-3.127057 48.681965,-55.244667 91.278684,-115.701094c75.051363,-108.404629 77.079778,-111.531685 77.079778,-173.030465c0,-45.863497 -4.05683,-63.583484 -16.227322,-70.87995c-29.41202,-16.677635 -5.071038,-33.35527 47.667757,-33.35527c51.724588,0 60.852456,10.423522 34.483058,37.524679c-9.127868,10.423522 -15.213114,35.439975 -15.213114,68.795245c0,50.032906 5.071038,60.456428 83.165023,170.945761c45.639342,65.668189 86.207646,118.828151 91.278684,118.828151c4.05683,0 8.113661,7.296465 8.113661,15.635283c0,11.465874 -12.170491,15.635283 -50.71038,15.635283c-36.511474,0 -50.71038,-4.169409 -50.71038,-14.592931c0,-8.338818 6.085246,-16.677635 12.170491,-18.76234c13.184699,-5.211761 -99.392345,-175.11517 -114.605459,-175.11517c-4.05683,0 -33.468851,37.524679 -65.923494,84.430528c-42.596719,61.49878 -53.753003,86.515233 -44.625134,92.769346c24.340982,15.635283 -1.014208,31.270566 -51.724588,31.270566c-35.497266,0 -49.696172,-4.169409 -49.696172,-14.592931z"/>
    <path stroke="null" id="svg_27" d="m2979.710246,5872.773596c-63.895079,-13.550579 -111.562836,-85.47288 -111.562836,-166.776352c0,-52.11761 36.511474,-125.082264 72.00874,-143.844604c38.539889,-20.847044 135.903819,-19.804692 171.401085,1.042352c89.250269,55.244667 91.278684,242.868062 2.028415,289.773911c-34.483058,18.76234 -96.349722,27.101157 -133.875403,19.804692zm121.704912,-63.583484c34.483058,-36.482327 47.667757,-93.811698 31.440436,-146.97166c-17.241529,-59.414075 -44.625134,-79.218767 -108.520213,-79.218767c-45.639342,0 -58.824041,4.169409 -82.150816,28.143509c-23.326775,25.016453 -27.383605,37.524679 -28.397813,89.642289c0,100.065811 29.41202,135.505786 114.605459,136.548138c35.497266,1.042352 49.696172,-5.211761 73.022947,-28.143509z"/>
    <path stroke="null" id="svg_28" d="m5469.589908,5864.434779c-22.312567,-8.338818 -50.71038,-27.101157 -62.880871,-42.73644c-57.809833,-75.049358 -36.511474,-219.936314 38.539889,-260.58805c43.610927,-22.931748 126.77595,-22.931748 170.386877,0c90.264477,47.948201 94.321307,232.444541 7.099453,290.816264c-35.497266,23.974101 -106.491798,30.228214 -153.145348,12.508226zm136.918026,-55.244667c50.71038,-53.159962 50.71038,-158.437534 -1.014208,-206.385736c-29.41202,-28.143509 -120.690705,-28.143509 -150.102725,0c-51.724588,47.948201 -51.724588,153.225773 -1.014208,206.385736c23.326775,23.974101 37.525681,29.185862 76.06557,29.185862c38.539889,0 52.738795,-5.211761 76.06557,-29.185862z"/>
    <path stroke="null" id="svg_29" d="m3253.546299,5860.26537c0,-6.254113 5.071038,-13.550579 10.142076,-16.677635c6.085246,-4.169409 10.142076,-60.456428 10.142076,-135.505786c0,-75.049358 -4.05683,-131.336377 -10.142076,-135.505786c-21.29836,-13.550579 -9.127868,-26.058805 24.340982,-26.058805c35.497266,0 55.781418,13.550579 36.511474,26.058805c-5.071038,3.127057 -10.142076,34.397623 -10.142076,68.795245l0,61.49878l49.696172,0c28.397813,0 53.753003,-4.169409 56.795626,-10.423522c13.184699,-21.889396 25.35519,-9.38117 25.35519,26.058805c0,19.804692 -4.05683,36.482327 -10.142076,36.482327c-5.071038,0 -10.142076,-4.169409 -10.142076,-10.423522c0,-5.211761 -25.35519,-10.423522 -55.781418,-10.423522l-55.781418,0l0,52.11761l0,52.11761l60.852456,0c45.639342,0 62.880871,-4.169409 66.937702,-15.635283c10.142076,-26.058805 24.340982,-17.719987 24.340982,15.635283l0,31.270566l-106.491798,0c-59.838248,0 -106.491798,-4.169409 -106.491798,-9.38117z"/>
    <path stroke="null" id="svg_30" d="m3638.945187,5838.375974c0,-33.35527 14.198906,-41.694088 24.340982,-15.635283c4.05683,10.423522 20.284152,15.635283 51.724588,15.635283l45.639342,0l0,-124.039912c0,-94.85405 -3.042623,-128.209321 -15.213114,-139.675195c-18.255737,-19.804692 -9.127868,-28.143509 31.440436,-28.143509c34.483058,0 52.738795,14.592931 34.483058,26.058805c-6.085246,4.169409 -10.142076,59.414075 -10.142076,136.548138l0,129.251673l45.639342,0c34.483058,0 45.639342,-4.169409 45.639342,-16.677635c0,-9.38117 5.071038,-14.592931 11.156284,-12.508226c6.085246,2.084704 10.142076,7.296465 10.142076,11.465874c-1.014208,4.169409 -1.014208,16.677635 -1.014208,28.143509c0,19.804692 -7.099453,20.847044 -136.918026,20.847044l-136.918026,0l0,-31.270566z"/>
    <path stroke="null" id="svg_31" d="m3970.591073,5863.392426c-3.042623,-4.169409 0,-12.508226 7.099453,-19.804692c19.269944,-19.804692 19.269944,-250.164528 1.014208,-269.96922c-8.113661,-8.338818 -11.156284,-16.677635 -8.113661,-20.847044c10.142076,-10.423522 72.00874,-7.296465 79.108193,4.169409c3.042623,6.254113 1.014208,10.423522 -4.05683,10.423522c-7.099453,0 -11.156284,27.101157 -11.156284,67.752893l0,67.752893l91.278684,0l91.278684,0l0,-61.49878c0,-34.397623 -4.05683,-65.668189 -10.142076,-68.795245c-21.29836,-13.550579 -9.127868,-26.058805 24.340982,-26.058805c35.497266,0 55.781418,13.550579 36.511474,26.058805c-13.184699,8.338818 -14.198906,276.223333 0,276.223333c6.085246,0 10.142076,5.211761 10.142076,10.423522c0,6.254113 -18.255737,10.423522 -40.568304,10.423522c-38.539889,0 -52.738795,-12.508226 -30.426228,-26.058805c6.085246,-3.127057 10.142076,-29.185862 10.142076,-58.371723l0,-51.075258l-91.278684,0l-91.278684,0l0,57.329371c0,33.35527 4.05683,57.329371 11.156284,57.329371c5.071038,0 7.099453,5.211761 4.05683,10.423522c-7.099453,11.465874 -68.966117,14.592931 -79.108193,4.169409z"/>
    <path stroke="null" id="svg_32" d="m4355.989962,5863.392426c-3.042623,-4.169409 1.014208,-13.550579 9.127868,-21.889396c20.284152,-21.889396 19.269944,-247.037471 -2.028415,-267.884515c-7.099453,-8.338818 -10.142076,-16.677635 -7.099453,-20.847044c4.05683,-3.127057 55.781418,-6.254113 116.633874,-6.254113c88.236061,0 109.534421,3.127057 109.534421,14.592931c0,8.338818 3.042623,21.889396 6.085246,31.270566c4.05683,10.423522 1.014208,16.677635 -9.127868,16.677635c-8.113661,0 -17.241529,-7.296465 -21.29836,-15.635283c-4.05683,-11.465874 -22.312567,-15.635283 -72.00874,-15.635283l-65.923494,0l0,62.541132l0,62.541132l49.696172,0c28.397813,0 53.753003,-4.169409 56.795626,-10.423522c13.184699,-21.889396 25.35519,-9.38117 25.35519,26.058805c0,19.804692 -4.05683,36.482327 -10.142076,36.482327c-5.071038,0 -10.142076,-4.169409 -10.142076,-10.423522c0,-5.211761 -25.35519,-10.423522 -55.781418,-10.423522l-55.781418,0l0,52.11761l0,52.11761l59.838248,0c44.625134,0 60.852456,-4.169409 65.923494,-16.677635c8.113661,-22.931748 26.369398,-7.296465 26.369398,22.931748c0,25.016453 0,25.016453 -104.463383,25.016453c-57.809833,0 -107.506006,-3.127057 -111.562836,-6.254113z"/>
    <path stroke="null" id="svg_33" d="m4784.999777,5861.307722c0,-6.254113 5.071038,-14.592931 10.142076,-17.719987c6.085246,-4.169409 10.142076,-60.456428 10.142076,-135.505786c0,-75.049358 -4.05683,-131.336377 -10.142076,-135.505786c-22.312567,-13.550579 -8.113661,-26.058805 30.426228,-26.058805c41.582512,0 49.696172,7.296465 29.41202,28.143509c-5.071038,5.211761 -9.127868,31.270566 -7.099453,56.287019l3.042623,45.863497l62.880871,5.211761c79.108193,6.254113 109.534421,32.312918 109.534421,93.811698c0,70.87995 -27.383605,87.557585 -141.989064,91.726994c-61.866664,3.127057 -96.349722,0 -96.349722,-6.254113zm172.415292,-41.694088c28.397813,-22.931748 30.426228,-72.964654 4.05683,-92.769346c-10.142076,-7.296465 -39.554096,-13.550579 -66.937702,-13.550579l-48.681965,0l0,62.541132l0,62.541132l44.625134,0c27.383605,0 52.738795,-7.296465 66.937702,-18.76234z"/>
    <path stroke="null" id="svg_34" d="m5079.119982,5859.223018c0,-5.211761 5.071038,-10.423522 10.142076,-10.423522c14.198906,0 13.184699,-267.884515 0,-276.223333c-27.383605,-17.719987 11.156284,-26.058805 112.577044,-26.058805l110.548629,0l0,31.270566c0,33.35527 -14.198906,41.694088 -24.340982,15.635283c-4.05683,-11.465874 -22.312567,-15.635283 -70.994532,-15.635283l-64.909286,0l-3.042623,39.609384c-8.113661,78.176415 -3.042623,85.47288 51.724588,85.47288c27.383605,0 52.738795,-4.169409 55.781418,-10.423522c13.184699,-21.889396 25.35519,-9.38117 25.35519,26.058805c0,19.804692 -4.05683,36.482327 -10.142076,36.482327c-5.071038,0 -10.142076,-4.169409 -10.142076,-10.423522c0,-5.211761 -24.340982,-10.423522 -54.76721,-10.423522c-53.753003,0 -54.76721,0 -58.824041,34.397623c-7.099453,64.625836 -2.028415,69.837597 63.895079,69.837597c46.65355,0 59.838248,-3.127057 59.838248,-15.635283c0,-8.338818 4.05683,-15.635283 9.127868,-15.635283c12.170491,0 24.340982,38.567031 16.227322,52.11761c-8.113661,13.550579 -218.054634,13.550579 -218.054634,0z"/>
    <path stroke="null" id="svg_35" d="m5758.639075,5861.307722c0,-6.254113 5.071038,-14.592931 10.142076,-17.719987c6.085246,-4.169409 10.142076,-60.456428 10.142076,-135.505786c0,-75.049358 -4.05683,-131.336377 -10.142076,-135.505786c-22.312567,-13.550579 -8.113661,-26.058805 30.426228,-26.058805c41.582512,0 49.696172,7.296465 29.41202,28.143509c-5.071038,5.211761 -9.127868,31.270566 -7.099453,56.287019l3.042623,45.863497l63.895079,5.211761c51.724588,4.169409 68.966117,10.423522 84.179231,30.228214c25.35519,31.270566 25.35519,95.896402 0,127.166968c-17.241529,22.931748 -29.41202,25.016453 -116.633874,28.143509c-62.880871,3.127057 -97.36393,0 -97.36393,-6.254113zm177.48633,-43.778792c20.284152,-16.677635 19.269944,-66.710541 -1.014208,-87.557585c-10.142076,-10.423522 -33.468851,-16.677635 -65.923494,-16.677635l-49.696172,0l0,63.583484l0,64.625836l50.71038,-5.211761c27.383605,-3.127057 56.795626,-11.465874 65.923494,-18.76234z"/>
    <path stroke="null" id="svg_36" d="m6052.759279,5859.223018c0,-5.211761 5.071038,-10.423522 10.142076,-10.423522c6.085246,0 10.142076,-52.11761 10.142076,-134.463434c0,-79.218767 -4.05683,-137.59049 -10.142076,-141.759899c-29.41202,-18.76234 0,-26.058805 106.491798,-26.058805l116.633874,0l0,31.270566c0,34.397623 -11.156284,39.609384 -30.426228,15.635283c-9.127868,-10.423522 -32.454643,-15.635283 -77.079778,-15.635283l-64.909286,0l0,129.251673c0,76.091711 4.05683,132.378729 10.142076,136.548138c22.312567,13.550579 8.113661,26.058805 -30.426228,26.058805c-22.312567,0 -40.568304,-4.169409 -40.568304,-10.423522z"/>
    <path stroke="null" id="svg_37" d="m6331.666369,5859.223018c-3.042623,-5.211761 -1.014208,-10.423522 4.05683,-10.423522c15.213114,0 15.213114,-266.842163 1.014208,-276.223333c-27.383605,-17.719987 11.156284,-26.058805 110.548629,-26.058805c105.477591,0 110.548629,1.042352 116.633874,23.974101c8.113661,33.35527 8.113661,38.567031 -8.113661,38.567031c-8.113661,0 -16.227322,-7.296465 -20.284152,-15.635283c-4.05683,-11.465874 -22.312567,-15.635283 -72.00874,-15.635283l-65.923494,0l0,62.541132l0,62.541132l49.696172,0c28.397813,0 53.753003,-4.169409 56.795626,-10.423522c13.184699,-21.889396 25.35519,-9.38117 25.35519,26.058805c0,19.804692 -4.05683,36.482327 -10.142076,36.482327c-5.071038,0 -10.142076,-4.169409 -10.142076,-10.423522c0,-5.211761 -25.35519,-10.423522 -55.781418,-10.423522l-55.781418,0l0,52.11761l0,52.11761l55.781418,0c40.568304,0 56.795626,-4.169409 63.895079,-16.677635c12.170491,-22.931748 32.454643,-9.38117 32.454643,22.931748c0,25.016453 0,25.016453 -105.477591,25.016453c-59.838248,0 -109.534421,-4.169409 -112.577044,-10.423522z"/>
   </g>
   <!-- <path d="M5166 3123 c-11 -11 -6 -23 9 -23 8 0 15 4 15 9 0 13 -16 22 -24 14z"/>
<path d="M5336 3123 c-11 -11 -6 -23 9 -23 8 0 15 4 15 9 0 13 -16 22 -24 14z"/>
<path d="M6817 3123 c-12 -11 -8 -23 8 -23 8 0 15 7 15 15 0 16 -12 20 -23 8z"/>
<path d="M7586 3123 c-11 -11 -6 -23 9 -23 8 0 15 4 15 9 0 13 -16 22 -24 14z"/>
<path d="M8166 3123 c-11 -11 -6 -23 9 -23 8 0 15 4 15 9 0 13 -16 22 -24 14z"/> -->
   <!-- <path d="M4840 3095 c0 -11 8 -13 31 -8 l31 6 -4 -77 c-3 -70 -2 -76 17 -76
19 0 20 6 17 76 l-4 77 31 -6 c23 -5 31 -3 31 8 0 12 -16 15 -75 15 -59 0 -75
-3 -75 -15z"/>
<path d="M5808 3025 c-3 -81 -2 -85 19 -85 19 0 21 4 16 42 l-6 41 36 -6 c31
-5 37 -3 37 12 0 14 -7 16 -35 13 -32 -4 -35 -2 -35 23 0 26 2 27 40 23 28 -2
40 0 40 9 0 9 -17 13 -54 13 l-55 0 -3 -85z"/>
<path d="M6400 3083 c-17 -22 -21 -37 -17 -68 7 -50 36 -75 87 -75 47 0 80 36
80 85 0 18 -9 44 -21 59 -16 21 -29 26 -64 26 -36 0 -48 -5 -65 -27z m110 -8
c16 -20 17 -80 1 -99 -15 -18 -53 -21 -82 -6 -26 14 -27 94 -1 109 25 15 68
13 82 -4z"/>
<path d="M6747 3040 c3 -47 1 -76 -7 -85 -10 -13 -8 -15 11 -15 23 0 24 2 24
85 0 72 -2 85 -16 85 -14 0 -16 -10 -12 -70z"/>
<path d="M7240 3039 c6 -79 21 -99 75 -99 53 0 66 18 72 98 4 65 3 72 -14 72
-16 0 -18 -7 -15 -60 4 -66 -7 -90 -42 -90 -42 0 -51 15 -50 85 1 54 -1 65
-15 65 -14 0 -15 -10 -11 -71z"/>
<path d="M5240 3089 c0 -7 -8 -18 -17 -25 -17 -13 -17 -13 0 -14 14 0 17 -9
17 -55 0 -54 0 -55 29 -55 17 0 33 5 36 10 4 6 -5 10 -19 10 -24 0 -26 3 -26
45 0 42 2 45 26 45 14 0 23 4 19 10 -3 6 -15 10 -26 10 -10 0 -19 7 -19 15 0
8 -4 15 -10 15 -5 0 -10 -5 -10 -11z"/>
<path d="M8240 3089 c0 -7 -8 -18 -17 -25 -17 -12 -17 -13 -1 -14 13 0 18 -11
20 -52 3 -52 4 -53 36 -56 18 -2 32 1 32 7 0 6 -11 11 -25 11 -23 0 -25 4 -25
45 0 41 2 45 25 45 14 0 25 5 25 10 0 6 -11 10 -25 10 -16 0 -25 6 -25 15 0 8
-4 15 -10 15 -5 0 -10 -5 -10 -11z"/>
<path d="M5007 3063 c-2 -5 -1 -33 2 -63 l6 -55 58 -2 c48 -1 58 1 53 14 -3 8
-6 37 -6 64 0 37 -4 49 -15 49 -12 0 -15 -13 -15 -55 0 -55 0 -55 -31 -55
l-31 0 4 55 c2 38 -1 55 -9 55 -6 0 -14 -3 -16 -7z"/>
<path d="M5160 3068 c-1 -2 -2 -31 -3 -66 -2 -49 1 -62 13 -62 12 0 15 14 15
65 0 45 -4 65 -12 65 -7 0 -13 -1 -13 -2z"/>
<path d="M5335 3005 c0 -51 3 -65 15 -65 12 0 14 12 12 65 -5 89 -27 89 -27 0z"/>
<path d="M5410 3050 c-41 -41 -13 -110 45 -110 58 0 86 69 45 110 -11 11 -31
20 -45 20 -14 0 -34 -9 -45 -20z m75 -45 c0 -36 -3 -40 -27 -43 -22 -3 -30 2
-38 23 -14 38 3 67 38 63 24 -3 27 -7 27 -43z"/>
<path d="M5549 3065 c0 0 -1 -28 -2 -63 -2 -51 1 -62 14 -62 13 0 15 9 11 50
-4 47 -3 49 23 56 37 9 48 -6 44 -60 -3 -37 -1 -46 12 -46 13 0 15 9 12 53 -7
78 -6 77 -63 75 -27 -1 -50 -2 -51 -3z"/>
<path d="M5950 3065 c-1 0 -2 -28 -3 -63 -2 -52 1 -62 15 -62 13 0 15 7 11 42
-5 32 -2 44 12 54 14 10 22 11 32 3 10 -9 13 -7 13 8 0 17 -6 20 -40 19 -22 0
-40 -1 -40 -1z"/>
<path d="M6066 3057 c-25 -18 -25 -86 1 -104 21 -16 85 -14 90 3 2 7 -13 10
-39 10 -37 -1 -43 2 -46 22 -3 20 1 22 42 22 39 0 46 3 46 20 0 35 -59 52 -94
27z m68 -16 c4 -5 1 -11 -6 -13 -19 -7 -58 3 -52 13 7 12 51 12 58 0z"/>
<path d="M6200 3050 c-39 -39 -14 -110 40 -110 15 0 35 3 44 6 29 11 16 21
-26 20 -37 -1 -43 2 -46 22 -3 20 1 22 42 22 50 0 60 15 30 44 -21 22 -60 20
-84 -4z m75 -10 c4 -6 -8 -10 -30 -10 -22 0 -34 4 -30 10 3 6 17 10 30 10 13
0 27 -4 30 -10z"/>
<path d="M6578 3065 c-2 -2 -1 -31 0 -64 3 -43 8 -61 17 -61 10 0 15 16 17 53
3 49 5 52 31 55 l29 4 -4 -56 c-3 -49 -1 -56 15 -56 15 0 18 8 16 48 -3 72
-11 82 -69 81 -27 -1 -51 -3 -52 -4z"/>
<path d="M6815 3005 c0 -51 3 -65 15 -65 12 0 15 14 15 65 0 51 -3 65 -15 65
-12 0 -15 -13 -15 -65z"/>
<path d="M6875 3062 c-3 -3 0 -11 6 -19 7 -7 9 -32 7 -58 -5 -38 -3 -45 12
-45 14 0 16 7 12 50 -4 47 -3 49 23 56 35 9 47 -9 42 -63 -4 -36 -2 -43 13
-43 15 0 16 8 12 53 -2 28 -9 57 -14 64 -9 11 -102 15 -113 5z"/>
<path d="M7047 3052 c-22 -25 -21 -75 1 -95 23 -21 75 -22 92 -2 12 14 8 15
-26 9 -30 -4 -43 -2 -53 10 -19 23 -5 36 39 36 43 0 58 20 34 45 -21 21 -67
19 -87 -3z m73 -12 c0 -5 -14 -10 -31 -10 -17 0 -28 4 -24 10 3 6 17 10 31 10
13 0 24 -4 24 -10z"/>
<path d="M7430 3065 c-1 0 -2 -28 -3 -63 -2 -51 1 -62 14 -62 13 0 15 9 11 50
-4 46 -3 49 21 55 40 10 50 -2 45 -56 -4 -41 -2 -49 12 -49 15 0 16 8 12 53
-6 67 -15 77 -68 75 -24 -1 -44 -2 -44 -3z"/>
<path d="M7578 3005 c-3 -59 -1 -65 17 -65 18 0 20 6 17 65 -3 46 -8 65 -17
65 -9 0 -14 -19 -17 -65z"/>
<path d="M7632 3063 c2 -5 16 -34 31 -65 15 -32 32 -58 37 -58 6 0 23 26 38
58 14 31 28 60 30 65 2 4 -6 7 -17 7 -13 0 -21 -7 -21 -17 -1 -10 -7 -31 -14
-48 l-14 -30 -15 34 c-8 19 -13 41 -10 48 3 9 -4 13 -22 13 -15 0 -25 -3 -23
-7z"/>
<path d="M7797 3052 c-22 -25 -21 -75 1 -95 23 -21 75 -22 91 -3 10 12 6 13
-28 9 -32 -4 -41 -2 -50 15 -14 26 -6 32 41 32 33 0 38 3 38 24 0 39 -64 51
-93 18z m73 -11 c0 -5 -13 -11 -30 -13 -29 -4 -37 1 -23 15 10 10 53 8 53 -2z"/>
<path d="M7925 3003 c0 -52 3 -63 17 -63 13 0 15 7 11 42 -5 32 -2 44 12 54
14 10 22 11 32 3 10 -9 13 -7 13 9 0 17 -6 20 -42 20 l-43 -1 0 -64z"/>
<path d="M8042 3061 c-25 -15 -10 -53 25 -65 18 -6 34 -15 35 -21 4 -15 -41
-18 -58 -5 -11 10 -14 9 -14 -9 0 -18 6 -21 39 -21 69 0 84 54 21 75 -40 13
-38 31 3 29 17 -1 27 3 27 12 0 16 -56 19 -78 5z"/>
<path d="M8159 3068 c0 -2 -1 -31 -2 -66 -2 -56 0 -62 18 -62 18 0 20 6 17 65
-3 48 -7 65 -18 65 -8 0 -14 -1 -15 -2z"/>
<path d="M8323 3058 c3 -7 15 -37 28 -67 24 -56 18 -87 -15 -85 -9 1 -16 -5
-16 -13 0 -9 8 -13 23 -11 17 2 32 23 64 88 23 47 42 88 42 93 1 4 -8 7 -18 7
-12 0 -19 -7 -19 -17 0 -10 -5 -31 -11 -48 l-13 -30 -18 35 c-10 19 -16 40
-13 47 3 8 -3 13 -17 13 -14 0 -20 -5 -17 -12z"/> -->
   <!-- <path d="M5694 3019 c-3 -5 1 -12 10 -15 21 -8 71 -1 71 11 0 13 -73 16 -81 4z"/> -->
  </g>
 </g>
</svg>