<svg id="svg" version="1.1" xmlns="http://www.w3.org/2000/svg" xmlns:xlink="http://www.w3.org/1999/xlink" width="400" height="82.8193832599119" viewBox="0, 0, 400,82.8193832599119"><g id="svgg"><path id="path0" d="M78.833 0.250 C 78.833 0.450,78.584 0.500,77.587 0.500 C 76.402 0.500,76.335 0.521,76.237 0.908 C 76.150 1.258,76.024 1.324,75.360 1.367 C 74.684 1.410,74.574 1.470,74.501 1.835 C 74.440 2.139,74.316 2.247,74.046 2.232 C 73.652 2.211,73.386 2.681,73.598 3.024 C 73.669 3.138,73.646 3.173,73.543 3.110 C 73.097 2.834,71.833 3.201,71.833 3.606 C 71.833 3.915,71.744 4.000,71.417 4.000 C 71.083 4.000,71.000 4.083,71.000 4.417 C 71.000 4.768,70.922 4.833,70.503 4.833 C 70.052 4.833,70.012 4.878,70.063 5.322 C 70.115 5.766,70.079 5.806,69.678 5.756 C 68.830 5.648,68.333 5.838,68.333 6.269 C 68.333 6.581,68.244 6.667,67.920 6.667 C 67.618 6.667,67.478 6.779,67.402 7.083 C 67.327 7.382,67.185 7.500,66.899 7.500 C 66.585 7.500,66.500 7.588,66.500 7.917 C 66.500 8.250,66.417 8.333,66.083 8.333 C 65.737 8.333,65.667 8.413,65.667 8.805 C 65.667 9.187,65.595 9.274,65.292 9.263 C 65.002 9.253,64.905 9.355,64.864 9.708 C 64.820 10.089,64.730 10.167,64.337 10.167 C 63.930 10.167,63.869 10.226,63.908 10.583 C 63.948 10.941,63.887 11.000,63.477 11.000 C 63.079 11.000,63.000 11.069,63.000 11.417 C 63.000 11.646,62.906 11.843,62.792 11.854 C 62.677 11.866,62.433 11.892,62.250 11.913 C 62.067 11.933,61.785 11.961,61.625 11.975 C 61.432 11.992,61.333 12.141,61.333 12.417 C 61.333 12.749,61.250 12.833,60.920 12.833 C 60.620 12.833,60.478 12.946,60.404 13.240 C 60.342 13.488,60.161 13.668,59.943 13.699 C 59.717 13.731,59.563 13.890,59.530 14.125 C 59.492 14.396,59.365 14.500,59.072 14.500 C 58.751 14.500,58.667 14.587,58.667 14.917 C 58.667 15.213,58.576 15.333,58.354 15.333 C 57.954 15.333,57.601 15.754,57.726 16.081 C 57.799 16.271,57.701 16.333,57.328 16.333 C 56.911 16.333,56.833 16.399,56.833 16.750 C 56.833 17.083,56.750 17.167,56.417 17.167 C 56.083 17.167,56.000 17.250,56.000 17.583 C 56.000 17.914,55.916 18.000,55.595 18.000 C 55.167 18.000,54.878 18.500,55.098 18.858 C 55.173 18.979,55.145 19.007,55.024 18.932 C 54.667 18.711,54.167 19.000,54.167 19.428 C 54.167 19.749,54.080 19.833,53.750 19.833 C 53.417 19.833,53.333 19.917,53.333 20.250 C 53.333 20.583,53.250 20.667,52.917 20.667 C 52.571 20.667,52.500 20.747,52.500 21.134 C 52.500 21.536,52.435 21.601,52.042 21.593 C 51.645 21.585,51.588 21.644,51.616 22.033 C 51.648 22.463,51.610 22.485,50.783 22.533 C 50.037 22.576,49.909 22.634,49.865 22.948 C 49.832 23.175,49.675 23.332,49.448 23.365 C 49.221 23.397,49.064 23.554,49.031 23.782 C 48.995 24.037,48.845 24.162,48.531 24.198 C 48.220 24.234,48.068 24.360,48.032 24.609 C 48.001 24.828,47.822 25.009,47.574 25.071 C 47.279 25.145,47.167 25.287,47.167 25.587 C 47.167 25.916,47.082 26.000,46.750 26.000 C 46.420 26.000,46.333 26.084,46.333 26.406 C 46.333 26.724,46.235 26.823,45.875 26.864 C 45.612 26.894,45.410 27.023,45.400 27.167 C 45.365 27.717,45.319 27.777,44.958 27.748 C 44.677 27.726,44.562 27.826,44.499 28.151 C 44.425 28.534,44.325 28.589,43.624 28.634 C 42.910 28.680,42.833 28.725,42.833 29.092 C 42.833 29.415,42.747 29.500,42.420 29.500 C 42.122 29.500,41.978 29.612,41.906 29.900 C 41.732 30.592,40.269 30.598,40.096 29.907 C 40.023 29.616,39.879 29.500,39.592 29.500 C 39.302 29.500,39.175 29.395,39.137 29.125 C 39.100 28.867,38.954 28.735,38.667 28.703 C 37.746 28.600,37.522 28.492,37.470 28.125 C 37.429 27.837,37.310 27.752,36.958 27.759 C 36.565 27.767,36.500 27.702,36.500 27.301 C 36.500 26.851,36.469 26.833,35.667 26.833 C 34.889 26.833,34.833 26.806,34.833 26.417 C 34.833 26.023,34.783 26.000,33.917 26.000 C 33.052 26.000,33.000 25.977,33.000 25.587 C 33.000 25.141,32.673 25.001,31.755 25.054 C 31.379 25.076,31.243 25.003,31.194 24.750 C 31.090 24.225,30.872 24.172,28.792 24.169 L 26.833 24.167 26.833 23.750 L 26.833 23.333 23.333 23.333 L 19.833 23.333 19.833 23.746 L 19.833 24.158 17.208 24.204 C 14.606 24.250,14.583 24.253,14.597 24.625 C 14.611 25.022,14.202 25.115,12.861 25.021 C 12.230 24.977,11.833 25.231,11.833 25.680 C 11.833 25.944,11.668 25.992,10.625 26.034 C 9.516 26.079,9.412 26.114,9.363 26.458 C 9.322 26.753,9.202 26.833,8.804 26.833 C 8.449 26.833,8.323 26.900,8.383 27.057 C 8.546 27.480,8.198 27.742,7.467 27.746 C 6.810 27.750,6.746 27.788,6.697 28.208 C 6.653 28.597,6.567 28.667,6.136 28.667 C 5.684 28.667,5.637 28.713,5.707 29.083 C 5.777 29.449,5.729 29.500,5.310 29.500 C 4.913 29.500,4.833 29.569,4.833 29.917 C 4.833 30.250,4.750 30.333,4.417 30.333 C 4.064 30.333,4.000 30.411,4.000 30.837 C 4.000 31.290,3.959 31.329,3.583 31.235 C 3.207 31.141,3.167 31.180,3.167 31.638 C 3.167 32.067,3.096 32.153,2.708 32.197 C 2.278 32.247,2.251 32.299,2.260 33.042 C 2.270 33.801,2.251 33.833,1.802 33.833 C 1.345 33.833,1.333 33.856,1.333 34.750 C 1.333 35.617,1.311 35.667,0.917 35.667 C 0.507 35.667,0.500 35.689,0.500 37.000 C 0.500 38.074,0.451 38.333,0.250 38.333 C 0.035 38.333,0.000 38.880,0.000 42.250 C 0.000 45.620,0.035 46.167,0.250 46.167 C 0.450 46.167,0.500 46.416,0.500 47.413 C 0.500 48.604,0.519 48.665,0.917 48.765 C 1.290 48.859,1.333 48.954,1.333 49.685 C 1.333 50.467,1.352 50.500,1.801 50.500 C 2.202 50.500,2.267 50.565,2.259 50.958 C 2.252 51.335,2.330 51.426,2.700 51.469 C 3.108 51.516,3.154 51.592,3.200 52.302 C 3.242 52.960,3.308 53.092,3.615 53.135 C 3.842 53.168,3.999 53.325,4.031 53.552 C 4.074 53.849,4.244 53.945,4.951 54.071 C 5.687 54.202,5.814 54.278,5.785 54.571 C 5.758 54.835,5.858 54.929,6.208 54.969 C 6.568 55.011,6.667 55.109,6.667 55.428 C 6.667 55.808,6.723 55.833,7.587 55.833 C 8.484 55.833,8.504 55.843,8.402 56.250 L 8.297 56.667 9.649 56.667 C 10.961 56.667,11.000 56.678,11.000 57.064 C 11.000 57.623,11.264 57.662,15.113 57.664 C 18.614 57.667,19.000 57.592,19.000 56.911 C 19.000 56.730,19.382 56.668,20.708 56.631 C 22.336 56.586,22.419 56.566,22.470 56.208 C 22.520 55.858,22.604 55.833,23.758 55.833 C 24.930 55.833,24.999 55.812,25.096 55.425 C 25.184 55.075,25.310 55.010,25.974 54.967 C 26.628 54.925,26.758 54.859,26.802 54.550 C 26.847 54.234,26.974 54.176,27.719 54.133 C 28.524 54.087,28.587 54.052,28.636 53.625 C 28.686 53.194,28.738 53.167,29.511 53.167 C 30.277 53.167,30.333 53.138,30.333 52.750 C 30.333 52.356,30.383 52.333,31.250 52.333 C 32.103 52.333,32.167 52.306,32.167 51.938 C 32.167 51.590,32.266 51.530,32.989 51.434 C 33.672 51.343,33.820 51.262,33.864 50.954 C 33.901 50.690,34.049 50.568,34.375 50.531 C 34.735 50.489,34.833 50.391,34.833 50.072 C 34.833 49.697,34.895 49.667,35.667 49.667 C 36.444 49.667,36.500 49.639,36.500 49.250 C 36.500 48.898,36.578 48.833,37.000 48.833 C 37.422 48.833,37.500 48.769,37.500 48.417 C 37.500 48.058,37.576 48.000,38.042 47.998 C 38.340 47.996,38.737 47.954,38.924 47.904 C 39.209 47.827,39.264 47.889,39.257 48.281 C 39.251 48.671,39.327 48.759,39.708 48.803 C 40.139 48.852,40.167 48.905,40.167 49.678 C 40.167 50.439,40.197 50.500,40.575 50.500 C 40.949 50.500,40.987 50.571,41.033 51.375 C 41.077 52.137,41.132 52.257,41.458 52.303 C 41.784 52.350,41.833 52.456,41.833 53.109 C 41.833 53.794,41.879 53.879,42.338 54.053 C 42.775 54.218,42.829 54.305,42.742 54.701 C 42.590 55.395,42.791 55.833,43.261 55.833 C 43.655 55.833,43.667 55.871,43.667 57.080 C 43.667 58.271,43.685 58.332,44.083 58.432 C 44.457 58.525,44.500 58.621,44.500 59.351 C 44.500 60.130,44.521 60.167,44.958 60.167 L 45.417 60.167 45.417 61.458 C 45.417 62.744,45.419 62.750,45.875 62.803 C 46.332 62.855,46.333 62.859,46.333 64.178 C 46.333 65.477,46.341 65.500,46.750 65.500 C 47.160 65.500,47.167 65.522,47.167 66.833 C 47.167 68.139,47.175 68.167,47.578 68.167 C 47.984 68.167,47.989 68.183,48.036 69.875 C 48.081 71.484,48.104 71.586,48.445 71.635 C 48.849 71.692,49.122 72.687,48.914 73.343 C 48.678 74.084,48.980 75.167,49.422 75.167 C 49.823 75.167,49.823 75.170,49.870 77.292 C 49.915 79.352,49.928 79.418,50.292 79.470 C 50.628 79.518,50.667 79.617,50.667 80.428 C 50.667 81.330,50.669 81.333,51.185 81.333 C 51.654 81.333,51.693 81.372,51.598 81.750 C 51.504 82.126,51.543 82.167,51.997 82.167 C 52.333 82.167,52.500 82.250,52.500 82.417 C 52.500 82.630,52.954 82.667,55.583 82.667 C 58.161 82.667,58.667 82.627,58.667 82.426 C 58.667 82.257,58.903 82.170,59.458 82.134 C 60.134 82.091,60.258 82.028,60.303 81.708 C 60.342 81.437,60.468 81.333,60.762 81.333 C 61.080 81.333,61.167 81.246,61.167 80.928 C 61.167 80.609,61.265 80.511,61.625 80.469 C 61.953 80.432,62.098 80.310,62.137 80.042 C 62.175 79.770,62.302 79.667,62.595 79.667 C 62.934 79.667,63.000 79.585,63.000 79.167 C 63.000 78.744,63.065 78.667,63.417 78.667 C 63.748 78.667,63.833 78.583,63.833 78.259 C 63.833 77.892,63.910 77.847,64.621 77.801 C 65.265 77.759,65.446 77.675,65.612 77.340 C 65.724 77.115,65.969 76.874,66.158 76.804 C 66.349 76.733,66.500 76.528,66.500 76.339 C 66.500 76.089,66.609 76.000,66.917 76.000 C 67.247 76.000,67.333 75.916,67.333 75.594 C 67.333 75.276,67.432 75.177,67.792 75.136 C 68.115 75.099,68.265 74.976,68.302 74.719 C 68.334 74.491,68.491 74.334,68.719 74.302 C 68.946 74.270,69.103 74.112,69.135 73.885 C 69.168 73.658,69.325 73.501,69.552 73.469 C 69.807 73.432,69.932 73.282,69.968 72.968 C 70.008 72.622,70.122 72.508,70.468 72.468 C 70.782 72.432,70.932 72.307,70.969 72.052 C 71.001 71.825,71.158 71.668,71.385 71.635 C 71.612 71.603,71.770 71.446,71.802 71.219 C 71.834 70.991,71.991 70.834,72.219 70.802 C 72.476 70.765,72.599 70.615,72.636 70.292 C 72.677 69.932,72.776 69.833,73.094 69.833 C 73.413 69.833,73.500 69.746,73.500 69.428 C 73.500 69.109,73.598 69.011,73.958 68.969 C 74.270 68.934,74.432 68.808,74.465 68.578 C 74.492 68.392,74.679 68.167,74.882 68.078 C 75.084 67.989,75.274 67.748,75.303 67.542 C 75.342 67.270,75.468 67.167,75.762 67.167 C 76.083 67.167,76.167 67.080,76.167 66.750 C 76.167 66.417,76.250 66.333,76.583 66.333 C 77.010 66.333,77.015 66.319,77.072 65.083 C 77.083 64.849,77.223 64.734,77.544 64.697 C 77.897 64.656,78.000 64.556,78.000 64.251 C 78.000 63.969,78.107 63.841,78.375 63.803 C 78.644 63.765,78.765 63.620,78.803 63.292 C 78.844 62.932,78.942 62.833,79.261 62.833 C 79.580 62.833,79.667 62.746,79.667 62.428 C 79.667 62.109,79.765 62.011,80.125 61.969 C 80.457 61.931,80.598 61.811,80.638 61.533 C 80.669 61.310,80.862 61.084,81.096 60.995 C 81.441 60.864,81.500 60.732,81.500 60.087 C 81.500 59.394,81.534 59.333,81.917 59.333 C 82.247 59.333,82.333 59.249,82.333 58.928 C 82.333 58.609,82.432 58.511,82.792 58.469 C 83.152 58.428,83.261 58.318,83.303 57.958 C 83.339 57.645,83.452 57.500,83.660 57.500 C 84.020 57.500,84.167 57.183,84.167 56.403 C 84.167 55.906,84.220 55.833,84.583 55.833 C 84.913 55.833,85.000 55.749,85.000 55.428 C 85.000 55.135,85.104 55.008,85.375 54.970 C 85.702 54.924,85.756 54.804,85.800 54.042 C 85.849 53.195,85.867 53.167,86.342 53.167 C 86.751 53.167,86.833 53.099,86.833 52.762 C 86.833 52.468,86.937 52.342,87.208 52.303 C 87.535 52.257,87.590 52.137,87.634 51.375 C 87.680 50.571,87.717 50.500,88.092 50.500 C 88.413 50.500,88.500 50.414,88.500 50.095 C 88.500 49.802,88.604 49.675,88.875 49.637 C 89.185 49.593,89.277 49.432,89.405 48.708 C 89.522 48.054,89.633 47.833,89.846 47.833 C 90.186 47.833,90.333 47.505,90.333 46.748 C 90.333 46.296,90.405 46.180,90.708 46.137 C 91.035 46.090,91.090 45.971,91.134 45.208 C 91.180 44.405,91.217 44.333,91.592 44.333 C 91.970 44.333,92.000 44.273,92.000 43.500 C 92.000 42.774,92.044 42.667,92.337 42.667 C 92.773 42.667,93.000 42.069,93.000 40.917 C 93.000 40.117,93.039 40.018,93.375 39.970 C 93.722 39.921,93.754 39.820,93.799 38.625 C 93.846 37.377,93.861 37.333,94.257 37.333 C 94.658 37.333,94.667 37.305,94.667 36.000 C 94.667 34.705,94.678 34.667,95.066 34.667 C 95.592 34.667,95.667 34.417,95.667 32.653 C 95.667 31.179,95.670 31.167,96.083 31.167 L 96.500 31.167 96.500 29.012 C 96.500 26.904,96.508 26.855,96.875 26.803 L 97.250 26.750 97.250 19.333 L 97.250 11.917 96.875 11.863 C 96.525 11.814,96.500 11.729,96.500 10.575 C 96.500 9.396,96.481 9.335,96.083 9.235 C 95.735 9.148,95.666 9.031,95.665 8.524 C 95.661 7.206,95.486 6.667,95.062 6.667 C 94.734 6.667,94.667 6.581,94.667 6.169 C 94.667 5.751,94.606 5.677,94.292 5.710 C 93.986 5.743,93.908 5.658,93.871 5.250 C 93.782 4.275,93.665 4.000,93.342 4.000 C 93.138 4.000,93.004 3.865,92.970 3.625 C 92.932 3.359,92.786 3.235,92.468 3.198 C 92.122 3.158,92.008 3.045,91.968 2.698 C 91.928 2.350,91.836 2.258,91.552 2.288 C 91.268 2.317,91.177 2.226,91.136 1.871 C 91.088 1.457,91.014 1.412,90.308 1.367 C 89.643 1.324,89.517 1.258,89.429 0.908 C 89.338 0.543,89.239 0.500,88.497 0.500 C 87.870 0.500,87.667 0.439,87.667 0.250 C 87.667 0.034,87.065 0.000,83.250 0.000 C 79.435 0.000,78.833 0.034,78.833 0.250 M83.363 11.375 C 83.397 11.612,83.551 11.769,83.781 11.802 C 84.009 11.834,84.166 11.991,84.198 12.219 C 84.231 12.446,84.388 12.603,84.617 12.635 C 84.933 12.680,84.990 12.807,85.033 13.552 C 85.079 14.334,85.123 14.421,85.500 14.465 L 85.917 14.514 85.896 19.632 C 85.871 25.696,85.908 25.167,85.518 25.167 C 85.064 25.167,85.000 25.468,85.000 27.597 L 85.000 29.500 84.583 29.500 C 84.174 29.500,84.167 29.522,84.167 30.833 C 84.167 32.144,84.160 32.167,83.750 32.167 C 83.343 32.167,83.333 32.196,83.333 33.400 C 83.333 34.624,83.329 34.636,82.829 34.810 C 82.353 34.976,82.327 35.030,82.381 35.743 C 82.427 36.352,82.385 36.500,82.169 36.500 C 81.666 36.500,81.500 36.881,81.500 38.033 C 81.500 39.131,81.487 39.167,81.083 39.167 C 80.689 39.167,80.667 39.216,80.667 40.087 C 80.667 40.985,80.657 41.004,80.249 40.902 C 79.884 40.810,79.819 40.861,79.729 41.315 C 79.660 41.660,79.527 41.833,79.330 41.833 C 78.981 41.833,78.833 42.156,78.833 42.919 C 78.833 43.371,78.762 43.487,78.458 43.530 C 78.132 43.576,78.077 43.696,78.033 44.458 C 77.987 45.262,77.949 45.333,77.575 45.333 C 77.251 45.333,77.167 45.419,77.167 45.750 C 77.167 46.057,77.078 46.167,76.829 46.167 C 76.421 46.167,76.161 46.761,76.252 47.484 C 76.312 47.959,76.278 48.000,75.825 48.000 C 75.412 48.000,75.333 48.066,75.333 48.417 C 75.333 48.750,75.250 48.833,74.917 48.833 C 74.523 48.833,74.500 48.883,74.500 49.753 C 74.500 50.642,74.486 50.670,74.099 50.572 C 73.683 50.468,73.351 50.957,73.582 51.332 C 73.644 51.431,73.477 51.500,73.177 51.500 C 72.744 51.500,72.667 51.563,72.667 51.917 C 72.667 52.250,72.583 52.333,72.250 52.333 C 71.918 52.333,71.833 52.417,71.833 52.747 C 71.833 53.049,71.721 53.188,71.417 53.265 C 71.043 53.359,71.000 53.454,71.000 54.185 C 71.000 54.983,70.989 55.000,70.490 55.000 C 70.210 55.000,70.022 55.068,70.074 55.152 C 70.254 55.442,69.962 55.833,69.566 55.833 C 69.254 55.833,69.167 55.922,69.167 56.238 C 69.167 56.532,69.063 56.658,68.792 56.697 C 68.523 56.735,68.402 56.880,68.364 57.208 C 68.323 57.567,68.224 57.667,67.909 57.667 C 67.621 57.667,67.477 57.783,67.404 58.074 C 67.342 58.322,67.161 58.501,66.943 58.532 C 66.723 58.563,66.563 58.723,66.532 58.943 C 66.501 59.161,66.322 59.342,66.074 59.404 C 65.779 59.478,65.667 59.620,65.667 59.920 C 65.667 60.250,65.582 60.333,65.250 60.333 C 64.917 60.333,64.833 60.417,64.833 60.750 C 64.833 61.078,64.749 61.167,64.435 61.167 C 64.154 61.167,64.007 61.284,63.937 61.563 C 63.882 61.782,63.687 61.999,63.504 62.047 C 63.321 62.095,63.097 62.329,63.006 62.567 C 62.904 62.836,62.714 63.000,62.504 63.000 C 62.255 63.000,62.167 63.109,62.167 63.417 C 62.167 63.750,62.083 63.833,61.750 63.833 C 61.417 63.833,61.333 63.917,61.333 64.250 C 61.333 64.582,61.250 64.667,60.920 64.667 C 60.618 64.667,60.478 64.779,60.402 65.083 C 60.344 65.312,60.198 65.500,60.077 65.500 C 59.956 65.500,59.747 65.611,59.611 65.746 C 59.395 65.962,59.355 65.962,59.271 65.746 C 59.220 65.611,59.062 65.500,58.922 65.500 C 58.718 65.500,58.667 65.273,58.667 64.367 C 58.667 63.195,58.501 62.833,57.967 62.833 C 57.705 62.833,57.667 62.677,57.667 61.601 C 57.667 60.426,57.647 60.365,57.250 60.265 C 56.852 60.165,56.833 60.104,56.833 58.913 C 56.833 57.700,56.822 57.667,56.424 57.667 C 56.028 57.667,56.012 57.623,55.965 56.375 C 55.918 55.109,55.908 55.082,55.465 55.031 C 55.023 54.980,55.013 54.953,54.965 53.698 C 54.920 52.513,54.888 52.413,54.542 52.363 C 54.212 52.317,54.167 52.213,54.167 51.506 C 54.167 50.788,54.122 50.692,53.750 50.598 C 53.375 50.504,53.333 50.410,53.333 49.663 C 53.333 48.894,53.304 48.833,52.925 48.833 C 52.551 48.833,52.513 48.762,52.467 47.958 C 52.420 47.150,52.385 47.083,52.000 47.083 C 51.615 47.083,51.580 47.017,51.533 46.208 C 51.487 45.405,51.449 45.333,51.075 45.333 C 50.691 45.333,50.667 45.279,50.667 44.409 C 50.667 43.767,50.603 43.494,50.458 43.512 C 49.944 43.579,49.849 43.463,49.801 42.708 C 49.755 41.990,49.709 41.912,49.307 41.865 C 48.637 41.788,48.508 40.042,49.167 39.965 C 49.439 39.933,49.600 39.798,49.632 39.576 C 49.661 39.375,49.885 39.157,50.174 39.048 C 50.445 38.946,50.667 38.748,50.667 38.609 C 50.667 38.470,50.835 38.333,51.042 38.303 C 51.308 38.265,51.432 38.120,51.468 37.802 C 51.508 37.455,51.622 37.342,51.968 37.302 C 52.286 37.265,52.432 37.141,52.470 36.875 C 52.508 36.604,52.635 36.500,52.928 36.500 C 53.249 36.500,53.333 36.413,53.333 36.083 C 53.333 35.750,53.417 35.667,53.750 35.667 C 54.102 35.667,54.167 35.589,54.167 35.167 C 54.167 34.679,54.186 34.667,54.988 34.667 C 55.714 34.667,55.816 34.623,55.863 34.292 C 55.898 34.051,56.051 33.898,56.291 33.863 C 56.522 33.831,56.704 33.658,56.765 33.415 C 56.825 33.178,57.009 32.999,57.224 32.968 C 57.449 32.936,57.603 32.777,57.637 32.542 C 57.668 32.318,57.806 32.167,57.978 32.167 C 58.348 32.167,58.667 31.848,58.667 31.478 C 58.667 31.306,58.818 31.168,59.042 31.137 C 59.283 31.102,59.436 30.949,59.470 30.708 C 59.508 30.437,59.635 30.333,59.928 30.333 C 60.249 30.333,60.333 30.247,60.333 29.917 C 60.333 29.583,60.417 29.500,60.750 29.500 C 61.102 29.500,61.167 29.422,61.167 29.000 C 61.167 28.556,61.222 28.500,61.667 28.500 C 62.089 28.500,62.167 28.435,62.167 28.083 C 62.167 27.750,62.250 27.667,62.583 27.667 C 62.917 27.667,63.000 27.583,63.000 27.250 C 63.000 26.917,63.083 26.833,63.417 26.833 C 63.747 26.833,63.833 26.749,63.833 26.428 C 63.833 26.109,63.932 26.011,64.292 25.969 C 64.649 25.928,64.761 25.818,64.802 25.467 C 64.849 25.059,64.925 25.013,65.635 24.967 C 66.293 24.925,66.425 24.859,66.469 24.552 C 66.501 24.325,66.658 24.168,66.885 24.135 C 67.111 24.103,67.270 23.946,67.301 23.724 C 67.332 23.505,67.512 23.325,67.760 23.262 C 68.008 23.200,68.167 23.040,68.167 22.851 C 68.167 22.641,68.327 22.510,68.667 22.442 C 69.064 22.362,69.167 22.255,69.167 21.921 C 69.167 21.583,69.249 21.500,69.583 21.500 C 69.917 21.500,70.000 21.417,70.000 21.083 C 70.000 20.751,70.084 20.667,70.413 20.667 C 70.713 20.667,70.855 20.554,70.929 20.260 C 70.991 20.012,71.172 19.832,71.391 19.801 C 71.643 19.765,71.766 19.613,71.803 19.292 C 71.844 18.932,71.942 18.833,72.261 18.833 C 72.583 18.833,72.667 18.747,72.667 18.417 C 72.667 18.083,72.750 18.000,73.083 18.000 C 73.417 18.000,73.500 17.917,73.500 17.583 C 73.500 17.231,73.578 17.167,74.000 17.167 C 74.413 17.167,74.500 17.099,74.500 16.778 C 74.500 16.447,74.617 16.367,75.292 16.236 C 75.929 16.113,76.094 16.010,76.137 15.708 C 76.175 15.438,76.302 15.333,76.592 15.333 C 76.881 15.333,77.023 15.217,77.098 14.917 C 77.173 14.618,77.315 14.500,77.601 14.500 C 77.915 14.500,78.000 14.412,78.000 14.083 C 78.000 13.750,78.083 13.667,78.417 13.667 C 78.750 13.667,78.833 13.583,78.833 13.250 C 78.833 12.876,78.901 12.833,79.488 12.833 C 80.153 12.833,80.667 12.505,80.667 12.081 C 80.667 11.926,80.923 11.835,81.458 11.801 C 82.134 11.757,82.258 11.695,82.303 11.375 C 82.344 11.086,82.466 11.000,82.833 11.000 C 83.201 11.000,83.322 11.086,83.363 11.375 M198.958 15.452 C 198.782 15.496,198.667 15.682,198.667 15.923 C 198.667 16.314,198.636 16.323,196.958 16.369 C 195.342 16.414,195.247 16.436,195.198 16.783 C 195.153 17.099,195.026 17.157,194.281 17.200 C 193.530 17.243,193.410 17.299,193.363 17.625 C 193.316 17.956,193.214 18.000,192.488 18.000 C 191.683 18.000,191.667 18.010,191.667 18.510 C 191.667 18.808,191.597 18.977,191.500 18.916 C 191.037 18.631,189.806 19.033,189.907 19.438 C 189.995 19.789,189.950 19.833,189.503 19.833 C 189.081 19.833,189.000 19.899,189.000 20.241 C 189.000 20.609,188.923 20.653,188.208 20.699 C 187.542 20.742,187.409 20.807,187.365 21.112 C 187.333 21.339,187.130 21.538,186.823 21.645 C 186.503 21.757,186.333 21.931,186.333 22.146 C 186.333 22.362,186.203 22.495,185.958 22.530 C 185.721 22.564,185.564 22.717,185.531 22.948 C 185.499 23.175,185.342 23.333,185.116 23.365 C 184.917 23.393,184.739 23.529,184.721 23.667 C 184.549 25.002,184.484 25.160,184.123 25.122 C 183.836 25.092,183.758 25.172,183.754 25.500 C 183.751 25.829,183.654 25.928,183.292 25.969 C 182.936 26.010,182.833 26.110,182.833 26.416 C 182.833 26.698,182.726 26.825,182.458 26.863 C 182.132 26.910,182.077 27.029,182.033 27.792 C 181.987 28.588,181.947 28.667,181.586 28.667 C 181.157 28.667,180.912 29.121,181.068 29.625 C 181.174 29.965,181.046 30.178,180.583 30.434 C 180.307 30.587,180.242 30.821,180.201 31.809 C 180.154 32.949,180.135 33.000,179.743 33.000 C 179.334 33.000,179.333 33.003,179.333 34.738 C 179.333 36.414,179.320 36.479,178.958 36.530 L 178.583 36.583 178.540 42.621 L 178.496 48.659 178.909 48.763 C 179.311 48.864,179.323 48.914,179.369 50.558 C 179.414 52.169,179.435 52.253,179.792 52.303 C 180.139 52.353,180.167 52.441,180.167 53.506 C 180.167 54.528,180.208 54.677,180.542 54.852 C 181.032 55.111,181.180 55.350,181.068 55.708 C 180.910 56.217,181.157 56.667,181.595 56.667 C 181.970 56.667,182.000 56.729,182.000 57.497 C 182.000 58.243,182.042 58.338,182.417 58.432 C 182.716 58.507,182.833 58.649,182.833 58.935 C 182.833 59.267,182.917 59.333,183.337 59.333 C 183.782 59.333,183.831 59.381,183.764 59.750 C 183.701 60.100,183.753 60.167,184.091 60.167 C 184.508 60.167,184.609 60.372,184.704 61.417 C 184.738 61.786,184.845 61.930,185.115 61.969 C 185.342 62.001,185.499 62.158,185.531 62.385 C 185.564 62.612,185.721 62.770,185.948 62.802 C 186.175 62.834,186.332 62.991,186.365 63.219 C 186.407 63.516,186.577 63.612,187.292 63.739 C 188.051 63.874,188.167 63.945,188.167 64.280 C 188.167 64.581,188.259 64.667,188.583 64.667 C 188.917 64.667,189.000 64.750,189.000 65.083 C 189.000 65.416,189.084 65.500,189.413 65.500 C 189.716 65.500,189.855 65.612,189.932 65.917 C 190.025 66.290,190.121 66.333,190.851 66.333 C 191.600 66.333,191.667 66.366,191.667 66.732 C 191.667 67.193,191.939 67.333,192.835 67.333 C 193.374 67.333,193.485 67.394,193.530 67.708 C 193.579 68.052,193.683 68.087,194.781 68.132 C 195.872 68.176,195.983 68.214,196.031 68.549 C 196.082 68.904,196.158 68.918,198.292 68.963 L 200.500 69.010 200.500 69.424 L 200.500 69.838 205.708 69.794 L 210.917 69.750 210.969 69.380 C 211.020 69.023,211.095 69.008,213.136 68.963 C 215.185 68.918,215.252 68.905,215.303 68.542 C 215.352 68.198,215.444 68.167,216.415 68.167 C 217.688 68.167,218.000 68.065,218.000 67.649 C 218.000 67.393,218.123 67.333,218.653 67.333 C 219.561 67.333,219.833 67.195,219.833 66.732 C 219.833 66.365,219.899 66.333,220.667 66.333 C 221.444 66.333,221.500 66.306,221.500 65.917 C 221.500 65.565,221.578 65.500,222.000 65.500 C 222.422 65.500,222.500 65.435,222.500 65.083 C 222.500 64.713,222.570 64.666,223.125 64.664 C 223.868 64.661,224.107 64.531,224.191 64.083 C 224.226 63.897,224.410 63.728,224.608 63.699 C 225.089 63.630,225.167 63.134,225.167 60.146 L 225.167 57.667 224.667 57.667 C 224.221 57.667,224.167 57.612,224.167 57.159 C 224.167 56.850,224.085 56.663,223.958 56.679 C 223.476 56.742,223.333 56.644,223.333 56.250 L 223.333 55.833 220.761 55.833 C 218.118 55.833,217.654 55.972,218.068 56.642 C 218.117 56.721,217.878 56.762,217.537 56.733 C 216.643 56.656,216.333 56.792,216.333 57.261 C 216.333 57.635,216.271 57.667,215.518 57.667 C 214.787 57.667,214.692 57.710,214.598 58.083 C 214.504 58.458,214.410 58.500,213.663 58.500 C 212.893 58.500,212.833 58.529,212.833 58.910 C 212.833 59.305,212.789 59.321,211.542 59.368 C 210.300 59.415,210.248 59.433,210.201 59.837 L 210.152 60.258 206.167 60.258 L 202.182 60.258 202.132 59.837 C 202.085 59.433,202.034 59.415,200.792 59.368 C 199.544 59.321,199.500 59.305,199.500 58.910 C 199.500 58.530,199.440 58.500,198.678 58.500 C 197.953 58.500,197.850 58.456,197.803 58.125 C 197.757 57.798,197.637 57.744,196.875 57.700 C 196.030 57.651,196.000 57.633,196.000 57.160 C 196.000 56.752,195.938 56.677,195.625 56.710 C 195.328 56.742,195.239 56.655,195.197 56.292 C 195.156 55.936,195.056 55.833,194.751 55.833 C 194.469 55.833,194.341 55.726,194.303 55.458 C 194.265 55.190,194.120 55.068,193.792 55.031 C 193.432 54.989,193.333 54.891,193.333 54.572 C 193.333 54.251,193.247 54.167,192.917 54.167 C 192.523 54.167,192.500 54.117,192.500 53.250 C 192.500 52.383,192.477 52.333,192.083 52.333 C 191.694 52.333,191.667 52.278,191.667 51.496 C 191.667 50.699,191.643 50.654,191.167 50.558 L 190.667 50.458 190.667 48.826 C 190.667 47.677,190.605 47.170,190.458 47.110 C 190.344 47.064,198.667 47.020,208.955 47.013 L 227.660 47.000 227.765 46.583 C 227.840 46.284,227.982 46.167,228.268 46.167 C 228.577 46.167,228.667 46.077,228.667 45.768 C 228.667 45.481,228.784 45.340,229.086 45.264 L 229.504 45.159 229.461 39.538 L 229.417 33.917 229.042 33.863 C 228.691 33.814,228.667 33.729,228.667 32.575 C 228.667 31.396,228.648 31.335,228.250 31.235 C 227.901 31.148,227.833 31.031,227.831 30.524 C 227.828 29.206,227.652 28.667,227.228 28.667 C 226.903 28.667,226.833 28.581,226.833 28.181 C 226.833 27.763,226.776 27.702,226.417 27.742 C 226.018 27.785,226.000 27.748,226.000 26.894 C 226.000 26.064,225.971 26.000,225.605 26.000 C 225.257 26.000,225.197 25.901,225.099 25.168 C 225.006 24.467,224.925 24.321,224.578 24.234 C 224.284 24.160,224.167 24.017,224.167 23.732 C 224.167 23.418,224.078 23.333,223.750 23.333 C 223.417 23.333,223.333 23.250,223.333 22.917 C 223.333 22.586,223.249 22.500,222.928 22.500 C 222.609 22.500,222.511 22.402,222.469 22.042 C 222.432 21.714,222.310 21.568,222.042 21.530 C 221.808 21.497,221.629 21.325,221.566 21.072 C 221.494 20.788,221.348 20.667,221.077 20.667 C 220.802 20.667,220.674 20.558,220.637 20.292 C 220.591 19.972,220.467 19.909,219.792 19.866 C 219.124 19.823,219.000 19.762,219.000 19.476 C 219.000 19.253,218.830 19.073,218.500 18.949 C 218.219 18.843,218.000 18.638,218.000 18.481 C 218.000 18.149,217.669 18.000,216.930 18.000 C 216.512 18.000,216.343 17.904,216.197 17.583 C 216.021 17.196,215.923 17.167,214.837 17.167 C 213.700 17.167,213.667 17.155,213.667 16.750 L 213.667 16.333 211.917 16.333 C 210.174 16.333,210.167 16.332,210.167 15.928 C 210.167 15.684,210.050 15.490,209.875 15.440 C 209.519 15.340,199.367 15.351,198.958 15.452 M257.125 15.455 C 256.947 15.497,256.833 15.681,256.833 15.929 C 256.833 16.331,256.825 16.333,255.083 16.333 L 253.333 16.333 253.333 16.750 C 253.333 17.144,253.283 17.167,252.419 17.167 C 251.569 17.167,251.507 17.194,251.544 17.542 C 251.580 17.883,251.504 17.921,250.708 17.967 C 249.857 18.016,249.833 18.031,249.833 18.520 C 249.833 18.943,249.782 19.006,249.507 18.919 C 248.856 18.712,248.000 19.001,248.000 19.426 C 248.000 19.772,247.912 19.821,247.208 19.866 C 246.533 19.909,246.409 19.972,246.363 20.292 C 246.325 20.562,246.198 20.667,245.908 20.667 C 245.621 20.667,245.477 20.783,245.404 21.074 C 245.342 21.322,245.161 21.501,244.943 21.532 C 244.691 21.568,244.568 21.720,244.531 22.042 C 244.489 22.402,244.391 22.500,244.072 22.500 C 243.751 22.500,243.667 22.586,243.667 22.917 C 243.667 23.245,243.582 23.333,243.268 23.333 C 242.994 23.333,242.840 23.450,242.775 23.708 C 242.723 23.915,242.509 24.158,242.299 24.250 C 241.990 24.385,241.907 24.569,241.866 25.208 C 241.820 25.923,241.775 26.000,241.408 26.000 C 241.087 26.000,241.000 26.087,241.000 26.405 C 241.000 26.698,240.896 26.825,240.625 26.863 C 240.299 26.910,240.243 27.030,240.200 27.781 C 240.154 28.582,240.117 28.650,239.700 28.698 C 239.280 28.747,239.251 28.802,239.260 29.542 C 239.269 30.163,239.213 30.333,239.002 30.333 C 238.500 30.333,238.333 30.715,238.333 31.867 C 238.333 32.964,238.320 33.000,237.917 33.000 L 237.500 33.000 237.500 35.253 L 237.500 37.506 237.083 37.402 C 236.854 37.344,236.660 37.362,236.651 37.440 C 236.555 38.333,236.605 47.491,236.708 47.708 C 236.783 47.869,236.992 48.000,237.173 48.000 C 237.481 48.000,237.500 48.124,237.500 50.080 C 237.500 52.149,237.502 52.161,237.909 52.263 C 238.267 52.353,238.323 52.471,238.367 53.223 C 238.411 53.988,238.462 54.091,238.834 54.166 C 239.215 54.243,239.249 54.321,239.232 55.083 C 239.202 56.356,239.308 56.667,239.768 56.667 C 240.100 56.667,240.167 56.750,240.167 57.167 C 240.167 57.589,240.231 57.667,240.583 57.667 C 240.972 57.667,241.000 57.722,241.000 58.500 C 241.000 59.278,241.028 59.333,241.417 59.333 C 241.747 59.333,241.833 59.417,241.833 59.739 C 241.833 60.056,241.932 60.156,242.285 60.197 C 242.681 60.244,242.741 60.330,242.777 60.901 C 242.833 61.792,242.935 62.000,243.317 62.000 C 243.529 62.000,243.662 62.132,243.697 62.375 C 243.730 62.612,243.884 62.769,244.115 62.802 C 244.342 62.834,244.499 62.991,244.531 63.219 C 244.564 63.447,244.721 63.603,244.950 63.636 C 245.154 63.664,245.368 63.851,245.431 64.052 C 245.584 64.541,245.801 64.661,246.542 64.664 C 247.097 64.666,247.167 64.713,247.167 65.083 C 247.167 65.413,247.251 65.500,247.572 65.500 C 247.865 65.500,247.992 65.604,248.030 65.875 C 248.076 66.201,248.196 66.257,248.948 66.300 C 249.749 66.346,249.817 66.383,249.865 66.800 C 249.912 67.208,249.988 67.255,250.692 67.300 C 251.357 67.343,251.483 67.409,251.571 67.758 C 251.668 68.146,251.737 68.167,252.908 68.167 C 254.062 68.167,254.147 68.191,254.197 68.542 C 254.247 68.899,254.330 68.919,255.957 68.964 C 257.614 69.010,257.666 69.023,257.766 69.422 L 257.869 69.833 263.006 69.833 L 268.143 69.833 268.197 69.458 C 268.248 69.099,268.327 69.081,270.042 69.036 C 271.822 68.989,271.833 68.986,271.833 68.578 C 271.833 68.177,271.866 68.167,273.080 68.167 C 274.271 68.167,274.332 68.148,274.432 67.750 C 274.517 67.411,274.638 67.333,275.088 67.333 C 275.893 67.333,276.167 67.181,276.167 66.732 C 276.167 66.365,276.232 66.333,276.997 66.333 C 277.743 66.333,277.838 66.291,277.932 65.917 C 278.007 65.618,278.149 65.500,278.435 65.500 C 278.749 65.500,278.833 65.412,278.833 65.083 C 278.833 64.750,278.917 64.667,279.250 64.667 C 279.575 64.667,279.667 64.581,279.667 64.280 C 279.667 63.945,279.783 63.874,280.542 63.739 C 281.256 63.612,281.426 63.516,281.469 63.219 C 281.501 62.991,281.658 62.834,281.885 62.802 C 282.192 62.758,282.258 62.627,282.300 61.969 C 282.346 61.259,282.392 61.182,282.800 61.135 C 283.151 61.095,283.262 60.983,283.303 60.625 C 283.344 60.265,283.442 60.167,283.761 60.167 C 284.080 60.167,284.167 60.080,284.167 59.762 C 284.167 59.468,284.270 59.342,284.542 59.303 C 284.862 59.258,284.924 59.134,284.967 58.458 C 285.013 57.744,285.058 57.667,285.426 57.667 C 285.808 57.667,285.833 57.611,285.833 56.761 C 285.833 55.897,285.854 55.853,286.292 55.803 C 286.710 55.755,286.754 55.682,286.800 54.974 C 286.843 54.310,286.909 54.184,287.258 54.096 C 287.646 53.999,287.667 53.930,287.667 52.758 C 287.667 51.604,287.691 51.520,288.042 51.470 C 288.406 51.418,288.418 51.355,288.463 49.219 C 288.508 47.105,288.523 47.020,288.873 46.969 C 289.408 46.892,289.465 46.471,289.483 42.472 C 289.502 38.503,289.478 38.333,288.899 38.333 L 288.500 38.333 288.500 36.083 L 288.500 33.833 288.090 33.833 C 287.695 33.833,287.679 33.789,287.632 32.542 C 287.586 31.323,287.562 31.251,287.208 31.263 C 286.871 31.275,286.833 31.198,286.833 30.492 C 286.833 29.137,286.678 28.667,286.229 28.667 C 285.903 28.667,285.833 28.581,285.833 28.181 C 285.833 27.763,285.776 27.702,285.417 27.742 C 285.018 27.785,285.000 27.748,285.000 26.894 C 285.000 26.058,284.974 26.000,284.594 26.000 C 284.276 26.000,284.177 25.902,284.136 25.542 C 284.096 25.192,284.002 25.092,283.738 25.118 C 283.444 25.147,283.368 25.021,283.238 24.285 C 283.112 23.577,283.016 23.407,282.719 23.365 C 282.491 23.332,282.334 23.175,282.302 22.948 C 282.269 22.717,282.112 22.564,281.875 22.530 C 281.632 22.496,281.500 22.362,281.500 22.151 C 281.500 21.956,281.331 21.761,281.080 21.666 C 280.850 21.578,280.589 21.317,280.501 21.086 C 280.363 20.723,280.240 20.667,279.587 20.667 C 278.894 20.667,278.833 20.633,278.833 20.250 C 278.833 19.917,278.750 19.833,278.417 19.833 C 278.089 19.833,278.000 19.749,278.000 19.436 C 278.000 19.030,276.770 18.647,276.334 18.916 C 276.236 18.977,276.167 18.808,276.167 18.510 C 276.167 18.010,276.150 18.000,275.345 18.000 C 274.620 18.000,274.517 17.956,274.470 17.625 C 274.424 17.299,274.304 17.243,273.552 17.200 C 272.807 17.157,272.680 17.099,272.635 16.783 C 272.586 16.437,272.491 16.414,270.886 16.369 C 269.294 16.325,269.185 16.300,269.136 15.964 C 269.103 15.738,268.917 15.561,268.631 15.486 C 268.160 15.360,257.637 15.332,257.125 15.455 M368.333 15.489 C 368.077 15.555,367.896 15.737,367.864 15.959 C 367.815 16.301,367.713 16.325,366.114 16.369 C 364.497 16.414,364.414 16.434,364.363 16.792 C 364.318 17.112,364.208 17.167,363.613 17.169 C 362.783 17.172,362.414 17.369,362.554 17.733 C 362.640 17.958,362.512 18.000,361.745 18.000 C 360.839 18.000,360.833 18.003,360.833 18.510 C 360.833 18.808,360.764 18.977,360.666 18.916 C 360.204 18.631,358.972 19.033,359.074 19.438 C 359.162 19.789,359.116 19.833,358.670 19.833 C 358.247 19.833,358.167 19.899,358.167 20.241 C 358.167 20.609,358.090 20.653,357.375 20.699 C 356.708 20.742,356.575 20.807,356.532 21.112 C 356.500 21.339,356.297 21.538,355.990 21.645 C 355.670 21.757,355.500 21.931,355.500 22.146 C 355.500 22.362,355.370 22.495,355.125 22.530 C 354.888 22.564,354.731 22.717,354.698 22.948 C 354.666 23.175,354.509 23.332,354.282 23.365 C 353.983 23.407,353.894 23.572,353.781 24.288 C 353.661 25.043,353.595 25.153,353.284 25.121 C 353.004 25.092,352.925 25.174,352.921 25.500 C 352.918 25.829,352.821 25.928,352.458 25.969 C 352.023 26.020,352.000 26.066,352.000 26.905 C 352.000 27.747,351.981 27.785,351.583 27.742 C 351.224 27.702,351.167 27.763,351.167 28.181 C 351.167 28.588,351.099 28.667,350.750 28.667 C 350.296 28.667,350.288 28.695,350.264 30.330 C 350.251 31.188,350.225 31.243,349.833 31.246 C 349.429 31.250,349.415 31.289,349.368 32.542 C 349.321 33.789,349.305 33.833,348.910 33.833 L 348.500 33.833 348.500 36.083 L 348.500 38.333 348.083 38.333 L 347.667 38.333 347.667 42.667 L 347.667 47.000 348.078 47.000 L 348.490 47.000 348.537 49.208 C 348.582 51.355,348.594 51.418,348.958 51.470 C 349.309 51.520,349.333 51.604,349.333 52.766 C 349.333 53.988,349.341 54.010,349.792 54.100 C 350.213 54.184,350.250 54.254,350.250 54.971 C 350.250 55.693,350.283 55.754,350.700 55.802 C 351.117 55.850,351.154 55.918,351.200 56.719 C 351.243 57.464,351.301 57.591,351.616 57.635 C 351.925 57.679,351.990 57.810,352.033 58.467 C 352.073 59.093,352.149 59.259,352.417 59.309 C 352.809 59.383,353.028 59.665,352.920 59.958 C 352.873 60.087,352.992 60.167,353.234 60.167 C 353.535 60.167,353.648 60.282,353.725 60.667 C 353.804 61.060,353.913 61.167,354.237 61.167 C 354.610 61.167,354.653 61.241,354.699 61.958 C 354.742 62.627,354.807 62.758,355.115 62.802 C 355.342 62.834,355.499 62.991,355.531 63.219 C 355.574 63.516,355.744 63.612,356.458 63.739 C 357.217 63.874,357.333 63.945,357.333 64.280 C 357.333 64.581,357.425 64.667,357.750 64.667 C 358.083 64.667,358.167 64.750,358.167 65.083 C 358.167 65.412,358.251 65.500,358.565 65.500 C 358.851 65.500,358.993 65.618,359.068 65.917 C 359.162 66.291,359.257 66.333,360.003 66.333 C 360.768 66.333,360.833 66.365,360.833 66.732 C 360.833 67.183,361.107 67.333,361.927 67.333 C 362.392 67.333,362.512 67.408,362.598 67.750 C 362.698 68.149,362.756 68.167,363.990 68.167 C 365.217 68.167,365.276 68.184,365.263 68.542 C 365.250 68.905,365.304 68.918,367.042 68.964 C 368.822 69.011,368.833 69.014,368.833 69.422 L 368.833 69.833 373.982 69.833 L 379.131 69.833 379.235 69.417 C 379.338 69.005,379.362 69.000,381.087 69.000 L 382.833 69.000 382.833 68.583 C 382.833 68.176,382.861 68.167,384.080 68.167 C 385.264 68.167,385.332 68.146,385.429 67.758 C 385.517 67.409,385.643 67.343,386.308 67.300 C 387.012 67.255,387.088 67.208,387.135 66.800 C 387.183 66.383,387.251 66.346,388.052 66.300 C 388.804 66.257,388.924 66.201,388.970 65.875 C 389.008 65.604,389.135 65.500,389.428 65.500 C 389.749 65.500,389.833 65.413,389.833 65.083 C 389.833 64.710,389.901 64.667,390.488 64.667 C 391.152 64.667,391.667 64.339,391.667 63.916 C 391.667 63.792,391.835 63.666,392.042 63.637 C 392.279 63.603,392.436 63.449,392.469 63.219 C 392.501 62.991,392.658 62.834,392.885 62.802 C 393.112 62.770,393.270 62.612,393.302 62.385 C 393.334 62.158,393.491 62.001,393.719 61.969 C 394.016 61.926,394.112 61.756,394.239 61.042 C 394.374 60.283,394.445 60.167,394.780 60.167 C 395.081 60.167,395.167 60.075,395.167 59.750 C 395.167 59.417,395.250 59.333,395.583 59.333 C 395.972 59.333,396.000 59.278,396.000 58.500 C 396.000 57.722,396.028 57.667,396.417 57.667 C 396.769 57.667,396.833 57.589,396.833 57.167 C 396.833 56.751,396.900 56.667,397.231 56.667 C 397.698 56.667,397.828 56.319,397.831 55.053 C 397.833 54.286,397.875 54.184,398.208 54.137 C 398.534 54.090,398.590 53.970,398.633 53.224 C 398.677 52.471,398.733 52.353,399.091 52.263 C 399.498 52.161,399.500 52.149,399.500 50.080 C 399.500 48.342,399.541 48.000,399.750 48.000 C 399.967 48.000,400.000 47.306,400.000 42.750 C 400.000 38.194,399.967 37.500,399.750 37.500 C 399.540 37.500,399.500 37.139,399.500 35.250 L 399.500 33.000 399.091 33.000 C 398.698 33.000,398.679 32.950,398.632 31.792 C 398.589 30.731,398.539 30.564,398.216 30.422 C 397.928 30.296,397.838 30.098,397.799 29.505 C 397.755 28.823,397.706 28.745,397.300 28.698 C 396.883 28.650,396.846 28.582,396.800 27.781 C 396.757 27.030,396.701 26.910,396.375 26.863 C 396.104 26.825,396.000 26.698,396.000 26.405 C 396.000 26.087,395.913 26.000,395.592 26.000 C 395.225 26.000,395.180 25.923,395.134 25.208 C 395.094 24.581,395.008 24.383,394.717 24.256 C 394.516 24.168,394.309 23.924,394.256 23.714 C 394.188 23.446,394.039 23.333,393.747 23.333 C 393.417 23.333,393.333 23.249,393.333 22.917 C 393.333 22.586,393.249 22.500,392.928 22.500 C 392.609 22.500,392.511 22.402,392.469 22.042 C 392.432 21.720,392.309 21.568,392.057 21.532 C 391.839 21.501,391.658 21.322,391.596 21.074 C 391.523 20.783,391.379 20.667,391.092 20.667 C 390.802 20.667,390.675 20.562,390.637 20.292 C 390.591 19.972,390.467 19.909,389.792 19.866 C 389.088 19.821,389.000 19.772,389.000 19.426 C 389.000 19.001,388.144 18.712,387.493 18.919 C 387.217 19.006,387.167 18.943,387.167 18.511 C 387.167 18.009,387.152 18.000,386.333 18.000 C 385.556 18.000,385.500 17.972,385.500 17.583 C 385.500 17.189,385.450 17.167,384.583 17.167 C 383.717 17.167,383.667 17.144,383.667 16.750 L 383.667 16.333 381.917 16.333 C 380.176 16.333,380.167 16.331,380.167 15.930 C 380.167 15.623,380.057 15.505,379.708 15.436 C 379.068 15.309,368.843 15.357,368.333 15.489 M127.333 16.750 C 127.333 17.133,127.273 17.167,126.578 17.167 C 125.751 17.167,125.636 17.294,125.603 18.249 C 125.586 18.720,125.511 18.822,125.121 18.901 L 124.659 18.993 124.704 21.955 C 124.749 24.884,124.754 24.917,125.125 24.970 C 125.501 25.023,125.519 25.075,125.564 26.250 C 125.580 26.666,125.661 26.759,126.042 26.803 C 126.495 26.855,126.500 26.868,126.500 28.076 C 126.500 29.240,126.520 29.302,126.917 29.402 C 127.291 29.496,127.333 29.590,127.333 30.337 C 127.333 31.106,127.363 31.167,127.741 31.167 C 128.116 31.167,128.153 31.238,128.200 32.042 C 128.244 32.804,128.298 32.924,128.625 32.970 C 128.912 33.011,129.000 33.133,129.000 33.488 C 129.000 34.780,129.207 35.504,129.606 35.604 C 129.953 35.691,130.000 35.800,130.000 36.518 C 130.000 37.273,130.030 37.333,130.409 37.333 C 130.802 37.333,130.821 37.383,130.868 38.542 C 130.911 39.611,130.960 39.769,131.292 39.915 C 131.673 40.082,131.746 40.278,131.684 40.973 C 131.642 41.453,131.938 41.833,132.354 41.833 C 132.632 41.833,132.667 41.972,132.667 43.083 C 132.667 44.298,132.678 44.333,133.075 44.333 C 133.449 44.333,133.487 44.405,133.533 45.208 C 133.576 45.964,133.633 46.090,133.950 46.135 C 134.266 46.180,134.324 46.307,134.367 47.052 C 134.409 47.789,134.469 47.924,134.773 47.967 C 135.088 48.012,135.143 48.162,135.245 49.259 C 135.355 50.428,135.385 50.500,135.764 50.500 C 136.141 50.500,136.167 50.559,136.167 51.417 C 136.167 52.283,136.189 52.333,136.583 52.333 C 136.988 52.333,137.000 52.366,137.000 53.504 C 137.000 54.590,137.030 54.687,137.417 54.864 C 137.831 55.052,137.861 55.128,137.897 56.083 C 137.913 56.499,137.994 56.592,138.375 56.636 C 138.812 56.686,138.833 56.730,138.833 57.594 C 138.833 58.449,138.857 58.500,139.250 58.500 C 139.657 58.500,139.667 58.528,139.667 59.747 C 139.667 60.938,139.685 60.998,140.083 61.098 C 140.504 61.204,140.542 61.307,140.532 62.292 C 140.528 62.746,140.588 62.833,140.906 62.833 C 141.255 62.833,141.294 62.929,141.396 64.021 C 141.523 65.387,141.570 65.500,142.010 65.500 C 142.244 65.500,142.333 65.615,142.333 65.917 C 142.333 66.247,142.417 66.333,142.739 66.333 C 143.058 66.333,143.156 66.432,143.197 66.792 C 143.235 67.115,143.357 67.265,143.615 67.302 C 143.842 67.334,143.999 67.491,144.031 67.719 C 144.076 68.033,144.204 68.090,144.958 68.134 C 145.764 68.180,145.833 68.217,145.833 68.595 L 145.833 69.007 149.292 68.962 C 152.736 68.917,152.750 68.915,152.803 68.542 C 152.849 68.216,152.956 68.167,153.604 68.167 C 154.280 68.167,154.367 68.121,154.522 67.677 C 154.628 67.370,154.828 67.167,155.055 67.135 C 155.279 67.103,155.436 66.945,155.469 66.719 C 155.501 66.491,155.658 66.334,155.885 66.302 C 156.192 66.258,156.258 66.127,156.300 65.474 C 156.342 64.822,156.412 64.683,156.737 64.601 C 157.165 64.494,157.333 63.966,157.333 62.729 C 157.333 62.063,157.369 62.000,157.750 62.000 C 158.144 62.000,158.167 61.950,158.167 61.083 C 158.167 60.217,158.189 60.167,158.583 60.167 C 158.990 60.167,159.000 60.138,159.000 58.928 C 159.000 57.771,159.025 57.686,159.375 57.637 C 159.702 57.590,159.756 57.471,159.800 56.708 C 159.846 55.916,159.888 55.833,160.241 55.833 C 160.734 55.833,160.833 55.566,160.833 54.236 C 160.833 53.206,160.849 53.167,161.250 53.167 C 161.638 53.167,161.667 53.110,161.667 52.345 C 161.667 51.620,161.711 51.517,162.042 51.470 C 162.368 51.424,162.423 51.304,162.467 50.552 C 162.509 49.813,162.569 49.680,162.877 49.635 C 163.300 49.574,163.460 49.111,163.483 47.875 C 163.499 47.057,163.527 47.000,163.917 47.000 C 164.304 47.000,164.333 46.943,164.333 46.193 C 164.333 45.495,164.389 45.361,164.750 45.197 C 165.137 45.021,165.167 44.923,165.167 43.837 C 165.167 42.700,165.178 42.667,165.583 42.667 C 165.977 42.667,166.000 42.616,166.000 41.761 C 166.000 40.897,166.021 40.853,166.458 40.803 C 166.906 40.751,166.918 40.721,166.965 39.552 C 167.010 38.462,167.047 38.350,167.382 38.302 C 167.700 38.257,167.757 38.132,167.800 37.385 C 167.843 36.640,167.901 36.514,168.217 36.469 C 168.533 36.424,168.590 36.298,168.634 35.542 C 168.679 34.752,168.722 34.667,169.070 34.667 C 169.485 34.667,169.661 34.117,169.665 32.803 C 169.666 32.295,169.731 32.181,170.042 32.137 C 170.368 32.090,170.423 31.970,170.467 31.219 C 170.510 30.474,170.567 30.347,170.883 30.302 C 171.220 30.254,171.254 30.145,171.299 28.958 C 171.346 27.711,171.361 27.667,171.757 27.667 C 172.135 27.667,172.167 27.605,172.167 26.870 C 172.167 26.138,172.207 26.058,172.667 25.884 C 173.156 25.700,173.167 25.671,173.167 24.541 C 173.167 23.472,173.197 23.373,173.583 23.197 C 174.229 22.903,174.237 19.833,173.592 19.833 C 173.217 19.833,173.180 19.762,173.134 18.958 C 173.087 18.142,173.052 18.080,172.625 18.031 C 172.265 17.989,172.167 17.891,172.167 17.572 C 172.167 17.251,172.080 17.167,171.750 17.167 C 171.417 17.167,171.333 17.083,171.333 16.750 L 171.333 16.333 168.243 16.333 C 165.867 16.333,165.158 16.382,165.179 16.542 C 165.246 17.056,165.129 17.151,164.375 17.199 L 163.583 17.250 163.533 18.028 C 163.488 18.726,163.430 18.825,162.980 18.982 C 162.568 19.126,162.484 19.240,162.514 19.620 C 162.575 20.403,162.514 20.582,162.125 20.752 C 161.793 20.898,161.744 21.056,161.701 22.125 C 161.654 23.284,161.635 23.333,161.243 23.333 C 160.858 23.333,160.833 23.388,160.833 24.250 C 160.833 25.117,160.811 25.167,160.417 25.167 C 159.982 25.167,159.957 25.281,159.932 27.443 C 159.928 27.723,159.834 27.797,159.505 27.776 C 159.123 27.752,159.081 27.813,159.062 28.417 C 159.028 29.457,159.022 29.474,158.625 29.530 C 158.278 29.579,158.246 29.680,158.201 30.875 C 158.154 32.123,158.139 32.167,157.743 32.167 C 157.364 32.167,157.333 32.227,157.333 32.982 C 157.333 33.713,157.290 33.808,156.917 33.902 C 156.500 34.006,156.471 34.082,156.413 35.250 C 156.354 36.421,156.334 36.477,155.958 36.530 C 155.611 36.579,155.580 36.680,155.535 37.875 C 155.488 39.123,155.472 39.167,155.076 39.167 C 154.697 39.167,154.667 39.227,154.667 39.982 C 154.667 40.705,154.621 40.809,154.263 40.898 C 153.855 41.001,153.471 42.750,153.717 43.390 C 153.779 43.552,153.674 43.614,153.361 43.601 C 152.934 43.584,152.917 43.617,152.917 44.458 C 152.917 45.302,152.900 45.333,152.458 45.333 L 152.000 45.333 152.000 46.667 C 152.000 47.978,151.993 48.000,151.583 48.000 C 151.196 48.000,151.167 48.057,151.167 48.815 C 151.167 49.546,151.123 49.641,150.750 49.735 C 150.310 49.846,150.290 49.916,150.264 51.417 C 150.251 52.198,150.221 52.253,149.792 52.303 C 149.392 52.349,149.333 52.428,149.333 52.924 C 149.333 53.910,148.533 53.382,148.467 52.352 C 148.421 51.652,148.376 51.579,147.958 51.531 C 147.501 51.478,147.500 51.474,147.500 50.156 C 147.500 48.864,147.491 48.833,147.092 48.833 C 146.717 48.833,146.680 48.762,146.634 47.958 C 146.588 47.168,146.548 47.087,146.215 47.122 C 145.868 47.158,145.845 47.089,145.799 45.872 C 145.754 44.689,145.720 44.579,145.383 44.531 C 145.067 44.486,145.010 44.360,144.967 43.615 C 144.920 42.813,144.884 42.746,144.465 42.698 C 144.023 42.647,144.013 42.620,143.965 41.365 C 143.920 40.180,143.888 40.079,143.542 40.030 C 143.211 39.983,143.167 39.880,143.167 39.155 C 143.167 38.393,143.137 38.333,142.757 38.333 C 142.361 38.333,142.346 38.289,142.299 37.042 C 142.251 35.775,142.241 35.749,141.798 35.698 C 141.356 35.647,141.346 35.620,141.298 34.365 C 141.254 33.189,141.220 33.079,140.883 33.031 C 140.567 32.986,140.510 32.860,140.467 32.115 C 140.423 31.363,140.368 31.243,140.042 31.197 C 139.702 31.148,139.667 31.053,139.667 30.169 C 139.667 28.985,139.559 28.667,139.158 28.667 C 138.905 28.667,138.842 28.512,138.800 27.792 C 138.753 26.976,138.719 26.913,138.292 26.864 C 137.838 26.812,137.833 26.800,137.833 25.575 C 137.833 24.396,137.814 24.335,137.417 24.235 C 137.043 24.141,137.000 24.046,137.000 23.315 C 137.000 22.560,136.970 22.500,136.590 22.500 C 136.195 22.500,136.179 22.456,136.132 21.208 C 136.084 19.937,136.076 19.916,135.625 19.864 C 135.188 19.814,135.167 19.770,135.167 18.906 C 135.167 18.051,135.143 18.000,134.750 18.000 C 134.417 18.000,134.333 17.917,134.333 17.583 C 134.333 17.255,134.249 17.167,133.935 17.167 C 133.649 17.167,133.507 17.049,133.432 16.750 L 133.327 16.333 130.330 16.333 L 127.333 16.333 127.333 16.750 M296.500 16.746 C 296.500 17.084,296.418 17.167,296.083 17.167 C 295.753 17.167,295.667 17.251,295.667 17.572 C 295.667 17.891,295.568 17.989,295.208 18.031 C 294.829 18.074,294.752 18.163,294.759 18.542 C 294.767 18.935,294.702 19.000,294.301 19.000 L 293.833 19.000 293.833 21.583 L 293.833 24.167 294.232 24.167 C 294.717 24.167,294.803 24.362,294.748 25.333 C 294.694 26.301,294.900 26.833,295.329 26.833 C 295.623 26.833,295.667 26.941,295.667 27.667 C 295.667 28.444,295.694 28.500,296.083 28.500 C 296.477 28.500,296.500 28.550,296.500 29.417 C 296.500 30.279,296.524 30.333,296.910 30.333 C 297.305 30.333,297.321 30.377,297.368 31.625 C 297.413 32.820,297.445 32.921,297.792 32.970 C 298.095 33.013,298.167 33.129,298.167 33.581 C 298.167 34.390,298.318 34.667,298.761 34.667 C 299.134 34.667,299.155 34.727,299.201 35.958 C 299.246 37.145,299.280 37.254,299.617 37.302 C 299.932 37.347,299.990 37.474,300.033 38.212 C 300.077 38.965,300.133 39.081,300.490 39.165 C 300.850 39.249,300.900 39.357,300.922 40.089 C 300.970 41.670,300.969 41.667,301.417 41.667 C 301.811 41.667,301.833 41.717,301.833 42.583 C 301.833 43.450,301.856 43.500,302.250 43.500 C 302.644 43.500,302.667 43.550,302.667 44.417 C 302.667 45.283,302.689 45.333,303.083 45.333 C 303.488 45.333,303.500 45.366,303.500 46.504 C 303.500 47.590,303.530 47.687,303.917 47.864 C 304.204 47.994,304.334 48.188,304.336 48.485 C 304.340 49.316,304.518 49.667,304.936 49.667 C 305.319 49.667,305.333 49.711,305.333 50.913 C 305.333 52.098,305.354 52.165,305.742 52.263 C 306.100 52.353,306.156 52.471,306.200 53.224 C 306.246 54.010,306.287 54.088,306.683 54.134 C 307.086 54.180,307.113 54.237,307.080 54.967 C 307.022 56.242,307.151 56.667,307.595 56.667 C 307.945 56.667,307.987 56.752,308.033 57.542 C 308.077 58.304,308.132 58.424,308.458 58.470 C 308.789 58.517,308.833 58.620,308.833 59.345 C 308.833 60.107,308.863 60.167,309.243 60.167 C 309.639 60.167,309.654 60.211,309.701 61.458 C 309.749 62.732,309.757 62.751,310.211 62.803 C 310.467 62.832,310.626 62.930,310.569 63.023 C 310.296 63.465,310.680 64.667,311.094 64.667 C 311.470 64.667,311.500 64.728,311.500 65.500 C 311.500 66.272,311.530 66.333,311.906 66.333 C 312.224 66.333,312.323 66.432,312.364 66.792 C 312.401 67.113,312.524 67.265,312.776 67.301 C 312.995 67.332,313.175 67.512,313.238 67.760 C 313.329 68.123,313.429 68.167,314.170 68.167 C 314.944 68.167,315.000 68.195,315.000 68.583 L 315.000 69.000 318.500 69.000 L 322.000 69.000 322.000 68.583 C 322.000 68.200,322.061 68.167,322.754 68.167 C 323.394 68.167,323.531 68.107,323.659 67.771 C 323.741 67.554,324.002 67.327,324.238 67.268 C 324.554 67.189,324.667 67.052,324.667 66.747 C 324.667 66.417,324.751 66.333,325.083 66.333 C 325.471 66.333,325.500 66.277,325.500 65.511 C 325.500 64.738,325.527 64.686,325.958 64.636 C 326.386 64.587,326.420 64.524,326.467 63.708 C 326.509 62.988,326.572 62.833,326.824 62.833 C 327.232 62.833,327.333 62.515,327.333 61.236 C 327.333 60.206,327.349 60.167,327.750 60.167 C 328.138 60.167,328.167 60.110,328.167 59.345 C 328.167 58.620,328.211 58.517,328.542 58.470 C 328.888 58.421,328.920 58.320,328.965 57.135 C 329.013 55.880,329.023 55.853,329.465 55.802 C 329.875 55.755,329.921 55.679,329.967 54.974 C 330.010 54.310,330.075 54.184,330.425 54.096 C 330.788 54.005,330.833 53.904,330.833 53.182 C 330.833 52.454,330.877 52.359,331.250 52.265 C 331.648 52.165,331.667 52.104,331.667 50.925 C 331.667 49.700,331.671 49.688,332.125 49.636 C 332.552 49.587,332.587 49.524,332.634 48.708 C 332.675 47.988,332.738 47.833,332.991 47.833 C 333.392 47.833,333.500 47.515,333.500 46.331 C 333.500 45.447,333.535 45.352,333.875 45.303 C 334.202 45.257,334.256 45.137,334.300 44.375 C 334.347 43.571,334.384 43.500,334.759 43.500 C 335.158 43.500,335.167 43.470,335.167 42.167 L 335.167 40.833 335.667 40.833 C 336.155 40.833,336.167 40.814,336.167 40.012 C 336.167 39.286,336.211 39.184,336.542 39.137 C 336.868 39.090,336.923 38.970,336.967 38.219 C 337.010 37.474,337.067 37.347,337.383 37.302 C 337.720 37.254,337.754 37.144,337.798 35.969 C 337.846 34.714,337.856 34.686,338.298 34.635 C 338.707 34.588,338.755 34.511,338.799 33.828 C 338.838 33.236,338.928 33.038,339.216 32.911 C 339.539 32.770,339.589 32.603,339.632 31.542 C 339.679 30.383,339.698 30.333,340.091 30.333 C 340.476 30.333,340.500 30.279,340.500 29.417 C 340.500 28.550,340.523 28.500,340.917 28.500 C 341.324 28.500,341.333 28.471,341.333 27.261 C 341.333 26.033,341.338 26.022,341.792 25.969 C 342.219 25.920,342.253 25.858,342.300 25.042 C 342.343 24.306,342.402 24.167,342.672 24.167 C 343.349 24.167,343.394 19.128,342.718 19.031 C 342.463 18.995,342.338 18.845,342.302 18.531 C 342.261 18.182,342.149 18.072,341.792 18.031 C 341.432 17.989,341.333 17.891,341.333 17.572 C 341.333 17.251,341.247 17.167,340.917 17.167 C 340.583 17.167,340.500 17.083,340.500 16.750 L 340.500 16.333 337.417 16.333 L 334.333 16.333 334.333 16.738 C 334.333 17.032,334.230 17.158,333.958 17.197 C 333.717 17.231,333.564 17.384,333.530 17.625 C 333.492 17.896,333.365 18.000,333.072 18.000 C 332.733 18.000,332.667 18.082,332.667 18.500 C 332.667 18.922,332.602 19.000,332.250 19.000 C 331.796 19.000,331.789 19.024,331.764 20.664 C 331.751 21.522,331.725 21.577,331.333 21.580 C 330.949 21.583,330.913 21.651,330.867 22.448 C 330.824 23.193,330.766 23.320,330.450 23.365 C 330.113 23.412,330.079 23.522,330.035 24.708 C 329.988 25.935,329.966 26.000,329.599 26.000 C 329.214 26.000,328.834 27.263,329.093 27.682 C 329.143 27.763,329.077 27.789,328.947 27.739 C 328.468 27.555,328.167 28.138,328.167 29.250 C 328.167 30.223,328.136 30.315,327.792 30.363 C 327.445 30.413,327.413 30.513,327.368 31.708 C 327.321 32.956,327.305 33.000,326.910 33.000 C 326.524 33.000,326.500 33.054,326.500 33.917 C 326.500 34.777,326.475 34.833,326.095 34.833 C 325.598 34.833,325.489 35.139,325.578 36.280 C 325.647 37.166,325.445 37.563,324.976 37.464 C 324.813 37.430,324.736 37.661,324.700 38.292 C 324.653 39.095,324.616 39.167,324.241 39.167 C 323.842 39.167,323.833 39.196,323.833 40.500 C 323.833 41.795,323.822 41.833,323.434 41.833 C 322.986 41.833,322.833 42.107,322.833 42.912 C 322.833 43.362,322.756 43.483,322.417 43.568 C 322.019 43.668,322.000 43.729,322.000 44.920 C 322.000 46.139,321.991 46.167,321.583 46.167 C 321.190 46.167,321.167 46.217,321.167 47.072 C 321.167 47.883,321.128 47.982,320.792 48.030 C 320.448 48.079,320.413 48.183,320.368 49.272 C 320.320 50.440,320.311 50.463,319.829 50.559 C 319.355 50.654,319.340 50.686,319.390 51.495 C 319.431 52.178,319.391 52.333,319.170 52.333 C 318.828 52.333,318.500 52.656,318.500 52.992 C 318.500 53.149,318.339 53.259,318.090 53.274 C 317.692 53.297,317.679 53.259,317.632 52.031 C 317.586 50.834,317.560 50.759,317.167 50.667 C 316.797 50.581,316.744 50.472,316.700 49.702 C 316.654 48.910,316.614 48.833,316.248 48.833 C 315.863 48.833,315.845 48.781,315.799 47.542 C 315.754 46.346,315.722 46.246,315.375 46.197 C 315.045 46.150,315.000 46.047,315.000 45.333 C 315.000 44.620,314.955 44.517,314.625 44.470 C 314.294 44.423,314.245 44.308,314.207 43.500 C 314.139 42.069,314.051 41.833,313.580 41.833 C 313.190 41.833,313.167 41.781,313.167 40.917 C 313.167 40.054,313.142 40.000,312.757 40.000 C 312.361 40.000,312.346 39.956,312.299 38.708 C 312.254 37.513,312.222 37.413,311.875 37.363 C 311.542 37.316,311.500 37.214,311.498 36.447 C 311.494 35.181,311.365 34.833,310.897 34.833 C 310.527 34.833,310.500 34.771,310.500 33.917 C 310.500 33.050,310.477 33.000,310.083 33.000 C 309.676 33.000,309.667 32.972,309.667 31.753 C 309.667 30.562,309.648 30.502,309.250 30.402 C 308.877 30.308,308.833 30.213,308.833 29.482 C 308.833 28.723,308.804 28.667,308.417 28.667 C 308.038 28.667,308.000 28.602,307.998 27.958 C 307.994 26.540,307.828 26.000,307.395 26.000 C 307.027 26.000,307.000 25.936,307.000 25.083 C 307.000 24.217,306.977 24.167,306.583 24.167 C 306.176 24.167,306.167 24.139,306.167 22.920 C 306.167 21.729,306.148 21.668,305.750 21.568 C 305.377 21.475,305.333 21.379,305.333 20.649 C 305.333 19.854,305.321 19.833,304.833 19.833 C 304.338 19.833,304.333 19.824,304.333 18.917 C 304.333 18.050,304.311 18.000,303.917 18.000 C 303.583 18.000,303.500 17.917,303.500 17.583 C 303.500 17.253,303.416 17.167,303.095 17.167 C 302.802 17.167,302.675 17.063,302.637 16.792 C 302.584 16.420,302.553 16.416,299.542 16.371 L 296.500 16.326 296.500 16.746 M208.333 25.327 C 208.333 25.797,208.832 26.000,209.989 26.000 C 210.956 26.000,211.000 26.018,211.000 26.417 C 211.000 26.766,211.079 26.833,211.488 26.833 C 211.868 26.833,211.989 26.917,212.030 27.208 C 212.076 27.528,212.199 27.591,212.875 27.634 C 213.590 27.680,213.667 27.725,213.667 28.092 C 213.667 28.416,213.752 28.500,214.083 28.500 C 214.478 28.500,214.528 28.569,214.567 29.167 C 214.576 29.310,214.779 29.439,215.042 29.469 C 215.402 29.511,215.500 29.609,215.500 29.928 C 215.500 30.249,215.586 30.333,215.917 30.333 C 216.305 30.333,216.333 30.389,216.333 31.163 C 216.333 31.905,216.377 32.005,216.742 32.096 C 217.091 32.184,217.157 32.310,217.200 32.974 C 217.242 33.623,217.309 33.758,217.609 33.801 C 218.037 33.862,218.224 34.443,218.073 35.245 C 217.922 36.051,218.109 36.500,218.595 36.500 C 218.975 36.500,219.000 36.557,219.000 37.417 L 219.000 38.333 204.417 38.333 L 189.833 38.333 189.833 37.833 C 189.833 37.411,189.898 37.333,190.250 37.333 C 190.659 37.333,190.667 37.310,190.667 36.011 C 190.667 34.692,190.668 34.689,191.125 34.636 C 191.541 34.588,191.588 34.514,191.633 33.828 C 191.671 33.236,191.761 33.038,192.049 32.911 C 192.341 32.783,192.427 32.587,192.467 31.958 C 192.513 31.244,192.558 31.167,192.926 31.167 C 193.246 31.167,193.333 31.080,193.333 30.762 C 193.333 30.468,193.437 30.342,193.708 30.303 C 193.936 30.271,194.102 30.116,194.132 29.909 C 194.161 29.709,194.385 29.491,194.674 29.382 C 194.995 29.260,195.167 29.079,195.167 28.859 C 195.167 28.638,195.294 28.505,195.542 28.470 C 195.783 28.436,195.936 28.283,195.970 28.042 C 196.008 27.770,196.135 27.667,196.428 27.667 C 196.747 27.667,196.833 27.580,196.833 27.259 C 196.833 26.891,196.910 26.847,197.625 26.801 C 198.259 26.760,198.449 26.675,198.581 26.375 C 198.713 26.075,198.880 26.000,199.423 26.000 C 200.154 26.000,200.500 25.775,200.500 25.300 C 200.500 25.020,200.756 25.000,204.417 25.000 C 208.199 25.000,208.333 25.011,208.333 25.327 M263.000 25.323 C 263.000 25.827,263.274 25.903,265.417 25.996 C 267.333 26.080,267.419 26.099,267.470 26.458 C 267.517 26.788,267.620 26.833,268.333 26.833 C 269.047 26.833,269.150 26.878,269.197 27.208 C 269.243 27.535,269.363 27.590,270.125 27.634 C 270.929 27.680,271.000 27.717,271.000 28.092 C 271.000 28.413,271.086 28.500,271.406 28.500 C 271.724 28.500,271.823 28.598,271.864 28.958 C 271.901 29.282,272.024 29.432,272.281 29.469 C 272.509 29.501,272.666 29.658,272.698 29.885 C 272.730 30.112,272.888 30.270,273.115 30.302 C 273.342 30.334,273.499 30.491,273.531 30.719 C 273.568 30.976,273.718 31.099,274.042 31.136 C 274.472 31.186,274.500 31.238,274.500 32.008 C 274.500 32.738,274.544 32.838,274.908 32.929 C 275.258 33.017,275.324 33.143,275.367 33.808 C 275.411 34.499,275.463 34.589,275.842 34.633 C 276.238 34.679,276.267 34.741,276.259 35.550 C 276.250 36.374,276.273 36.419,276.708 36.469 L 277.167 36.522 277.167 38.678 L 277.167 40.833 277.583 40.833 C 277.993 40.833,278.000 40.857,278.000 42.149 C 278.000 43.413,277.984 43.468,277.583 43.568 L 277.167 43.673 277.167 46.232 L 277.167 48.792 276.680 48.889 C 276.216 48.982,276.195 49.024,276.244 49.751 C 276.293 50.477,276.271 50.521,275.814 50.612 C 275.363 50.702,275.333 50.758,275.333 51.521 C 275.333 52.276,275.304 52.333,274.917 52.333 C 274.523 52.333,274.500 52.384,274.500 53.239 C 274.500 54.103,274.479 54.147,274.042 54.197 C 273.713 54.235,273.568 54.356,273.530 54.625 C 273.492 54.896,273.365 55.000,273.072 55.000 C 272.751 55.000,272.667 55.087,272.667 55.417 C 272.667 55.747,272.583 55.833,272.261 55.833 C 271.942 55.833,271.844 55.932,271.803 56.292 C 271.761 56.655,271.672 56.742,271.375 56.710 C 271.061 56.677,271.000 56.751,271.000 57.169 C 271.000 57.661,270.990 57.667,270.083 57.667 C 269.217 57.667,269.167 57.689,269.167 58.083 C 269.167 58.472,269.111 58.500,268.337 58.500 C 267.590 58.500,267.496 58.542,267.402 58.917 L 267.297 59.333 262.994 59.333 L 258.690 59.333 258.637 58.958 C 258.590 58.632,258.471 58.577,257.708 58.533 C 256.905 58.487,256.833 58.449,256.833 58.075 C 256.833 57.691,256.778 57.667,255.917 57.667 C 255.002 57.667,255.000 57.665,255.000 57.149 C 255.000 56.679,254.961 56.640,254.583 56.735 C 254.208 56.829,254.167 56.790,254.167 56.337 C 254.167 55.911,254.102 55.833,253.750 55.833 C 253.417 55.833,253.333 55.750,253.333 55.417 C 253.333 55.083,253.250 55.000,252.917 55.000 C 252.583 55.000,252.500 54.917,252.500 54.583 C 252.500 54.233,252.422 54.167,252.009 54.167 C 251.534 54.167,251.516 54.138,251.467 53.292 C 251.424 52.536,251.367 52.410,251.050 52.365 C 250.741 52.321,250.676 52.190,250.634 51.531 C 250.591 50.872,250.526 50.742,250.217 50.698 C 249.901 50.653,249.843 50.526,249.800 49.781 C 249.753 48.976,249.718 48.913,249.292 48.864 L 248.833 48.811 248.833 47.072 L 248.833 45.333 248.417 45.333 L 248.000 45.333 248.000 42.667 L 248.000 40.000 248.417 40.000 L 248.833 40.000 248.833 38.250 C 248.833 36.515,248.837 36.500,249.232 36.500 C 249.734 36.500,249.833 36.237,249.833 34.903 C 249.833 33.873,249.849 33.833,250.250 33.833 C 250.639 33.833,250.667 33.778,250.667 33.000 C 250.667 32.222,250.694 32.167,251.083 32.167 C 251.433 32.167,251.500 32.088,251.500 31.678 C 251.500 31.268,251.574 31.180,251.958 31.136 C 252.282 31.099,252.432 30.976,252.469 30.719 C 252.501 30.491,252.658 30.334,252.885 30.302 C 253.112 30.270,253.270 30.112,253.302 29.885 C 253.334 29.658,253.491 29.501,253.719 29.469 C 253.976 29.432,254.099 29.282,254.136 28.958 C 254.177 28.598,254.276 28.500,254.594 28.500 C 254.916 28.500,255.000 28.414,255.000 28.083 C 255.000 27.695,255.056 27.667,255.830 27.667 C 256.577 27.667,256.671 27.625,256.765 27.250 C 256.859 26.877,256.954 26.833,257.682 26.833 C 258.406 26.833,258.505 26.789,258.597 26.422 C 258.697 26.023,258.749 26.010,260.392 25.964 L 262.083 25.917 262.136 25.458 C 262.201 24.890,263.000 24.766,263.000 25.323 M374.833 25.300 C 374.833 25.880,375.182 26.000,376.867 26.000 C 378.498 26.000,378.500 26.001,378.500 26.417 C 378.500 26.804,378.557 26.833,379.315 26.833 C 380.046 26.833,380.141 26.877,380.235 27.250 C 380.329 27.625,380.423 27.667,381.170 27.667 C 381.944 27.667,382.000 27.695,382.000 28.083 C 382.000 28.414,382.084 28.500,382.406 28.500 C 382.724 28.500,382.823 28.598,382.864 28.958 C 382.902 29.292,383.029 29.438,383.333 29.499 C 383.611 29.555,383.750 29.695,383.750 29.917 C 383.750 30.156,383.879 30.265,384.208 30.303 C 384.568 30.344,384.667 30.442,384.667 30.761 C 384.667 31.083,384.753 31.167,385.083 31.167 C 385.435 31.167,385.500 31.244,385.500 31.667 C 385.500 32.089,385.565 32.167,385.917 32.167 C 386.306 32.167,386.333 32.222,386.333 33.000 C 386.333 33.799,386.352 33.833,386.794 33.833 C 387.242 33.833,387.253 33.856,387.222 34.708 C 387.171 36.096,387.293 36.500,387.763 36.500 C 388.164 36.500,388.167 36.510,388.167 38.250 L 388.167 40.000 388.583 40.000 L 389.000 40.000 389.000 42.667 L 389.000 45.333 388.583 45.333 L 388.167 45.333 388.167 47.083 L 388.167 48.833 387.753 48.833 C 387.308 48.833,387.167 49.161,387.221 50.074 C 387.244 50.470,387.170 50.583,386.833 50.664 C 386.473 50.750,386.410 50.869,386.366 51.538 C 386.324 52.190,386.258 52.321,385.950 52.365 C 385.633 52.410,385.576 52.536,385.533 53.292 C 385.487 54.095,385.449 54.167,385.075 54.167 C 384.754 54.167,384.667 54.253,384.667 54.572 C 384.667 54.891,384.568 54.989,384.208 55.031 C 383.855 55.071,383.753 55.169,383.763 55.458 C 383.774 55.762,383.687 55.833,383.305 55.833 C 382.891 55.833,382.833 55.895,382.833 56.337 C 382.833 56.790,382.792 56.829,382.417 56.735 C 382.040 56.641,382.000 56.680,382.000 57.140 C 382.000 57.637,381.979 57.650,381.125 57.700 C 380.363 57.744,380.243 57.798,380.197 58.125 C 380.150 58.456,380.047 58.500,379.322 58.500 C 378.556 58.500,378.500 58.529,378.500 58.917 L 378.500 59.333 374.095 59.333 L 369.690 59.333 369.637 58.958 C 369.590 58.632,369.471 58.577,368.708 58.533 C 367.905 58.487,367.833 58.449,367.833 58.075 C 367.833 57.691,367.778 57.667,366.917 57.667 C 366.010 57.667,366.000 57.661,366.000 57.169 C 366.000 56.751,365.939 56.677,365.625 56.710 C 365.328 56.742,365.239 56.655,365.197 56.292 C 365.156 55.932,365.058 55.833,364.739 55.833 C 364.417 55.833,364.333 55.747,364.333 55.417 C 364.333 55.083,364.250 55.000,363.917 55.000 C 363.583 55.000,363.500 54.917,363.500 54.583 C 363.500 54.231,363.422 54.167,363.000 54.167 C 362.505 54.167,362.500 54.157,362.500 53.250 C 362.500 52.383,362.477 52.333,362.083 52.333 C 361.695 52.333,361.667 52.277,361.667 51.512 C 361.667 50.786,361.623 50.684,361.292 50.637 C 360.974 50.591,360.904 50.457,360.833 49.750 C 360.757 48.989,360.710 48.912,360.292 48.864 L 359.833 48.811 359.833 46.656 L 359.833 44.500 359.417 44.500 L 359.000 44.500 359.000 42.667 L 359.000 40.833 359.417 40.833 L 359.833 40.833 359.833 38.678 L 359.833 36.522 360.292 36.469 C 360.718 36.420,360.753 36.357,360.800 35.552 C 360.843 34.807,360.901 34.680,361.217 34.635 C 361.526 34.592,361.591 34.461,361.633 33.808 C 361.676 33.143,361.742 33.017,362.092 32.929 C 362.457 32.838,362.500 32.739,362.500 31.997 C 362.500 31.186,362.511 31.167,363.000 31.167 C 363.418 31.167,363.500 31.101,363.500 30.762 C 363.500 30.468,363.604 30.342,363.875 30.303 C 364.112 30.270,364.269 30.116,364.302 29.885 C 364.334 29.658,364.491 29.501,364.719 29.469 C 364.976 29.432,365.099 29.282,365.136 28.958 C 365.177 28.598,365.276 28.500,365.594 28.500 C 365.914 28.500,366.000 28.413,366.000 28.092 C 366.000 27.717,366.071 27.680,366.875 27.634 C 367.637 27.590,367.757 27.535,367.803 27.208 C 367.850 26.878,367.953 26.833,368.675 26.833 C 369.406 26.833,369.505 26.789,369.597 26.422 C 369.697 26.023,369.749 26.010,371.392 25.964 L 373.083 25.917 373.136 25.458 C 373.203 24.877,374.833 24.725,374.833 25.300 M24.308 35.167 L 24.483 35.667 26.158 35.667 L 27.833 35.667 27.833 36.083 C 27.833 36.472,27.889 36.500,28.667 36.500 C 29.444 36.500,29.500 36.528,29.500 36.917 C 29.500 37.249,29.584 37.333,29.913 37.333 C 30.216 37.333,30.355 37.446,30.432 37.750 C 30.489 37.979,30.622 38.168,30.726 38.169 C 30.865 38.171,30.866 38.205,30.731 38.294 C 30.629 38.362,30.492 38.585,30.428 38.792 C 30.349 39.046,30.180 39.167,29.905 39.167 C 29.587 39.167,29.500 39.254,29.500 39.574 C 29.500 39.942,29.423 39.987,28.708 40.033 C 27.997 40.078,27.912 40.127,27.867 40.514 C 27.821 40.902,27.746 40.944,27.104 40.944 C 26.255 40.944,26.000 41.075,26.000 41.510 C 26.000 41.744,25.885 41.833,25.583 41.833 C 25.250 41.833,25.167 41.917,25.167 42.250 C 25.167 42.644,25.117 42.667,24.250 42.667 C 23.357 42.667,23.333 42.679,23.333 43.134 C 23.333 43.587,23.308 43.600,22.500 43.572 C 21.742 43.546,21.667 43.577,21.667 43.913 C 21.667 44.249,21.552 44.295,20.375 44.433 C 19.216 44.568,19.078 44.622,19.030 44.958 C 18.980 45.311,18.899 45.333,17.655 45.333 C 16.356 45.333,16.333 45.341,16.333 45.750 C 16.333 46.160,16.311 46.167,15.000 46.167 C 13.689 46.167,13.667 46.160,13.667 45.750 C 13.667 45.420,13.583 45.333,13.262 45.333 C 12.968 45.333,12.842 45.230,12.803 44.958 C 12.765 44.692,12.620 44.568,12.300 44.531 C 11.883 44.483,11.846 44.416,11.800 43.615 C 11.757 42.863,11.701 42.743,11.375 42.697 C 10.767 42.610,10.807 40.833,11.417 40.833 C 11.805 40.833,11.833 40.777,11.833 40.011 C 11.833 39.238,11.861 39.186,12.292 39.136 C 12.615 39.099,12.765 38.976,12.802 38.719 C 12.834 38.491,12.991 38.334,13.219 38.302 C 13.476 38.265,13.599 38.115,13.636 37.792 C 13.686 37.361,13.738 37.333,14.508 37.333 C 15.243 37.333,15.338 37.290,15.432 36.917 C 15.525 36.543,15.621 36.500,16.351 36.500 C 17.110 36.500,17.167 36.471,17.167 36.083 L 17.167 35.667 19.217 35.667 C 21.332 35.667,21.667 35.571,21.667 34.967 C 21.667 34.357,24.090 34.540,24.308 35.167 " stroke="none" fill="#ffffff" fill-rule="evenodd"></path><path id="path1" d="M85.885 15.417 C 85.886 15.967,85.917 16.172,85.954 15.872 C 85.991 15.572,85.990 15.122,85.952 14.872 C 85.914 14.622,85.884 14.867,85.885 15.417 M208.042 15.448 C 208.202 15.490,208.465 15.490,208.625 15.448 C 208.785 15.406,208.654 15.372,208.333 15.372 C 208.012 15.372,207.881 15.406,208.042 15.448 M85.890 23.583 C 85.891 24.317,85.920 24.596,85.956 24.204 C 85.991 23.812,85.990 23.212,85.954 22.871 C 85.919 22.529,85.890 22.850,85.890 23.583 M236.569 42.500 C 236.569 44.196,236.594 44.890,236.624 44.042 C 236.654 43.194,236.654 41.806,236.624 40.958 C 236.594 40.110,236.569 40.804,236.569 42.500 M202.621 60.287 C 202.917 60.324,203.442 60.324,203.788 60.288 C 204.134 60.252,203.892 60.222,203.250 60.221 C 202.608 60.221,202.325 60.250,202.621 60.287 M208.455 60.287 C 208.750 60.324,209.275 60.324,209.621 60.288 C 209.967 60.252,209.725 60.222,209.083 60.221 C 208.442 60.221,208.159 60.250,208.455 60.287 M48.872 72.833 C 48.872 73.154,48.906 73.285,48.948 73.125 C 48.990 72.965,48.990 72.702,48.948 72.542 C 48.906 72.381,48.872 72.512,48.872 72.833 " stroke="none" fill="#ffffff" fill-rule="evenodd"></path><path id="path2" d="M85.885 15.417 C 85.886 15.967,85.917 16.172,85.954 15.872 C 85.991 15.572,85.990 15.122,85.952 14.872 C 85.914 14.622,85.884 14.867,85.885 15.417 M208.042 15.448 C 208.202 15.490,208.465 15.490,208.625 15.448 C 208.785 15.406,208.654 15.372,208.333 15.372 C 208.012 15.372,207.881 15.406,208.042 15.448 M85.890 23.583 C 85.891 24.317,85.920 24.596,85.956 24.204 C 85.991 23.812,85.990 23.212,85.954 22.871 C 85.919 22.529,85.890 22.850,85.890 23.583 M236.569 42.500 C 236.569 44.196,236.594 44.890,236.624 44.042 C 236.654 43.194,236.654 41.806,236.624 40.958 C 236.594 40.110,236.569 40.804,236.569 42.500 M202.621 60.287 C 202.917 60.324,203.442 60.324,203.788 60.288 C 204.134 60.252,203.892 60.222,203.250 60.221 C 202.608 60.221,202.325 60.250,202.621 60.287 M208.455 60.287 C 208.750 60.324,209.275 60.324,209.621 60.288 C 209.967 60.252,209.725 60.222,209.083 60.221 C 208.442 60.221,208.159 60.250,208.455 60.287 M48.872 72.833 C 48.872 73.154,48.906 73.285,48.948 73.125 C 48.990 72.965,48.990 72.702,48.948 72.542 C 48.906 72.381,48.872 72.512,48.872 72.833 " stroke="none" fill="#ffffff" fill-rule="evenodd"></path><path id="path3" d="M85.885 15.417 C 85.886 15.967,85.917 16.172,85.954 15.872 C 85.991 15.572,85.990 15.122,85.952 14.872 C 85.914 14.622,85.884 14.867,85.885 15.417 M208.042 15.448 C 208.202 15.490,208.465 15.490,208.625 15.448 C 208.785 15.406,208.654 15.372,208.333 15.372 C 208.012 15.372,207.881 15.406,208.042 15.448 M85.890 23.583 C 85.891 24.317,85.920 24.596,85.956 24.204 C 85.991 23.812,85.990 23.212,85.954 22.871 C 85.919 22.529,85.890 22.850,85.890 23.583 M236.569 42.500 C 236.569 44.196,236.594 44.890,236.624 44.042 C 236.654 43.194,236.654 41.806,236.624 40.958 C 236.594 40.110,236.569 40.804,236.569 42.500 M202.621 60.287 C 202.917 60.324,203.442 60.324,203.788 60.288 C 204.134 60.252,203.892 60.222,203.250 60.221 C 202.608 60.221,202.325 60.250,202.621 60.287 M208.455 60.287 C 208.750 60.324,209.275 60.324,209.621 60.288 C 209.967 60.252,209.725 60.222,209.083 60.221 C 208.442 60.221,208.159 60.250,208.455 60.287 M48.872 72.833 C 48.872 73.154,48.906 73.285,48.948 73.125 C 48.990 72.965,48.990 72.702,48.948 72.542 C 48.906 72.381,48.872 72.512,48.872 72.833 " stroke="none" fill="#ffffff" fill-rule="evenodd"></path><path id="path4" d="M85.885 15.417 C 85.886 15.967,85.917 16.172,85.954 15.872 C 85.991 15.572,85.990 15.122,85.952 14.872 C 85.914 14.622,85.884 14.867,85.885 15.417 M208.042 15.448 C 208.202 15.490,208.465 15.490,208.625 15.448 C 208.785 15.406,208.654 15.372,208.333 15.372 C 208.012 15.372,207.881 15.406,208.042 15.448 M85.890 23.583 C 85.891 24.317,85.920 24.596,85.956 24.204 C 85.991 23.812,85.990 23.212,85.954 22.871 C 85.919 22.529,85.890 22.850,85.890 23.583 M236.569 42.500 C 236.569 44.196,236.594 44.890,236.624 44.042 C 236.654 43.194,236.654 41.806,236.624 40.958 C 236.594 40.110,236.569 40.804,236.569 42.500 M202.621 60.287 C 202.917 60.324,203.442 60.324,203.788 60.288 C 204.134 60.252,203.892 60.222,203.250 60.221 C 202.608 60.221,202.325 60.250,202.621 60.287 M208.455 60.287 C 208.750 60.324,209.275 60.324,209.621 60.288 C 209.967 60.252,209.725 60.222,209.083 60.221 C 208.442 60.221,208.159 60.250,208.455 60.287 M48.872 72.833 C 48.872 73.154,48.906 73.285,48.948 73.125 C 48.990 72.965,48.990 72.702,48.948 72.542 C 48.906 72.381,48.872 72.512,48.872 72.833 " stroke="none" fill="#ffffff" fill-rule="evenodd"></path></g></svg>
