<?xml version="1.0" encoding="UTF-8" standalone="no"?>
<!DOCTYPE svg PUBLIC "-//W3C//DTD SVG 1.1//EN"
"http://www.w3.org/Graphics/SVG/1.1/DTD/svg11.dtd">


<!-- Page 1 -->
<svg x="0" y="0" width="959" height="334" viewBox="0 0 959 334" version="1.1" xmlns="http://www.w3.org/2000/svg" xmlns:xlink="http://www.w3.org/1999/xlink"
style="display: block;margin-left: auto;margin-right: auto;">
<defs>

<style type="text/css"><![CDATA[

.g1_1{
fill: none;
stroke: #FFFFFF;
stroke-width: 18.333334;
stroke-linecap: butt;
stroke-linejoin: miter;
}
.g2_1{
fill: #FFFFFF;
}


]]></style>

</defs>
<path d="M0,0
L0,334
L959,334
L959,0 Z " stroke="none" />
<path d="M381.5,215.8l-107.8,7.1c0,0,-10.8,-44,-36.3,-44c-24,0,-34.6,44,-34.6,44L93.9,215.8c0,0,-13.5,-36.5,-13.5,-80.3C80.4,92.7,93.9,55.2,93.9,55.2c0,0,56.2,-14.2,143.5,-14.2c88.3,0,144.1,14.2,144.1,14.2c0,0,11.9,37.2,11.9,80.3c0,43.6,-11.9,80.3,-11.9,80.3Z" class="g1_1" />
<path d="M330.9,137.7c0,14.4,-11.7,26.1,-26.1,26.1c-14.4,0,-26.1,-11.7,-26.1,-26.1c0,-14.5,11.7,-26.2,26.1,-26.2c14.4,0,26.1,11.7,26.1,26.2Z" class="g1_1" />
<path d="M191.9,137.7c0,14.4,-11.7,26.1,-26.2,26.1c-14.4,0,-26.1,-11.7,-26.1,-26.1c0,-14.5,11.7,-26.2,26.1,-26.2c14.5,0,26.2,11.7,26.2,26.2Z" class="g1_1" />
<path d="M237.9,259c0,0,-60.2,1.3,-111.8,-3.6C88.7,251.9,55.9,244,53.9,235.5C52.4,228.6,72.6,218,72.6,218L63.4,200.9c0,0,-30.7,12.7,-30.7,34.6c0,48.4,205.2,42.2,205.2,42.2Z" class="g2_1" />
<path d="M219.6,240.6L240.4,268l-20.8,27.5" class="g1_1" />
<path d="M258.8,258.5c0,0,44.5,0.8,86.9,-3.1c37.9,-3.4,74,-10.9,76.1,-20.5c1.6,-6.9,-18.6,-17.5,-18.6,-17.5l9.1,-17.1c0,0,30.8,12.7,30.8,34.6c0,48.4,-183.3,42.2,-183.3,42.2l5.8,-9.1Z" class="g2_1" />
<path d="M483.5,88.2c0,-1.9,1.3,-3.5,3.8,-4.8c2.5,-1.4,5,-2.1,7.4,-2.1c2.6,0,4.1,0.9,4.7,2.7l9.8,27.9l7.1,-23.6c0.6,-2.2,2.5,-3.3,5.6,-3.3c3,0,4.9,1.1,5.6,3.3l7,23.6L544.3,84c0.6,-1.8,2.1,-2.7,4.6,-2.7c2.4,0,4.9,0.7,7.4,2.1c2.6,1.4,3.8,3.1,3.8,5c0,0.8,-0.1,1.5,-0.4,2.1l-17,42.3c-0.8,2,-3,3,-6.5,3c-4,0,-6.4,-1,-7.1,-3l-7.2,-19.1l-7.3,19.1c-0.7,2,-3.1,3,-7.1,3c-3.6,0,-5.7,-1,-6.5,-3L484,90.5c-0.3,-1,-0.5,-1.7,-0.5,-2.3Z" class="g2_1" />
<path d="M565.4,129.1l0,-41.9c0,-1.6,0.8,-2.8,2.4,-3.8c1.5,-0.9,3.6,-1.4,6.1,-1.4c2.4,0,4.4,0.5,6.1,1.4c1.6,1,2.4,2.2,2.4,3.8l0,41.9c0,1.3,-0.8,2.5,-2.5,3.6c-1.7,1.1,-3.7,1.6,-6,1.6c-2.5,0,-4.5,-0.5,-6.1,-1.6c-1.6,-1,-2.4,-2.2,-2.4,-3.6m2.1,-59.5c-1.8,-1.5,-2.7,-3.2,-2.7,-5.2c0,-2.1,0.9,-3.8,2.7,-5.3c1.7,-1.4,3.9,-2.2,6.4,-2.2c2.4,0,4.5,0.8,6.2,2.2c1.8,1.5,2.7,3.2,2.7,5.3c0,2,-0.9,3.7,-2.7,5.2c-1.7,1.5,-3.8,2.3,-6.2,2.3c-2.5,0,-4.7,-0.8,-6.4,-2.3Z" class="g2_1" />
<path d="M592.2,129.1l0,-41.9c0,-1.6,0.8,-2.8,2.4,-3.8c1.6,-0.9,3.5,-1.4,6,-1.4c2.1,0,3.9,0.5,5.4,1.4c1.4,1,2.2,2.3,2.2,3.8l0,4.1c1.1,-2.6,2.9,-5,5.4,-7c2.4,-2,5,-3,7.6,-3l3.2,0c1.6,0,3,0.8,4.3,2.3c1.2,1.4,1.8,3.2,1.8,5.2c0,2,-0.6,3.8,-1.8,5.3c-1.3,1.5,-2.7,2.2,-4.3,2.2l-3.2,0c-3.1,0,-5.9,1.5,-8.3,4.5c-2.4,3.1,-3.7,7,-3.7,11.8l0,16.5c0,1.3,-0.8,2.5,-2.5,3.6c-1.8,1.1,-3.8,1.6,-6.1,1.6c-2.4,0,-4.4,-0.5,-6,-1.6c-1.6,-1,-2.4,-2.2,-2.4,-3.6Z" class="g2_1" />
<path d="M635.3,116l0,-50.6c0,-1.4,0.9,-2.6,2.6,-3.6c1.8,-1,3.7,-1.5,5.9,-1.5c2.2,0,4.2,0.5,6,1.5c1.7,0.9,2.5,2.1,2.5,3.5l0,16.7l12.5,0c1.3,0,2.3,0.7,3,2c0.8,1.3,1.1,2.8,1.1,4.6c0,1.8,-0.3,3.4,-1.1,4.7c-0.7,1.3,-1.7,1.9,-3,1.9l-12.5,0l0,20.2c0,1.5,0.4,2.5,1,3.1c0.7,0.6,1.9,0.9,3.5,0.9l4.8,0c2.3,0,4.1,0.7,5.4,2.2c1.2,1.5,1.8,3.3,1.8,5.3c0,2,-0.6,3.8,-1.8,5.3c-1.3,1.4,-3.1,2.1,-5.4,2.1l-4.8,0c-14.3,0,-21.5,-6.1,-21.5,-18.3Z" class="g2_1" />
<path d="M675,112.4l0,-25.1c0,-1.3,0.8,-2.5,2.5,-3.6c1.7,-1.1,3.7,-1.7,6.1,-1.7c2.2,0,4.1,0.6,5.8,1.7c1.8,1,2.6,2.3,2.6,3.6l0,25c0,2.1,0.8,4,2.4,5.7c1.7,1.6,3.5,2.5,5.7,2.5c2.1,0,3.9,-0.9,5.5,-2.5c1.6,-1.7,2.4,-3.6,2.4,-5.7l0,-25.1c0,-1.4,0.8,-2.6,2.5,-3.7c1.8,-1,3.8,-1.5,6,-1.5c2.5,0,4.5,0.5,6.1,1.5c1.6,1.1,2.4,2.3,2.4,3.7l0,25.2c0,6.1,-2.5,11.5,-7.4,16.1c-5,4.6,-10.8,6.9,-17.5,6.9c-6.9,0,-12.7,-2.3,-17.7,-6.9c-4.9,-4.6,-7.4,-10,-7.4,-16.1Z" class="g2_1" />
<path d="M748.5,118c0,2.8,1.5,4.2,4.3,4.2c1.9,0,3.7,-0.9,5.5,-2.8c1.8,-1.9,2.7,-4.1,2.7,-6.5l0,-0.4l-0.4,0c-2.4,0,-4.4,0.1,-6,0.3c-1.5,0.2,-2.9,0.7,-4.2,1.5c-1.3,0.9,-1.9,2.1,-1.9,3.7m-17.1,2.2c0,-5.9,2.2,-10,6.6,-12.4c4.5,-2.4,10.8,-3.6,19.1,-3.6l3.9,0l0,-1.1c0,-2.3,-0.6,-4.3,-1.9,-6c-1.3,-1.7,-3.4,-2.6,-6.3,-2.6c-3.5,0,-6.4,0.7,-8.7,2.1c-2.2,1.3,-3.6,2,-4.1,2c-1.8,0,-3.2,-0.9,-4.2,-2.6c-1,-1.7,-1.6,-3.7,-1.6,-5.9c0,-2.4,2.1,-4.4,6.1,-6.2c4.1,-1.7,8.3,-2.6,12.7,-2.6c8.5,0,14.8,2.1,18.9,6.2c4.1,4.1,6.2,9.2,6.2,15.4l0,26.2c0,1.4,-0.8,2.7,-2.4,3.7c-1.6,1,-3.5,1.5,-6,1.5c-2.1,0,-3.9,-0.5,-5.3,-1.6c-1.5,-1.1,-2.3,-2.4,-2.3,-4l0,-2.6c-5,6.2,-10.6,9.3,-16.7,9.3c-4,0,-7.3,-1.3,-10,-3.9c-2.7,-2.6,-4,-6.3,-4,-11.3Z" class="g2_1" />
<path d="M788.6,129.1l0,-71.8c0,-1.6,0.7,-2.8,2.3,-3.8c1.6,-0.9,3.6,-1.4,6.1,-1.4c2.4,0,4.5,0.5,6.1,1.4c1.7,1,2.5,2.2,2.5,3.8l0,71.8c0,1.3,-0.9,2.5,-2.5,3.6c-1.7,1.1,-3.7,1.6,-6.1,1.6c-2.4,0,-4.4,-0.5,-6,-1.6c-1.7,-1,-2.4,-2.2,-2.4,-3.6Z" class="g2_1" />
<path d="M816.5,129.1l0,-41.9c0,-1.6,0.8,-2.8,2.3,-3.8c1.6,-0.9,3.6,-1.4,6.1,-1.4c2.1,0,3.9,0.5,5.3,1.4c1.5,1,2.2,2.3,2.2,3.8l0,2.6c1.2,-2.4,3.1,-4.4,5.7,-6c2.6,-1.6,5.6,-2.5,9,-2.5c5.1,0,9.5,2.3,13.2,6.9c3.7,4.5,5.5,9.9,5.5,16.2l0,24.7c0,1.6,-0.8,2.9,-2.5,3.9c-1.7,0.9,-3.7,1.3,-6,1.3c-2.2,0,-4.2,-0.4,-5.9,-1.4c-1.7,-0.9,-2.6,-2.2,-2.6,-3.8l0,-24.6c0,-2.1,-0.8,-4,-2.4,-5.7c-1.5,-1.7,-3.4,-2.5,-5.5,-2.5c-1.9,0,-3.6,0.7,-5.1,2.2c-1.5,1.5,-2.3,3.5,-2.3,6l0,24.6c0,1.3,-0.9,2.5,-2.6,3.6c-1.7,1.1,-3.7,1.6,-6,1.6c-2.4,0,-4.4,-0.5,-6,-1.6c-1.6,-1,-2.4,-2.2,-2.4,-3.6Z" class="g2_1" />
<path d="M890.2,102.9l13.7,0c1.5,0,2.3,-0.8,2.3,-2.4c0,-1.8,-0.8,-3.3,-2.4,-4.4c-1.6,-1,-3.5,-1.6,-5.6,-1.6c-2.2,0,-4,0.6,-5.6,1.6c-1.6,1.1,-2.4,2.6,-2.4,4.4Zm-17,9.2l0,-8c0,-6.2,2.5,-11.6,7.4,-16c5,-4.5,10.9,-6.8,17.9,-6.8c6.5,0,12.1,2,16.7,5.9c4.6,4,6.9,9,6.9,15.1c0,2.3,-0.3,4.2,-0.9,5.7c-0.5,1.4,-1.4,2.5,-2.6,3c-1.2,0.6,-2.3,1,-3.2,1.2c-1,0.2,-2.3,0.3,-4,0.3l-21.2,0l0,0.6c0,2.8,1.1,5,3.1,6.6c2.1,1.7,4.8,2.5,8.1,2.5c2.6,0,5.3,-0.7,8.1,-2c2.8,-1.4,4.7,-2.1,5.7,-2.1c1.8,0,3.3,0.8,4.5,2.5c1.2,1.8,1.8,3.4,1.8,4.9c0,2.3,-2,4.5,-5.9,6.7c-3.9,2.2,-8.8,3.2,-14.6,3.2c-8.2,0,-14.9,-2.1,-20,-6.4c-5.2,-4.3,-7.8,-9.9,-7.8,-16.9Z" class="g2_1" />
<path d="M511.9,194.8c0,-0.7,0.3,-1.3,0.9,-1.8c0.6,-0.5,1.3,-0.7,2.1,-0.7c1,0,1.7,0.4,2.1,1.3l15,41.2L544,197c0.2,-1.1,0.9,-1.7,2.1,-1.7c1.1,0,1.8,0.7,2,1.9l11.7,38.3l15.1,-41.9c0.3,-0.9,1,-1.3,2.1,-1.3c0.8,0,1.5,0.2,2.1,0.6c0.6,0.5,0.9,1.1,0.9,1.8c0,0.6,-0.2,1.2,-0.4,1.6l-17.2,47.2c-0.4,1,-1.1,1.5,-2.1,1.5c-0.9,0,-1.5,-0.4,-1.9,-1.3L546.2,204.9L534.1,243c-0.4,1.4,-1.2,2,-2.4,2c-1.2,0,-2,-0.6,-2.4,-1.9l-17,-46.8c-0.3,-0.8,-0.4,-1.4,-0.4,-1.5Z" class="g2_1" />
<path d="M584.4,194.2c0,-0.7,0.3,-1.3,1,-1.8c0.6,-0.5,1.3,-0.8,2.1,-0.8c1.2,0,1.9,0.5,2.1,1.4l15.5,42.4L620.2,193c0.6,-0.9,1.3,-1.4,2.1,-1.4c0.8,0,1.5,0.3,2.1,0.8c0.7,0.5,1,1.1,1,1.8c0,0.4,0,0.7,-0.1,0.9l-17.4,47.4l-2.3,6.2c-0.4,1.1,-1.2,3.1,-2.4,5.8c-1.2,2.8,-2.3,4.8,-3.2,6.2c-1,1.4,-2.1,2.9,-3.5,4.6c-1.4,1.7,-2.9,3,-4.5,3.7c-1.6,0.7,-3.2,1.1,-5,1.1c-1.7,0,-2.5,-0.8,-2.5,-2.5c0,-1.7,0.7,-2.5,2,-2.5c6,0,11.4,-7.6,15.9,-22.6L584.6,195.1c-0.1,-0.4,-0.2,-0.7,-0.2,-0.9Z" class="g2_1" />
<path d="M632.8,224.6l0,-12.5c0,-6,1.7,-10.9,5.2,-14.7c3.5,-3.8,8.6,-5.7,15.4,-5.7c4.2,0,7.7,0.8,10.6,2.3c2.9,1.5,4.3,3,4.3,4.4c0,0.7,-0.3,1.3,-0.8,1.8c-0.5,0.6,-1.1,0.9,-1.7,0.9c-0.4,0,-1,-0.4,-2,-1.1c-0.9,-0.7,-2.2,-1.4,-4,-2.1c-1.7,-0.8,-3.8,-1.1,-6.2,-1.1c-5,0,-8.7,1.3,-11.4,4c-2.7,2.8,-4,6.5,-4,11.3l0,12.5c0,4.8,1.3,8.6,3.9,11.2c2.7,2.7,6.5,4.1,11.6,4.1c2.5,0,4.7,-0.4,6.6,-1.1c1.8,-0.8,3.2,-1.5,4.1,-2.2c1,-0.8,1.7,-1.1,2.1,-1.1c0.7,0,1.3,0.3,1.7,0.8c0.5,0.6,0.7,1.1,0.7,1.8c0,1.5,-1.4,3.1,-4.4,4.6c-3,1.5,-6.7,2.2,-11.1,2.2c-6.7,0,-11.8,-1.8,-15.3,-5.6c-3.6,-3.7,-5.3,-8.6,-5.3,-14.7Z" class="g2_1" />
<path d="M679.3,241.8l0,-47.2c0,-1.5,0.9,-2.2,2.6,-2.2c1.8,0,2.8,0.7,2.8,2.2l0,47.2c0,0.6,-0.3,1.2,-0.9,1.7c-0.5,0.5,-1.2,0.8,-1.9,0.8c-0.7,0,-1.3,-0.3,-1.9,-0.7c-0.5,-0.5,-0.7,-1.1,-0.7,-1.8m-1.6,-69.9c0,-1,0.4,-1.9,1.2,-2.7c0.9,-0.7,1.8,-1.1,3,-1.1c1.1,0,2.1,0.4,2.9,1.1c0.8,0.8,1.2,1.7,1.2,2.7c0,1.1,-0.4,2.1,-1.2,2.9c-0.8,0.8,-1.8,1.2,-2.9,1.2c-1.2,0,-2.1,-0.4,-3,-1.2c-0.8,-0.8,-1.2,-1.8,-1.2,-2.9Z" class="g2_1" />
<path d="M702.6,215.6l23.4,0c2.5,0,4.1,-0.3,4.9,-0.8c0.9,-0.5,1.3,-1.6,1.3,-3.2c0,-3.9,-1.4,-7.3,-4.2,-10.4c-2.8,-3.1,-6.3,-4.6,-10.6,-4.6c-4.1,0,-7.6,1.4,-10.5,4.2c-2.9,2.9,-4.3,6.3,-4.3,10.3Zm-5.4,9l0,-13.1c0,-5.4,2,-10.1,5.9,-14c4,-3.8,8.8,-5.8,14.3,-5.8c5.4,0,10.1,1.9,14,5.7c4,3.8,5.9,8.6,5.9,14.2c0,2,-0.2,3.6,-0.7,4.8c-0.5,1.2,-1.2,2.1,-2.2,2.6c-1.1,0.5,-2,0.8,-2.8,0.9c-0.9,0.1,-2.1,0.2,-3.6,0.2l-25.4,0l0,4.6c0,4.6,1.6,8.3,4.9,11.1c3.3,2.8,7.6,4.2,12.8,4.2c2.6,0,4.8,-0.4,6.7,-1.1c1.8,-0.8,3.2,-1.5,4.1,-2.2c1,-0.8,1.7,-1.1,2.2,-1.1c0.7,0,1.3,0.3,1.8,0.9c0.5,0.5,0.7,1.1,0.7,1.7c0,1.4,-1.5,2.9,-4.5,4.4c-3.1,1.6,-6.8,2.3,-11.2,2.3c-6.8,0,-12.3,-1.8,-16.5,-5.6c-4.3,-3.7,-6.4,-8.6,-6.4,-14.7Z" class="g2_1" />
<path d="M746.9,224.6l0,-12.5c0,-6,1.7,-10.9,5.2,-14.7c3.5,-3.8,8.6,-5.7,15.4,-5.7c4.2,0,7.7,0.8,10.6,2.3c2.9,1.5,4.3,3,4.3,4.4c0,0.7,-0.3,1.3,-0.8,1.8c-0.5,0.6,-1.1,0.9,-1.8,0.9c-0.3,0,-1,-0.4,-1.9,-1.1c-0.9,-0.7,-2.2,-1.4,-4,-2.1c-1.7,-0.8,-3.8,-1.1,-6.2,-1.1c-5,0,-8.8,1.3,-11.4,4c-2.7,2.8,-4,6.5,-4,11.3l0,12.5c0,4.8,1.3,8.6,3.9,11.2c2.7,2.7,6.5,4.1,11.6,4.1c2.5,0,4.7,-0.4,6.6,-1.1c1.8,-0.8,3.2,-1.5,4.1,-2.2c1,-0.8,1.7,-1.1,2.1,-1.1c0.7,0,1.3,0.3,1.7,0.8c0.5,0.6,0.7,1.1,0.7,1.8c0,1.5,-1.4,3.1,-4.4,4.6c-3,1.5,-6.6,2.2,-11.1,2.2c-6.7,0,-11.8,-1.8,-15.4,-5.6c-3.5,-3.7,-5.2,-8.6,-5.2,-14.7Z" class="g2_1" />
<path d="M788.9,242.1c0,-0.8,0.2,-1.5,0.8,-2.1l28.1,-42.7l-25.5,0c-0.7,0,-1.2,-0.2,-1.7,-0.7c-0.4,-0.5,-0.6,-1,-0.6,-1.7c0,-0.7,0.2,-1.3,0.6,-1.8c0.5,-0.5,1,-0.7,1.7,-0.7l30.8,0c0.6,0,1.2,0.2,1.6,0.6c0.5,0.5,0.7,1,0.7,1.7c0,0.6,-0.2,1.3,-0.7,1.9l-28.2,42.6l27.8,0c0.6,0,1.2,0.3,1.6,0.8c0.5,0.5,0.7,1.1,0.7,1.8c0,0.7,-0.2,1.3,-0.7,1.8c-0.4,0.4,-1,0.7,-1.6,0.7l-33,0c-0.7,0,-1.2,-0.3,-1.7,-0.7c-0.5,-0.4,-0.7,-0.9,-0.7,-1.5Z" class="g2_1" />
<path d="M836.6,241.8l0,-79.4c0,-0.7,0.2,-1.2,0.8,-1.7c0.5,-0.4,1.1,-0.6,1.8,-0.6c0.8,0,1.5,0.2,2,0.6c0.5,0.5,0.8,1,0.8,1.7l0,55.3l28.3,-24.9c0.4,-0.3,0.8,-0.5,1.3,-0.5c0.8,0,1.5,0.2,2,0.6c0.6,0.5,0.9,1.1,0.9,1.9c0,0.7,-0.3,1.3,-0.8,1.8l-17,14.8l19.8,29c0.2,0.4,0.3,0.8,0.3,1.2c0,0.7,-0.3,1.3,-0.8,1.9c-0.6,0.6,-1.2,0.9,-1.9,0.9c-0.8,0,-1.4,-0.4,-1.9,-1.1L852.9,214.9L842,224.4l0,17.4c0,0.6,-0.3,1.2,-0.8,1.7c-0.6,0.5,-1.2,0.8,-2,0.8c-0.7,0,-1.3,-0.3,-1.8,-0.7c-0.6,-0.5,-0.8,-1.1,-0.8,-1.8Z" class="g2_1" />
<path d="M885.5,241.8l0,-47.2c0,-1.5,0.9,-2.2,2.6,-2.2c1.9,0,2.8,0.7,2.8,2.2l0,47.2c0,0.6,-0.3,1.2,-0.8,1.7c-0.6,0.5,-1.2,0.8,-2,0.8c-0.7,0,-1.3,-0.3,-1.8,-0.7c-0.5,-0.5,-0.8,-1.1,-0.8,-1.8M884,171.9c0,-1,0.4,-1.9,1.2,-2.7c0.8,-0.7,1.8,-1.1,2.9,-1.1c1.2,0,2.1,0.4,2.9,1.1c0.8,0.8,1.2,1.7,1.2,2.7c0,1.1,-0.4,2.1,-1.2,2.9c-0.8,0.8,-1.7,1.2,-2.9,1.2c-1.1,0,-2.1,-0.4,-2.9,-1.2C884.4,174,884,173,884,171.9Z" class="g2_1" />

</svg>
